ISO-10303-21;
HEADER;
FILE_DESCRIPTION (( 'STEP AP214' ),
    '1' );
FILE_NAME ('Assem2.STEP',
    '2026-09-19T12:54:28',
    ( '' ),
    ( '' ),
    'SwSTEP 2.0',
    'SolidWorks 2020',
    '' );
FILE_SCHEMA (( 'AUTOMOTIVE_DESIGN' ));
ENDSEC;

DATA;
#1 = CARTESIAN_POINT ( 'NONE',  ( -35.00000000000000000, 85.00000000000000000, 200.0000000000000000 ) ) ;
#2 = VERTEX_POINT ( 'NONE', #1014 ) ;
#3 = PRODUCT_DEFINITION ( 'UNKNOWN', '', #872, #342 ) ;
#4 =( GEOMETRIC_REPRESENTATION_CONTEXT ( 3 ) GLOBAL_UNCERTAINTY_ASSIGNED_CONTEXT ( ( #749 ) ) GLOBAL_UNIT_ASSIGNED_CONTEXT ( ( #118, #377, #444 ) ) REPRESENTATION_CONTEXT ( 'NONE', 'WORKASPACE' ) );
#5 = CARTESIAN_POINT ( 'NONE',  ( -12.32164711953216774, 21.79082119656223782, 286.8928966381503187 ) ) ;
#6 = FILL_AREA_STYLE_COLOUR ( '', #882 ) ;
#7 = ORIENTED_EDGE ( 'NONE', *, *, #558, .T. ) ;
#8 = CARTESIAN_POINT ( 'NONE',  ( 1.825116624354789502E-14, -9.341823938536252114E-15, 168.9843362799476552 ) ) ;
#9 = CARTESIAN_POINT ( 'NONE',  ( 3.306790053079833314, 24.78040514001788353, 265.6183275530173091 ) ) ;
#10 = ORIENTED_EDGE ( 'NONE', *, *, #726, .T. ) ;
#11 = MECHANICAL_DESIGN_GEOMETRIC_PRESENTATION_REPRESENTATION (  '', ( #1017 ), #278 ) ;
#12 = DIRECTION ( 'NONE',  ( -1.000000000000000000, 0.000000000000000000, 0.000000000000000000 ) ) ;
#13 = CARTESIAN_POINT ( 'NONE',  ( 0.000000000000000000, 0.000000000000000000, 0.000000000000000000 ) ) ;
#14 = COLOUR_RGB ( '',0.7921568627450980005, 0.8196078431372548767, 0.9333333333333333481 ) ;
#15 = UNCERTAINTY_MEASURE_WITH_UNIT (LENGTH_MEASURE( 1.000000000000000082E-05 ), #510, 'distance_accuracy_value', 'NONE');
#16 = CARTESIAN_POINT ( 'NONE',  ( -15.92949164038490828, 19.27095447488681401, 287.8629338852355772 ) ) ;
#17 = DIRECTION ( 'NONE',  ( -0.7071067811865474617, 0.7071067811865476838, 0.000000000000000000 ) ) ;
#18 = ORIENTED_EDGE ( 'NONE', *, *, #437, .T. ) ;
#19 = FACE_OUTER_BOUND ( 'NONE', #450, .T. ) ;
#20 = DIRECTION ( 'NONE',  ( 1.000000000000000000, 0.000000000000000000, 0.000000000000000000 ) ) ;
#21 = DIRECTION ( 'NONE',  ( 0.000000000000000000, -0.000000000000000000, -1.000000000000000000 ) ) ;
#22 = CARTESIAN_POINT ( 'NONE',  ( -8.300154949693082429, 23.58932033476780532, 284.8383116193353999 ) ) ;
#23 = CARTESIAN_POINT ( 'NONE',  ( -24.86295550172128443, -2.617464576305685409, 272.7459139288917527 ) ) ;
#24 = AXIS2_PLACEMENT_3D ( 'NONE', #414, #908, #738 ) ;
#25 = EDGE_CURVE ( 'NONE', #468, #92, #432, .T. ) ;
#26 =( LENGTH_UNIT ( ) NAMED_UNIT ( * ) SI_UNIT ( .MILLI., .METRE. ) );
#27 = CARTESIAN_POINT ( 'NONE',  ( -13.45636291540837703, 21.11373018802778390, 287.3021919478815107 ) ) ;
#28 = CARTESIAN_POINT ( 'NONE',  ( -24.99738100132840302, 0.5562774748537671066, 278.0853069927368324 ) ) ;
#29 = STYLED_ITEM ( 'NONE', ( #668 ), #789 ) ;
#30 = LINE ( 'NONE', #127, #914 ) ;
#31 = EDGE_CURVE ( 'NONE', #468, #408, #507, .T. ) ;
#32 = CLOSED_SHELL ( 'NONE', ( #105, #587, #422 ) ) ;
#33 = SHAPE_DEFINITION_REPRESENTATION ( #810, #747 ) ;
#34 = CARTESIAN_POINT ( 'NONE',  ( -24.11197357122408391, 6.628365540693388347, 252.2657748109778879 ) ) ;
#35 = LINE ( 'NONE', #465, #627 ) ;
#36 = CARTESIAN_POINT ( 'NONE',  ( 0.000000000000000000, 75.00000000000000000, 50.00000000000000000 ) ) ;
#37 = ORIENTED_EDGE ( 'NONE', *, *, #543, .T. ) ;
#38 =( NAMED_UNIT ( * ) PLANE_ANGLE_UNIT ( ) SI_UNIT ( $, .RADIAN. ) );
#39 = EDGE_CURVE ( 'NONE', #408, #981, #1003, .T. ) ;
#40 = CARTESIAN_POINT ( 'NONE',  ( -24.74873734152917137, -3.535533905932715104, 267.6489382327861222 ) ) ;
#41 = PRODUCT_DEFINITION_FORMATION_WITH_SPECIFIED_SOURCE ( 'ANY', '', #253, .NOT_KNOWN. ) ;
#42 = CARTESIAN_POINT ( 'NONE',  ( 25.00100000000002964, -25.00099999999999412, 268.0000000000000000 ) ) ;
#43 = CARTESIAN_POINT ( 'NONE',  ( -18.11389138606662286, 17.24425944319358450, 247.9975147163475242 ) ) ;
#44 = PRODUCT ( 'Part1^Assem1', 'Part1^Assem1', '', ( #943 ) ) ;
#45 = DIRECTION ( 'NONE',  ( 1.000000000000000000, 0.000000000000000000, 0.000000000000000000 ) ) ;
#46 = ORIENTED_EDGE ( 'NONE', *, *, #964, .F. ) ;
#47 = SURFACE_STYLE_FILL_AREA ( #332 ) ;
#48 = CARTESIAN_POINT ( 'NONE',  ( -19.89760635142411616, 15.13950327390391948, 248.2819745248059746 ) ) ;
#49 = EDGE_LOOP ( 'NONE', ( #266, #734, #37, #494 ) ) ;
#50 = MANIFOLD_SOLID_BREP ( 'Boss-Extrude1', #32 ) ;
#51 = DIRECTION ( 'NONE',  ( 1.000000000000000000, 1.224646799147352961E-16, 0.000000000000000000 ) ) ;
#52 = ORIENTED_EDGE ( 'NONE', *, *, #964, .T. ) ;
#53 = SURFACE_STYLE_FILL_AREA ( #643 ) ;
#54 = MANIFOLD_SOLID_BREP ( 'Cut-Extrude1', #739 ) ;
#55 = CARTESIAN_POINT ( 'NONE',  ( -24.89093312296724392, -2.352724209536908528, 262.5850136954923641 ) ) ;
#56 = FACE_OUTER_BOUND ( 'NONE', #819, .T. ) ;
#57 = EDGE_CURVE ( 'NONE', #735, #156, #180, .T. ) ;
#58 = FACE_OUTER_BOUND ( 'NONE', #1028, .T. ) ;
#59 = EDGE_LOOP ( 'NONE', ( #71 ) ) ;
#60 = CIRCLE ( 'NONE', #218, 25.00000000000000000 ) ;
#61 = DIRECTION ( 'NONE',  ( 1.000000000000000000, -6.122076534966415883E-17, 0.000000000000000000 ) ) ;
#62 = LINE ( 'NONE', #354, #326 ) ;
#63 = DIRECTION ( 'NONE',  ( -0.000000000000000000, -0.000000000000000000, 1.000000000000000000 ) ) ;
#64 = ORIENTED_EDGE ( 'NONE', *, *, #67, .T. ) ;
#65 = VECTOR ( 'NONE', #340, 1000.000000000000000 ) ;
#66 =( LENGTH_UNIT ( ) NAMED_UNIT ( * ) SI_UNIT ( .MILLI., .METRE. ) );
#67 = EDGE_CURVE ( 'NONE', #1072, #2, #170, .T. ) ;
#68 = CARTESIAN_POINT ( 'NONE',  ( 0.000000000000000000, 0.000000000000000000, 200.0000000000000000 ) ) ;
#69 = VECTOR ( 'NONE', #970, 1000.000000000000000 ) ;
#70 = DIRECTION ( 'NONE',  ( -1.000000000000000000, 0.000000000000000000, 0.000000000000000000 ) ) ;
#71 = ORIENTED_EDGE ( 'NONE', *, *, #302, .F. ) ;
#72 = PRODUCT_DEFINITION_SHAPE ( 'NONE', 'NONE',  #321 ) ;
#73 = SURFACE_SIDE_STYLE ('',( #251 ) ) ;
#74 = ADVANCED_FACE ( 'NONE', ( #167, #836 ), #918, .T. ) ;
#75 = UNCERTAINTY_MEASURE_WITH_UNIT (LENGTH_MEASURE( 1.000000000000000082E-05 ), #66, 'distance_accuracy_value', 'NONE');
#76 = VERTEX_POINT ( 'NONE', #421 ) ;
#77 = DIRECTION ( 'NONE',  ( -0.000000000000000000, 0.000000000000000000, 1.000000000000000000 ) ) ;
#78 = ORIENTED_EDGE ( 'NONE', *, *, #816, .T. ) ;
#79 = PRESENTATION_LAYER_ASSIGNMENT (  '', '', ( #1027 ) ) ;
#80 = FACE_OUTER_BOUND ( 'NONE', #352, .T. ) ;
#81 = DIRECTION ( 'NONE',  ( 1.000000000000000000, 0.000000000000000000, 0.000000000000000000 ) ) ;
#82 = DIRECTION ( 'NONE',  ( -0.000000000000000000, -0.000000000000000000, -1.000000000000000000 ) ) ;
#83 = DIRECTION ( 'NONE',  ( 0.000000000000000000, 0.000000000000000000, -1.000000000000000000 ) ) ;
#84 = ORIENTED_EDGE ( 'NONE', *, *, #956, .F. ) ;
#85 = CIRCLE ( 'NONE', #183, 26.25000000000001066 ) ;
#86 = FACE_OUTER_BOUND ( 'NONE', #505, .T. ) ;
#87 = CARTESIAN_POINT ( 'NONE',  ( -35.00000000000000000, -4.286263797015735707E-15, 57.00000000000000000 ) ) ;
#88 = AXIS2_PLACEMENT_3D ( 'NONE', #216, #464, #135 ) ;
#89 = LINE ( 'NONE', #928, #224 ) ;
#90 = ADVANCED_FACE ( 'NONE', ( #415 ), #751, .F. ) ;
#91 = B_SPLINE_CURVE_WITH_KNOTS ( 'NONE', 3,
 ( #293, #695, #223, #711, #23, #286, #613, #795, #304, #626, #107, #28, #958, #963, #126, #860, #200, #132, #807, #365, #1020, #939, #371, #447, #701, #1026, #946, #788, #379, #708, #298, #780, #378, #16, #854, #297, #925, #27, #5, #603, #285, #119, #933, #271, #22, #458, #870, #524, #101, #364, #446, #707, #1030, #114, #382, #1008, #106, #438, #206, #794, #370, #544, #454, #700, #1025, #625, #191, #9, #851, #771, #292, #953, #211, #529, #184, #94, #694, #686, #518, #865, #537, #619, #944, #431, #1019, #764, #787, #358, #1013, #276, #608, #612, #938, #199, #859, #43, #303, #392, #894, #48, #650, #554, #478, #962, #131, #1048, #725, #1054, #957, #1056, #34, #385, #147, #229, #475, #1042, #222, #730, #324, #639, #877, #55, #815, #485, #237, #811, #125, #567, #40, #390 ),
 .UNSPECIFIED., .T., .F.,
 ( 4, 2, 2, 2, 2, 2, 2, 2, 2, 2, 2, 2, 2, 2, 2, 2, 2, 2, 2, 2, 2, 2, 2, 2, 2, 2, 2, 2, 2, 2, 2, 2, 2, 2, 2, 2, 2, 2, 2, 2, 2, 2, 2, 2, 2, 2, 2, 2, 2, 2, 2, 2, 2, 2, 2, 2, 2, 2, 2, 2, 2, 2, 2, 2, 4 ),
 ( 0.000000000000000000, 0.004144235408353733226, 0.005180294260442206214, 0.006216353112530677467, 0.008288470816707620842, 0.01036058852088456682, 0.01243270622506150933, 0.01657694163341539781, 0.01864905933759229001, 0.02072117704176918568, 0.02486541245012296661, 0.02590147130221144914, 0.02693753015429993167, 0.02900964785847689326, 0.03108176556265385485, 0.03315388326683081643, 0.03522600097100777455, 0.03626205982309625708, 0.03729811867518473961, 0.04144235408353864891, 0.04247841293562712450, 0.04351447178771560009, 0.04558658949189255821, 0.04765870719606953021, 0.04973082490024648833, 0.05387506030860041151, 0.05594717801277737657, 0.05801929571695434162, 0.06009141342113129974, 0.06216353112530825786, 0.06423564882948522292, 0.06527170768157361525, 0.06630776653366202145, 0.06837988423783881997, 0.06941594308992721230, 0.07045200194201561850, 0.07459623735036922942, 0.07666835505454594468, 0.07874047275872268770, 0.08288470816707603495, 0.08495682587125268082, 0.08702894357542935444, 0.09117317898378277108, 0.09220923783587113565, 0.09324529668795948634, 0.09531741439213625711, 0.09738953209631301400, 0.09946164980048978477, 0.1015337675046665555, 0.1025698263567549201, 0.1036058852088432847, 0.1077501206171968540, 0.1087861794692852324, 0.1098222383213736247, 0.1118943560255504788, 0.1139664737297273328, 0.1160385914339041730, 0.1201828268422578810, 0.1222549445464347351, 0.1243270622506115752, 0.1263991799547884431, 0.1284712976589652833, 0.1305434153631421235, 0.1315794742152304742, 0.1326155330673188248 ),
 .UNSPECIFIED. ) ;
#92 = VERTEX_POINT ( 'NONE', #459 ) ;
#93 =( NAMED_UNIT ( * ) SI_UNIT ( $, .STERADIAN. ) SOLID_ANGLE_UNIT ( ) );
#94 = CARTESIAN_POINT ( 'NONE',  ( -0.5428364449447603546, 24.99763184009109196, 257.9315073829281459 ) ) ;
#95 = DIRECTION ( 'NONE',  ( 1.000000000000000000, 1.665334536937734811E-15, 0.000000000000000000 ) ) ;
#96 =( REPRESENTATION_RELATIONSHIP ('NONE','NONE', #313, #747 ) REPRESENTATION_RELATIONSHIP_WITH_TRANSFORMATION ( #362 )SHAPE_REPRESENTATION_RELATIONSHIP( ) );
#97 = CARTESIAN_POINT ( 'NONE',  ( 35.00000000000000000, 6.938893903907228378E-15, 57.00000000000000000 ) ) ;
#98 = EDGE_LOOP ( 'NONE', ( #621 ) ) ;
#99 = DIRECTION ( 'NONE',  ( 0.000000000000000000, 0.000000000000000000, 1.000000000000000000 ) ) ;
#100 = AXIS2_PLACEMENT_3D ( 'NONE', #181, #997, #273 ) ;
#101 = CARTESIAN_POINT ( 'NONE',  ( -4.984467854459145641, 24.50383811128313027, 282.4874024859712449 ) ) ;
#102 = ORIENTED_EDGE ( 'NONE', *, *, #31, .F. ) ;
#103 = CARTESIAN_POINT ( 'NONE',  ( 0.000000000000000000, 0.000000000000000000, 57.00000000000000000 ) ) ;
#104 = DIRECTION ( 'NONE',  ( 0.000000000000000000, 0.000000000000000000, 1.000000000000000000 ) ) ;
#105 = ADVANCED_FACE ( 'NONE', ( #207 ), #217, .T. ) ;
#106 = CARTESIAN_POINT ( 'NONE',  ( 1.737140240779553757, 24.94145234732629035, 274.6749402683204835 ) ) ;
#107 = CARTESIAN_POINT ( 'NONE',  ( -25.00190301281131866, -0.2886993117080896565, 276.9771880321833351 ) ) ;
#108 = ORIENTED_EDGE ( 'NONE', *, *, #186, .F. ) ;
#109 = AXIS2_PLACEMENT_3D ( 'NONE', #802, #386, #551 ) ;
#110 = DIRECTION ( 'NONE',  ( 1.000000000000000000, 1.224646799147353454E-16, 0.000000000000000000 ) ) ;
#111 = VECTOR ( 'NONE', #575, 1000.000000000000000 ) ;
#112 = SHAPE_DEFINITION_REPRESENTATION ( #989, #796 ) ;
#113 = ADVANCED_FACE ( 'NONE', ( #471 ), #120, .T. ) ;
#114 = CARTESIAN_POINT ( 'NONE',  ( 0.2634237765304093259, 25.00216900914773177, 277.0121448542209919 ) ) ;
#115 = CARTESIAN_POINT ( 'NONE',  ( 0.000000000000000000, 110.0000000000000000, 0.000000000000000000 ) ) ;
#116 = PRODUCT ( 'Part3^Assem1', 'Part3^Assem1', '', ( #369 ) ) ;
#117 = DIRECTION ( 'NONE',  ( -0.000000000000000000, 0.000000000000000000, 1.000000000000000000 ) ) ;
#118 =( LENGTH_UNIT ( ) NAMED_UNIT ( * ) SI_UNIT ( .MILLI., .METRE. ) );
#119 = CARTESIAN_POINT ( 'NONE',  ( -10.01228781241789001, 22.90969956210685510, 285.8027342805716557 ) ) ;
#120 = PLANE ( 'NONE',  #109 ) ;
#121 = VECTOR ( 'NONE', #160, 1000.000000000000000 ) ;
#122 =( REPRESENTATION_RELATIONSHIP ('NONE','NONE', #313, #898 ) REPRESENTATION_RELATIONSHIP_WITH_TRANSFORMATION ( #574 )SHAPE_REPRESENTATION_RELATIONSHIP( ) );
#123 = CARTESIAN_POINT ( 'NONE',  ( -26.25000000000001066, 85.00000000000000000, 205.0000000000000284 ) ) ;
#124 = ORIENTED_EDGE ( 'NONE', *, *, #956, .T. ) ;
#125 = CARTESIAN_POINT ( 'NONE',  ( -24.75951086369328280, -3.459416397127279552, 266.5969158842745514 ) ) ;
#126 = CARTESIAN_POINT ( 'NONE',  ( -24.79451699642713436, 3.369024413513321381, 281.1153155698549995 ) ) ;
#127 = CARTESIAN_POINT ( 'NONE',  ( 0.000000000000000000, 40.26117457956679146, 205.0000000000000284 ) ) ;
#128 = COLOUR_RGB ( '',0.7921568627450980005, 0.8196078431372548767, 0.9333333333333333481 ) ;
#129 = VECTOR ( 'NONE', #513, 1000.000000000000000 ) ;
#130 = ITEM_DEFINED_TRANSFORMATION ( 'NONE', 'NONE', #598,  #873 ) ;
#131 = CARTESIAN_POINT ( 'NONE',  ( -22.64243279321815905, 10.60286467981925895, 249.8993477280558579 ) ) ;
#132 = CARTESIAN_POINT ( 'NONE',  ( -24.13044018790477097, 6.560523336724225274, 283.6859647454028845 ) ) ;
#133 = DIRECTION ( 'NONE',  ( -1.000000000000000000, -1.224646799147353454E-16, 0.000000000000000000 ) ) ;
#134 = DIRECTION ( 'NONE',  ( 1.000000000000000000, 0.000000000000000000, 0.000000000000000000 ) ) ;
#135 = DIRECTION ( 'NONE',  ( -1.000000000000000000, 0.000000000000000000, 0.000000000000000000 ) ) ;
#136 =( GEOMETRIC_REPRESENTATION_CONTEXT ( 3 ) GLOBAL_UNCERTAINTY_ASSIGNED_CONTEXT ( ( #173 ) ) GLOBAL_UNIT_ASSIGNED_CONTEXT ( ( #648, #899, #419 ) ) REPRESENTATION_CONTEXT ( 'NONE', 'WORKASPACE' ) );
#137 = CONTEXT_DEPENDENT_SHAPE_REPRESENTATION ( #484, #916 ) ;
#138 = LINE ( 'NONE', #487, #111 ) ;
#139 = FILL_AREA_STYLE_COLOUR ( '', #547 ) ;
#140 = EDGE_CURVE ( 'NONE', #1005, #208, #35, .T. ) ;
#141 = CARTESIAN_POINT ( 'NONE',  ( 0.000000000000000000, 0.000000000000000000, 0.000000000000000000 ) ) ;
#142 = CONTEXT_DEPENDENT_SHAPE_REPRESENTATION ( #323, #171 ) ;
#143 = CARTESIAN_POINT ( 'NONE',  ( 0.000000000000000000, 0.000000000000000000, 0.000000000000000000 ) ) ;
#144 = VERTEX_POINT ( 'NONE', #545 ) ;
#145 =( LENGTH_UNIT ( ) NAMED_UNIT ( * ) SI_UNIT ( .MILLI., .METRE. ) );
#146 = CLOSED_SHELL ( 'NONE', ( #219, #886, #743 ) ) ;
#147 = CARTESIAN_POINT ( 'NONE',  ( -24.50293341682540671, 4.988996110610849577, 253.5089026839230542 ) ) ;
#148 = EDGE_CURVE ( 'NONE', #1005, #468, #717, .T. ) ;
#149 = CONTEXT_DEPENDENT_SHAPE_REPRESENTATION ( #242, #622 ) ;
#150 = DIRECTION ( 'NONE',  ( -0.000000000000000000, 0.000000000000000000, 1.000000000000000000 ) ) ;
#151 = EDGE_LOOP ( 'NONE', ( #672, #440, #488, #102, #919, #741, #652 ) ) ;
#152 = PRESENTATION_STYLE_ASSIGNMENT (( #893 ) ) ;
#153 = CARTESIAN_POINT ( 'NONE',  ( -26.25000000000001066, 85.00000000000000000, 199.9990000000000236 ) ) ;
#154 = DIRECTION ( 'NONE',  ( -0.000000000000000000, 0.000000000000000000, 1.000000000000000000 ) ) ;
#155 = DIRECTION ( 'NONE',  ( 1.000000000000000000, 0.000000000000000000, -0.000000000000000000 ) ) ;
#156 = VERTEX_POINT ( 'NONE', #620 ) ;
#157 =( REPRESENTATION_RELATIONSHIP ('NONE','NONE', #313, #747 ) REPRESENTATION_RELATIONSHIP_WITH_TRANSFORMATION ( #528 )SHAPE_REPRESENTATION_RELATIONSHIP( ) );
#158 = CIRCLE ( 'NONE', #24, 35.00000000000000000 ) ;
#159 = DIRECTION ( 'NONE',  ( 0.000000000000000000, 0.000000000000000000, 1.000000000000000000 ) ) ;
#160 = DIRECTION ( 'NONE',  ( -0.000000000000000000, -0.000000000000000000, -1.000000000000000000 ) ) ;
#161 = DIRECTION ( 'NONE',  ( 1.000000000000000000, 1.982541115402065110E-16, -0.000000000000000000 ) ) ;
#162 = ORIENTED_EDGE ( 'NONE', *, *, #1057, .T. ) ;
#163 = EDGE_CURVE ( 'NONE', #658, #658, #187, .T. ) ;
#164 = VECTOR ( 'NONE', #82, 1000.000000000000000 ) ;
#165 = CARTESIAN_POINT ( 'NONE',  ( 15.00000000000000000, 75.00000000000000000, 57.00000000000000000 ) ) ;
#166 = STYLED_ITEM ( 'NONE', ( #202 ), #413 ) ;
#167 = FACE_BOUND ( 'NONE', #411, .T. ) ;
#168 = SURFACE_STYLE_USAGE ( .BOTH. , #757 ) ;
#169 = VERTEX_POINT ( 'NONE', #1038 ) ;
#170 = CIRCLE ( 'NONE', #227, 25.00000000000000000 ) ;
#171 = PRODUCT_DEFINITION_SHAPE ( 'NONE', 'NONE',  #1082 ) ;
#172 = PRESENTATION_STYLE_ASSIGNMENT (( #412 ) ) ;
#173 = UNCERTAINTY_MEASURE_WITH_UNIT (LENGTH_MEASURE( 1.000000000000000082E-05 ), #648, 'distance_accuracy_value', 'NONE');
#174 = DIRECTION ( 'NONE',  ( -0.000000000000000000, 0.000000000000000000, 1.000000000000000000 ) ) ;
#175 = CARTESIAN_POINT ( 'NONE',  ( 0.000000000000000000, 75.00000000000000000, 0.000000000000000000 ) ) ;
#176 = VERTEX_POINT ( 'NONE', #530 ) ;
#177 = PRESENTATION_LAYER_ASSIGNMENT (  '', '', ( #267 ) ) ;
#178 = CIRCLE ( 'NONE', #548, 25.00000000000000000 ) ;
#179 = DIRECTION ( 'NONE',  ( 1.000000000000000000, 0.000000000000000000, 0.000000000000000000 ) ) ;
#180 = LINE ( 'NONE', #847, #483 ) ;
#181 = CARTESIAN_POINT ( 'NONE',  ( 0.000000000000000000, 0.000000000000000000, 300.0000000000000000 ) ) ;
#182 = VERTEX_POINT ( 'NONE', #308 ) ;
#183 = AXIS2_PLACEMENT_3D ( 'NONE', #740, #973, #887 ) ;
#184 = CARTESIAN_POINT ( 'NONE',  ( 0.2968414743365679342, 25.00176302099132997, 259.0343233504794398 ) ) ;
#185 = DIRECTION ( 'NONE',  ( 0.000000000000000000, 1.000000000000000000, -0.000000000000000000 ) ) ;
#186 = EDGE_CURVE ( 'NONE', #855, #1062, #383, .T. ) ;
#187 = CIRCLE ( 'NONE', #318, 20.00000000000001776 ) ;
#188 =( NAMED_UNIT ( * ) PLANE_ANGLE_UNIT ( ) SI_UNIT ( $, .RADIAN. ) );
#189 = ORIENTED_EDGE ( 'NONE', *, *, #631, .F. ) ;
#190 = FILL_AREA_STYLE ('',( #499 ) ) ;
#191 = CARTESIAN_POINT ( 'NONE',  ( 3.478574909131738391, 24.75707725148201988, 266.6418778620401895 ) ) ;
#192 = EDGE_CURVE ( 'NONE', #208, #92, #638, .T. ) ;
#193 = CARTESIAN_POINT ( 'NONE',  ( 0.000000000000000000, 0.000000000000000000, 50.00000000000000000 ) ) ;
#194 = ORIENTED_EDGE ( 'NONE', *, *, #558, .F. ) ;
#195 = PLANE ( 'NONE',  #996 ) ;
#196 = SHAPE_REPRESENTATION_RELATIONSHIP ( 'NONE' , 'NONE' ,  #968, #972 ) ;
#197 = PRODUCT_DEFINITION_FORMATION_WITH_SPECIFIED_SOURCE ( 'ANY', '', #44, .NOT_KNOWN. ) ;
#198 = CONTEXT_DEPENDENT_SHAPE_REPRESENTATION ( #1064, #462 ) ;
#199 = CARTESIAN_POINT ( 'NONE',  ( -16.62202461933700093, 18.68674487593278499, 248.0411258676094235 ) ) ;
#200 = CARTESIAN_POINT ( 'NONE',  ( -24.40194945757858491, 5.464748190313334142, 282.8691520657455953 ) ) ;
#201 = VERTEX_POINT ( 'NONE', #212 ) ;
#202 = PRESENTATION_STYLE_ASSIGNMENT (( #783 ) ) ;
#203 = DIRECTION ( 'NONE',  ( 1.000000000000000000, 0.000000000000000000, 0.000000000000000000 ) ) ;
#204 = EDGE_CURVE ( 'NONE', #846, #846, #91, .T. ) ;
#205 = DIRECTION ( 'NONE',  ( 0.3677827475363527054, 0.9299117434545127736, 0.000000000000000000 ) ) ;
#206 = CARTESIAN_POINT ( 'NONE',  ( 2.618293183169769112, 24.86350930250804936, 272.7778032465421916 ) ) ;
#207 = FACE_OUTER_BOUND ( 'NONE', #328, .T. ) ;
#208 = VERTEX_POINT ( 'NONE', #550 ) ;
#209 =( GEOMETRIC_REPRESENTATION_CONTEXT ( 3 ) GLOBAL_UNCERTAINTY_ASSIGNED_CONTEXT ( ( #699 ) ) GLOBAL_UNIT_ASSIGNED_CONTEXT ( ( #428, #355, #852 ) ) REPRESENTATION_CONTEXT ( 'NONE', 'WORKASPACE' ) );
#210 = DIRECTION ( 'NONE',  ( 1.000000000000000000, 0.000000000000000000, 0.000000000000000000 ) ) ;
#211 = CARTESIAN_POINT ( 'NONE',  ( 1.803544085021052679, 24.94577799487258574, 261.3762657100469937 ) ) ;
#212 = CARTESIAN_POINT ( 'NONE',  ( 25.00000000000000000, -1.530519133741603786E-15, 57.00000000000000000 ) ) ;
#213 = DIRECTION ( 'NONE',  ( 0.000000000000000000, 1.000000000000000000, -0.000000000000000000 ) ) ;
#214 = CARTESIAN_POINT ( 'NONE',  ( -6.908880627450481473E-15, 1.378622165808007655E-15, -74.85093206534394028 ) ) ;
#215 = CARTESIAN_POINT ( 'NONE',  ( 0.000000000000000000, 25.00000000000000000, 205.0000000000000284 ) ) ;
#216 = CARTESIAN_POINT ( 'NONE',  ( 0.000000000000000000, 0.000000000000000000, 300.0000000000000000 ) ) ;
#217 = PLANE ( 'NONE',  #949 ) ;
#218 = AXIS2_PLACEMENT_3D ( 'NONE', #900, #680, #1070 ) ;
#219 = ADVANCED_FACE ( 'NONE', ( #561, #710 ), #883, .T. ) ;
#220 = CARTESIAN_POINT ( 'NONE',  ( 0.000000000000000000, 0.000000000000000000, 205.0000000000000284 ) ) ;
#221 =( REPRESENTATION_RELATIONSHIP ('NONE','NONE', #313, #898 ) REPRESENTATION_RELATIONSHIP_WITH_TRANSFORMATION ( #645 )SHAPE_REPRESENTATION_RELATIONSHIP( ) );
#222 = CARTESIAN_POINT ( 'NONE',  ( -24.99690469077263799, 0.5769008411382209323, 257.8892989685008956 ) ) ;
#223 = CARTESIAN_POINT ( 'NONE',  ( -24.78631297868413697, -3.291799384142140905, 270.7634849937433046 ) ) ;
#224 = VECTOR ( 'NONE', #585, 1000.000000000000000 ) ;
#225 = DIRECTION ( 'NONE',  ( -1.000000000000000000, 6.122076534966414650E-17, 0.000000000000000000 ) ) ;
#226 = ORIENTED_EDGE ( 'NONE', *, *, #437, .F. ) ;
#227 = AXIS2_PLACEMENT_3D ( 'NONE', #439, #772, #95 ) ;
#228 = AXIS2_PLACEMENT_3D ( 'NONE', #289, #559, #792 ) ;
#229 = CARTESIAN_POINT ( 'NONE',  ( -24.78837129784415083, 3.416425220093885162, 254.8404002909410622 ) ) ;
#230 = ITEM_DEFINED_TRANSFORMATION ( 'NONE', 'NONE', #232,  #873 ) ;
#231 = FACE_OUTER_BOUND ( 'NONE', #881, .T. ) ;
#232 = AXIS2_PLACEMENT_3D ( 'NONE', #549, #950, #210 ) ;
#233 = AXIS2_PLACEMENT_3D ( 'NONE', #290, #527, #706 ) ;
#234 = DIRECTION ( 'NONE',  ( 1.000000000000000000, 0.000000000000000000, 0.000000000000000000 ) ) ;
#235 = ORIENTED_EDGE ( 'NONE', *, *, #653, .T. ) ;
#236 = EDGE_CURVE ( 'NONE', #987, #987, #712, .T. ) ;
#237 = CARTESIAN_POINT ( 'NONE',  ( -24.78975230889407300, -3.237638855160997586, 265.2238945744654757 ) ) ;
#238 = AXIS2_PLACEMENT_3D ( 'NONE', #322, #646, #234 ) ;
#239 = DIRECTION ( 'NONE',  ( -1.000000000000000000, 0.000000000000000000, 0.000000000000000000 ) ) ;
#240 = ORIENTED_EDGE ( 'NONE', *, *, #393, .F. ) ;
#241 = AXIS2_PLACEMENT_3D ( 'NONE', #307, #722, #1037 ) ;
#242 =( REPRESENTATION_RELATIONSHIP ('NONE','NONE', #313, #898 ) REPRESENTATION_RELATIONSHIP_WITH_TRANSFORMATION ( #895 )SHAPE_REPRESENTATION_RELATIONSHIP( ) );
#243 = DIRECTION ( 'NONE',  ( 0.000000000000000000, 0.000000000000000000, 1.000000000000000000 ) ) ;
#244 = CARTESIAN_POINT ( 'NONE',  ( 0.000000000000000000, 0.000000000000000000, 205.0000000000000284 ) ) ;
#245 = CARTESIAN_POINT ( 'NONE',  ( -25.00000000000000000, 40.26117457956679146, 199.9990000000000236 ) ) ;
#246 = EDGE_LOOP ( 'NONE', ( #868 ) ) ;
#247 = FACE_OUTER_BOUND ( 'NONE', #424, .T. ) ;
#248 = EDGE_CURVE ( 'NONE', #169, #565, #801, .T. ) ;
#249 = AXIS2_PLACEMENT_3D ( 'NONE', #442, #374, #775 ) ;
#250 = ORIENTED_EDGE ( 'NONE', *, *, #1000, .F. ) ;
#251 = SURFACE_STYLE_FILL_AREA ( #662 ) ;
#252 = DIRECTION ( 'NONE',  ( -0.000000000000000000, -0.000000000000000000, 1.000000000000000000 ) ) ;
#253 = PRODUCT ( 'Assem2', 'Assem2', '', ( #618 ) ) ;
#254 = UNCERTAINTY_MEASURE_WITH_UNIT (LENGTH_MEASURE( 1.000000000000000082E-05 ), #814, 'distance_accuracy_value', 'NONE');
#255 = CARTESIAN_POINT ( 'NONE',  ( 0.000000000000000000, 110.0000000000000000, 57.00000000000000000 ) ) ;
#256 = EDGE_LOOP ( 'NONE', ( #611, #64, #773, #582, #10, #947, #845 ) ) ;
#257 = AXIS2_PLACEMENT_3D ( 'NONE', #644, #971, #563 ) ;
#258 = DIRECTION ( 'NONE',  ( 0.000000000000000000, -0.000000000000000000, 1.000000000000000000 ) ) ;
#259 = DIRECTION ( 'NONE',  ( -0.000000000000000000, -0.000000000000000000, -1.000000000000000000 ) ) ;
#260 = CYLINDRICAL_SURFACE ( 'NONE', #457, 35.00000000000000000 ) ;
#261 = ORIENTED_EDGE ( 'NONE', *, *, #405, .F. ) ;
#262 =( REPRESENTATION_RELATIONSHIP ('NONE','NONE', #313, #747 ) REPRESENTATION_RELATIONSHIP_WITH_TRANSFORMATION ( #889 )SHAPE_REPRESENTATION_RELATIONSHIP( ) );
#263 = CARTESIAN_POINT ( 'NONE',  ( -35.00000000000000000, 85.00000000000000000, 205.0000000000000284 ) ) ;
#264 = SURFACE_STYLE_FILL_AREA ( #843 ) ;
#265 = FILL_AREA_STYLE ('',( #417 ) ) ;
#266 = ORIENTED_EDGE ( 'NONE', *, *, #969, .F. ) ;
#267 = STYLED_ITEM ( 'NONE', ( #729 ), #677 ) ;
#268 = VECTOR ( 'NONE', #824, 1000.000000000000000 ) ;
#269 = PRODUCT_DEFINITION ( 'UNKNOWN', '', #940, #665 ) ;
#270 = APPLICATION_CONTEXT ( 'automotive_design' ) ;
#271 = CARTESIAN_POINT ( 'NONE',  ( -8.867086988769864675, 23.38282073162919872, 285.1776151251861506 ) ) ;
#272 =( LENGTH_UNIT ( ) NAMED_UNIT ( * ) SI_UNIT ( .MILLI., .METRE. ) );
#273 = DIRECTION ( 'NONE',  ( 1.000000000000000000, 0.000000000000000000, -0.000000000000000000 ) ) ;
#274 = ORIENTED_EDGE ( 'NONE', *, *, #353, .F. ) ;
#275 =( LENGTH_UNIT ( ) NAMED_UNIT ( * ) SI_UNIT ( .MILLI., .METRE. ) );
#276 = CARTESIAN_POINT ( 'NONE',  ( -13.34506205758005670, 21.15058772273864918, 248.7648379536213383 ) ) ;
#277 = SURFACE_SIDE_STYLE ('',( #264 ) ) ;
#278 =( GEOMETRIC_REPRESENTATION_CONTEXT ( 3 ) GLOBAL_UNCERTAINTY_ASSIGNED_CONTEXT ( ( #536 ) ) GLOBAL_UNIT_ASSIGNED_CONTEXT ( ( #272, #597, #350 ) ) REPRESENTATION_CONTEXT ( 'NONE', 'WORKASPACE' ) );
#279 = VECTOR ( 'NONE', #225, 1000.000000000000000 ) ;
#280 = FACE_BOUND ( 'NONE', #434, .T. ) ;
#281 = ORIENTED_EDGE ( 'NONE', *, *, #39, .T. ) ;
#282 = LINE ( 'NONE', #153, #539 ) ;
#283 =( NAMED_UNIT ( * ) PLANE_ANGLE_UNIT ( ) SI_UNIT ( $, .RADIAN. ) );
#284 = ITEM_DEFINED_TRANSFORMATION ( 'NONE', 'NONE', #233,  #873 ) ;
#285 = CARTESIAN_POINT ( 'NONE',  ( -10.58925699487578598, 22.64879417455077260, 286.0939974657666767 ) ) ;
#286 = CARTESIAN_POINT ( 'NONE',  ( -24.88938878406790778, -2.352871234110113896, 273.3888846159342165 ) ) ;
#287 = ADVANCED_FACE ( 'NONE', ( #637 ), #320, .F. ) ;
#288 = ORIENTED_EDGE ( 'NONE', *, *, #192, .F. ) ;
#289 = CARTESIAN_POINT ( 'NONE',  ( 0.000000000000000000, 0.000000000000000000, 300.0000000000000000 ) ) ;
#290 = CARTESIAN_POINT ( 'NONE',  ( 0.000000000000000000, 0.000000000000000000, 0.000000000000000000 ) ) ;
#291 = UNCERTAINTY_MEASURE_WITH_UNIT (LENGTH_MEASURE( 1.000000000000000082E-05 ), #675, 'distance_accuracy_value', 'NONE');
#292 = CARTESIAN_POINT ( 'NONE',  ( 2.967221143779002368, 24.82353283439509184, 264.2649046180014807 ) ) ;
#293 = CARTESIAN_POINT ( 'NONE',  ( -24.74873734152917137, -3.535533905932715104, 268.0000000000000568 ) ) ;
#294 = ORIENTED_EDGE ( 'NONE', *, *, #25, .T. ) ;
#295 = SURFACE_STYLE_FILL_AREA ( #874 ) ;
#296 = DIRECTION ( 'NONE',  ( 0.000000000000000000, 0.000000000000000000, 0.9999999999999998890 ) ) ;
#297 = CARTESIAN_POINT ( 'NONE',  ( -15.11978253552595852, 19.91257993945347948, 287.7138079897184184 ) ) ;
#298 = CARTESIAN_POINT ( 'NONE',  ( -18.19596655679417196, 17.15759345740744379, 287.9984275300508898 ) ) ;
#299 = SURFACE_SIDE_STYLE ('',( #295 ) ) ;
#300 = EDGE_LOOP ( 'NONE', ( #226, #194, #346, #511 ) ) ;
#301 = PRODUCT_CONTEXT ( 'NONE', #310, 'mechanical' ) ;
#302 = EDGE_CURVE ( 'NONE', #596, #596, #932, .T. ) ;
#303 = CARTESIAN_POINT ( 'NONE',  ( -18.58253802192620086, 16.73812899447850100, 248.0306115636960556 ) ) ;
#304 = CARTESIAN_POINT ( 'NONE',  ( -24.96236523237001492, -1.419630319363735627, 275.2387312406123101 ) ) ;
#305 = CARTESIAN_POINT ( 'NONE',  ( 0.000000000000000000, 0.000000000000000000, 50.00000000000000000 ) ) ;
#306 = APPLICATION_PROTOCOL_DEFINITION ( 'draft international standard', 'automotive_design', 1998, #808 ) ;
#307 = CARTESIAN_POINT ( 'NONE',  ( 0.000000000000000000, 75.00000000000000000, 57.00000000000000000 ) ) ;
#308 = CARTESIAN_POINT ( 'NONE',  ( -25.00000000000000000, -3.061616997868383831E-15, 205.0000000000000284 ) ) ;
#309 =( GEOMETRIC_REPRESENTATION_CONTEXT ( 3 ) GLOBAL_UNCERTAINTY_ASSIGNED_CONTEXT ( ( #911 ) ) GLOBAL_UNIT_ASSIGNED_CONTEXT ( ( #145, #38, #314 ) ) REPRESENTATION_CONTEXT ( 'NONE', 'WORKASPACE' ) );
#310 = APPLICATION_CONTEXT ( 'automotive_design' ) ;
#311 = DIRECTION ( 'NONE',  ( 1.224646799147353454E-16, -1.000000000000000000, 0.000000000000000000 ) ) ;
#312 = ORIENTED_EDGE ( 'NONE', *, *, #393, .T. ) ;
#313 = SHAPE_REPRESENTATION ( 'Assem2', ( #325, #598, #704, #233, #906, #249, #841, #840, #986, #790, #232 ), #4 ) ;
#314 =( NAMED_UNIT ( * ) SI_UNIT ( $, .STERADIAN. ) SOLID_ANGLE_UNIT ( ) );
#315 = DIRECTION ( 'NONE',  ( 0.000000000000000000, -1.000000000000000000, 0.000000000000000000 ) ) ;
#316 = ADVANCED_FACE ( 'NONE', ( #1069 ), #195, .T. ) ;
#317 = LINE ( 'NONE', #1055, #623 ) ;
#318 = AXIS2_PLACEMENT_3D ( 'NONE', #781, #17, #555 ) ;
#319 = AXIS2_PLACEMENT_3D ( 'NONE', #1046, #451, #697 ) ;
#320 = CYLINDRICAL_SURFACE ( 'NONE', #257, 26.25000000000001066 ) ;
#321 = PRODUCT_DEFINITION ( 'UNKNOWN', '', #339, #470 ) ;
#322 = CARTESIAN_POINT ( 'NONE',  ( 0.000000000000000000, 0.000000000000000000, 57.00000000000000000 ) ) ;
#323 =( REPRESENTATION_RELATIONSHIP ('NONE','NONE', #313, #968 ) REPRESENTATION_RELATIONSHIP_WITH_TRANSFORMATION ( #492 )SHAPE_REPRESENTATION_RELATIONSHIP( ) );
#324 = CARTESIAN_POINT ( 'NONE',  ( -24.99389631619360586, -0.6643402621422697107, 259.5600641054806488 ) ) ;
#325 = AXIS2_PLACEMENT_3D ( 'NONE', #577, #1063, #763 ) ;
#326 = VECTOR ( 'NONE', #406, 1000.000000000000000 ) ;
#327 = CARTESIAN_POINT ( 'NONE',  ( 0.000000000000000000, 85.00000000000000000, 200.0000000000000000 ) ) ;
#328 = EDGE_LOOP ( 'NONE', ( #924 ) ) ;
#329 = VECTOR ( 'NONE', #239, 1000.000000000000000 ) ;
#330 = FACE_OUTER_BOUND ( 'NONE', #59, .T. ) ;
#331 = ORIENTED_EDGE ( 'NONE', *, *, #192, .T. ) ;
#332 = FILL_AREA_STYLE ('',( #139 ) ) ;
#333 = PRODUCT_RELATED_PRODUCT_CATEGORY ( 'part', '', ( #44 ) ) ;
#334 = DIRECTION ( 'NONE',  ( 0.000000000000000000, 0.000000000000000000, 1.000000000000000000 ) ) ;
#335 = DIRECTION ( 'NONE',  ( -0.7071067811865474617, 0.7071067811865476838, 0.000000000000000000 ) ) ;
#336 = ORIENTED_EDGE ( 'NONE', *, *, #25, .F. ) ;
#337 = FILL_AREA_STYLE_COLOUR ( '', #416 ) ;
#338 = LINE ( 'NONE', #573, #649 ) ;
#339 = PRODUCT_DEFINITION_FORMATION_WITH_SPECIFIED_SOURCE ( 'ANY', '', #657, .NOT_KNOWN. ) ;
#340 = DIRECTION ( 'NONE',  ( 0.000000000000000000, 1.000000000000000000, -0.000000000000000000 ) ) ;
#341 = ORIENTED_EDGE ( 'NONE', *, *, #1036, .F. ) ;
#342 = PRODUCT_DEFINITION_CONTEXT ( 'detailed design', #829, 'design' ) ;
#343 = VERTEX_POINT ( 'NONE', #917 ) ;
#344 = ADVANCED_BREP_SHAPE_REPRESENTATION ( '', ( #789, #873 ), #634 ) ;
#345 = CARTESIAN_POINT ( 'NONE',  ( 25.00000000000000000, -1.530519133741603786E-15, 50.00000000000000000 ) ) ;
#346 = ORIENTED_EDGE ( 'NONE', *, *, #566, .T. ) ;
#347 = SURFACE_STYLE_USAGE ( .BOTH. , #931 ) ;
#348 = CARTESIAN_POINT ( 'NONE',  ( -25.00000000000000000, 40.26117457956679146, 205.0000000000000284 ) ) ;
#349 = AXIS2_PLACEMENT_3D ( 'NONE', #821, #825, #51 ) ;
#350 =( NAMED_UNIT ( * ) SI_UNIT ( $, .STERADIAN. ) SOLID_ANGLE_UNIT ( ) );
#351 = LINE ( 'NONE', #678, #516 ) ;
#352 = EDGE_LOOP ( 'NONE', ( #696, #849, #976, #685 ) ) ;
#353 = EDGE_CURVE ( 'NONE', #647, #404, #282, .T. ) ;
#354 = CARTESIAN_POINT ( 'NONE',  ( -35.00000000000000000, 85.00000000000000000, 200.0000000000000000 ) ) ;
#355 =( NAMED_UNIT ( * ) PLANE_ANGLE_UNIT ( ) SI_UNIT ( $, .RADIAN. ) );
#356 =( NAMED_UNIT ( * ) SI_UNIT ( $, .STERADIAN. ) SOLID_ANGLE_UNIT ( ) );
#357 = ORIENTED_EDGE ( 'NONE', *, *, #1068, .T. ) ;
#358 = CARTESIAN_POINT ( 'NONE',  ( -12.20529885885778398, 21.82059221544834671, 249.1881356649985833 ) ) ;
#359 = SURFACE_STYLE_FILL_AREA ( #503 ) ;
#360 = ORIENTED_EDGE ( 'NONE', *, *, #848, .F. ) ;
#361 = CARTESIAN_POINT ( 'NONE',  ( 7.578045059084341783E-15, 2.105126436190248522E-15, 100.3311625922413128 ) ) ;
#362 = ITEM_DEFINED_TRANSFORMATION ( 'NONE', 'NONE', #704,  #873 ) ;
#363 = EDGE_CURVE ( 'NONE', #404, #477, #466, .T. ) ;
#364 = CARTESIAN_POINT ( 'NONE',  ( -3.414143794930651676, 24.78861896217631511, 281.1573880109411334 ) ) ;
#365 = CARTESIAN_POINT ( 'NONE',  ( -23.43057900390614989, 8.797305493598898352, 285.1626870638733067 ) ) ;
#366 = CIRCLE ( 'NONE', #319, 25.00000000000000000 ) ;
#367 = EDGE_LOOP ( 'NONE', ( #162 ) ) ;
#368 = DIRECTION ( 'NONE',  ( 0.000000000000000000, -0.000000000000000000, -1.000000000000000000 ) ) ;
#369 = PRODUCT_CONTEXT ( 'NONE', #850, 'mechanical' ) ;
#370 = CARTESIAN_POINT ( 'NONE',  ( 3.233953795537736653, 24.79023694542138401, 270.7919414472013955 ) ) ;
#371 = CARTESIAN_POINT ( 'NONE',  ( -22.11425093066224079, 11.66479183661879304, 286.5880982854972103 ) ) ;
#372 = ORIENTED_EDGE ( 'NONE', *, *, #353, .T. ) ;
#373 = LINE ( 'NONE', #569, #69 ) ;
#374 = DIRECTION ( 'NONE',  ( 0.000000000000000000, 0.000000000000000000, 1.000000000000000000 ) ) ;
#375 = STYLED_ITEM ( 'NONE', ( #1001 ), #344 ) ;
#376 = AXIS2_PLACEMENT_3D ( 'NONE', #193, #525, #856 ) ;
#377 =( NAMED_UNIT ( * ) PLANE_ANGLE_UNIT ( ) SI_UNIT ( $, .RADIAN. ) );
#378 = CARTESIAN_POINT ( 'NONE',  ( -16.71597782842485813, 18.60240969381708354, 287.9673735196769258 ) ) ;
#379 = CARTESIAN_POINT ( 'NONE',  ( -19.56225182720234201, 15.58213512026871328, 287.8132771371639933 ) ) ;
#380 = DIRECTION ( 'NONE',  ( -1.000000000000000000, 0.000000000000000000, 0.000000000000000000 ) ) ;
#381 = AXIS2_PLACEMENT_3D ( 'NONE', #903, #896, #723 ) ;
#382 = CARTESIAN_POINT ( 'NONE',  ( 0.6604263465930606536, 24.99399520405140507, 276.4456577920914810 ) ) ;
#383 = LINE ( 'NONE', #115, #803 ) ;
#384 = PRODUCT_RELATED_PRODUCT_CATEGORY ( 'part', '', ( #657 ) ) ;
#385 = CARTESIAN_POINT ( 'NONE',  ( -24.38808228983357651, 5.526657350041393357, 253.0826462868990916 ) ) ;
#386 = DIRECTION ( 'NONE',  ( -1.000000000000000000, 0.000000000000000000, 0.000000000000000000 ) ) ;
#387 = DIRECTION ( 'NONE',  ( 1.000000000000000000, 0.000000000000000000, 0.000000000000000000 ) ) ;
#388 = ADVANCED_FACE ( 'NONE', ( #80 ), #823, .F. ) ;
#389 = SURFACE_SIDE_STYLE ('',( #53 ) ) ;
#390 = CARTESIAN_POINT ( 'NONE',  ( -24.74873734152917137, -3.535533905932715104, 268.0000000000000568 ) ) ;
#391 = DIRECTION ( 'NONE',  ( 1.000000000000000000, 0.000000000000000000, 0.000000000000000000 ) ) ;
#392 = CARTESIAN_POINT ( 'NONE',  ( -19.25346685894895771, 15.95064056094260430, 248.1338222489790155 ) ) ;
#393 = EDGE_CURVE ( 'NONE', #2, #169, #30, .T. ) ;
#394 = PLANE ( 'NONE',  #381 ) ;
#395 = AXIS2_PLACEMENT_3D ( 'NONE', #141, #243, #834 ) ;
#396 = AXIS2_PLACEMENT_3D ( 'NONE', #880, #117, #387 ) ;
#397 = SURFACE_SIDE_STYLE ('',( #47 ) ) ;
#398 = CARTESIAN_POINT ( 'NONE',  ( 0.000000000000000000, 75.00000000000000000, 49.99900000000000233 ) ) ;
#399 = ORIENTED_EDGE ( 'NONE', *, *, #460, .T. ) ;
#400 =( NAMED_UNIT ( * ) PLANE_ANGLE_UNIT ( ) SI_UNIT ( $, .RADIAN. ) );
#401 = PRESENTATION_LAYER_ASSIGNMENT (  '', '', ( #375 ) ) ;
#402 = STYLED_ITEM ( 'NONE', ( #152 ), #480 ) ;
#403 = FACE_OUTER_BOUND ( 'NONE', #614, .T. ) ;
#404 = VERTEX_POINT ( 'NONE', #123 ) ;
#405 = EDGE_CURVE ( 'NONE', #735, #985, #709, .T. ) ;
#406 = DIRECTION ( 'NONE',  ( 0.000000000000000000, 0.000000000000000000, 1.000000000000000000 ) ) ;
#407 = DIRECTION ( 'NONE',  ( -1.000000000000000000, 6.122076534966414650E-17, 0.000000000000000000 ) ) ;
#408 = VERTEX_POINT ( 'NONE', #948 ) ;
#409 = VECTOR ( 'NONE', #774, 1000.000000000000000 ) ;
#410 = CARTESIAN_POINT ( 'NONE',  ( -70.71067811865474084, 42.42640687119287435, 268.0000000000000000 ) ) ;
#411 = EDGE_LOOP ( 'NONE', ( #1011 ) ) ;
#412 = SURFACE_STYLE_USAGE ( .BOTH. , #73 ) ;
#413 = MANIFOLD_SOLID_BREP ( 'Boss-Extrude1', #146 ) ;
#414 = CARTESIAN_POINT ( 'NONE',  ( 0.000000000000000000, 75.00000000000000000, 50.00000000000000000 ) ) ;
#415 = FACE_OUTER_BOUND ( 'NONE', #49, .T. ) ;
#416 = COLOUR_RGB ( '',0.7921568627450980005, 0.8196078431372548767, 0.9333333333333333481 ) ;
#417 = FILL_AREA_STYLE_COLOUR ( '', #1033 ) ;
#418 = ORIENTED_EDGE ( 'NONE', *, *, #624, .F. ) ;
#419 =( NAMED_UNIT ( * ) SI_UNIT ( $, .STERADIAN. ) SOLID_ANGLE_UNIT ( ) );
#420 = PRODUCT_DEFINITION_CONTEXT ( 'detailed design', #270, 'design' ) ;
#421 = CARTESIAN_POINT ( 'NONE',  ( 15.00000000000000000, 75.00000000000000000, 50.00000000000000000 ) ) ;
#422 = ADVANCED_FACE ( 'NONE', ( #713 ), #1039, .F. ) ;
#423 = DIRECTION ( 'NONE',  ( 0.000000000000000000, -0.000000000000000000, 1.000000000000000000 ) ) ;
#424 = EDGE_LOOP ( 'NONE', ( #753, #357, #813, #746, #261, #341, #526 ) ) ;
#425 = CIRCLE ( 'NONE', #238, 25.00000000000000000 ) ;
#426 =( LENGTH_UNIT ( ) NAMED_UNIT ( * ) SI_UNIT ( .MILLI., .METRE. ) );
#427 = CARTESIAN_POINT ( 'NONE',  ( 34.99999999999999289, 74.99999999999998579, 57.00000000000000000 ) ) ;
#428 =( LENGTH_UNIT ( ) NAMED_UNIT ( * ) SI_UNIT ( .MILLI., .METRE. ) );
#429 = CARTESIAN_POINT ( 'NONE',  ( 0.000000000000000000, 110.0000000000000000, 50.00000000000000000 ) ) ;
#430 = ORIENTED_EDGE ( 'NONE', *, *, #762, .T. ) ;
#431 = CARTESIAN_POINT ( 'NONE',  ( -8.764062249193543153, 23.44255721844781348, 250.8573552017256532 ) ) ;
#432 = LINE ( 'NONE', #87, #164 ) ;
#433 = PLANE ( 'NONE',  #443 ) ;
#434 = EDGE_LOOP ( 'NONE', ( #576 ) ) ;
#435 = CARTESIAN_POINT ( 'NONE',  ( 0.000000000000000000, 0.000000000000000000, 0.000000000000000000 ) ) ;
#436 = MECHANICAL_DESIGN_GEOMETRIC_PRESENTATION_REPRESENTATION (  '', ( #402 ), #309 ) ;
#437 = EDGE_CURVE ( 'NONE', #531, #861, #541, .T. ) ;
#438 = CARTESIAN_POINT ( 'NONE',  ( 2.347307865177864272, 24.89144124385243373, 273.4271311311193813 ) ) ;
#439 = CARTESIAN_POINT ( 'NONE',  ( -25.00000000000000000, 40.26117457956679146, 200.0000000000000000 ) ) ;
#440 = ORIENTED_EDGE ( 'NONE', *, *, #714, .T. ) ;
#441 = CARTESIAN_POINT ( 'NONE',  ( 25.00000000000000000, -1.530519133741603786E-15, 57.00000000000000000 ) ) ;
#442 = CARTESIAN_POINT ( 'NONE',  ( 3.797269721145271737E-15, -4.943050748519168047E-15, 35.24522276065998483 ) ) ;
#443 = AXIS2_PLACEMENT_3D ( 'NONE', #684, #991, #844 ) ;
#444 =( NAMED_UNIT ( * ) SI_UNIT ( $, .STERADIAN. ) SOLID_ANGLE_UNIT ( ) );
#445 = UNCERTAINTY_MEASURE_WITH_UNIT (LENGTH_MEASURE( 1.000000000000000082E-05 ), #26, 'distance_accuracy_value', 'NONE');
#446 = CARTESIAN_POINT ( 'NONE',  ( -2.420588231594984485, 24.89990792905556205, 280.2021154453269673 ) ) ;
#447 = CARTESIAN_POINT ( 'NONE',  ( -21.80078845600303694, 12.24063256178163961, 286.8259051625529992 ) ) ;
#448 = AXIS2_PLACEMENT_3D ( 'NONE', #995, #77, #592 ) ;
#449 = PRESENTATION_LAYER_ASSIGNMENT (  '', '', ( #166 ) ) ;
#450 = EDGE_LOOP ( 'NONE', ( #782, #719, #250, #1022 ) ) ;
#451 = DIRECTION ( 'NONE',  ( -0.000000000000000000, 0.000000000000000000, 1.000000000000000000 ) ) ;
#452 = DIRECTION ( 'NONE',  ( -0.4724506930936035465, 0.8813571027656009749, 0.000000000000000000 ) ) ;
#453 = APPLICATION_PROTOCOL_DEFINITION ( 'draft international standard', 'automotive_design', 1998, #270 ) ;
#454 = CARTESIAN_POINT ( 'NONE',  ( 3.457278183530457127, 24.75981013037414158, 269.4212902564571550 ) ) ;
#455 = DIRECTION ( 'NONE',  ( -0.000000000000000000, -0.000000000000000000, -1.000000000000000000 ) ) ;
#456 = EDGE_CURVE ( 'NONE', #201, #861, #467, .T. ) ;
#457 = AXIS2_PLACEMENT_3D ( 'NONE', #175, #423, #514 ) ;
#458 = CARTESIAN_POINT ( 'NONE',  ( -7.177297164486044601, 23.95485360961041366, 284.1141188757331975 ) ) ;
#459 = CARTESIAN_POINT ( 'NONE',  ( -35.00000000000000000, -4.286263797015735707E-15, 50.00000000000000000 ) ) ;
#460 = EDGE_CURVE ( 'NONE', #76, #76, #832, .T. ) ;
#461 = CARTESIAN_POINT ( 'NONE',  ( -35.00000000000000000, -4.286263797015735707E-15, 57.00000000000000000 ) ) ;
#462 = PRODUCT_DEFINITION_SHAPE ( 'NONE', 'NONE',  #1079 ) ;
#463 = AXIS2_PLACEMENT_3D ( 'NONE', #728, #564, #1061 ) ;
#464 = DIRECTION ( 'NONE',  ( -0.000000000000000000, -0.000000000000000000, -1.000000000000000000 ) ) ;
#465 = CARTESIAN_POINT ( 'NONE',  ( -25.00000000000000000, -3.061616997868382254E-15, 57.00000000000000000 ) ) ;
#466 = CIRCLE ( 'NONE', #967, 26.25000000000001066 ) ;
#467 = LINE ( 'NONE', #441, #409 ) ;
#468 = VERTEX_POINT ( 'NONE', #461 ) ;
#469 = CONTEXT_DEPENDENT_SHAPE_REPRESENTATION ( #1021, #1031 ) ;
#470 = PRODUCT_DEFINITION_CONTEXT ( 'detailed design', #982, 'design' ) ;
#471 = FACE_OUTER_BOUND ( 'NONE', #669, .T. ) ;
#472 = FACE_OUTER_BOUND ( 'NONE', #246, .T. ) ;
#473 = SURFACE_STYLE_USAGE ( .BOTH. , #397 ) ;
#474 = ADVANCED_FACE ( 'NONE', ( #19 ), #942, .T. ) ;
#475 = CARTESIAN_POINT ( 'NONE',  ( -24.89995153233004643, 2.420945668471489842, 255.7972943468350593 ) ) ;
#476 = LINE ( 'NONE', #562, #817 ) ;
#477 = VERTEX_POINT ( 'NONE', #798 ) ;
#478 = CARTESIAN_POINT ( 'NONE',  ( -21.78122743689061025, 12.33894545953718058, 249.1001469069136078 ) ) ;
#479 =( GEOMETRIC_REPRESENTATION_CONTEXT ( 3 ) GLOBAL_UNCERTAINTY_ASSIGNED_CONTEXT ( ( #15 ) ) GLOBAL_UNIT_ASSIGNED_CONTEXT ( ( #510, #188, #356 ) ) REPRESENTATION_CONTEXT ( 'NONE', 'WORKASPACE' ) );
#480 = ADVANCED_BREP_SHAPE_REPRESENTATION ( '', ( #413, #873 ), #491 ) ;
#481 = DIRECTION ( 'NONE',  ( 0.000000000000000000, 0.000000000000000000, 1.000000000000000000 ) ) ;
#482 = ORIENTED_EDGE ( 'NONE', *, *, #405, .T. ) ;
#483 = VECTOR ( 'NONE', #926, 1000.000000000000000 ) ;
#484 =( REPRESENTATION_RELATIONSHIP ('NONE','NONE', #313, #968 ) REPRESENTATION_RELATIONSHIP_WITH_TRANSFORMATION ( #230 )SHAPE_REPRESENTATION_RELATIONSHIP( ) );
#485 = CARTESIAN_POINT ( 'NONE',  ( -24.81241347976818545, -3.064878536172821466, 264.5530612935339718 ) ) ;
#486 = ADVANCED_FACE ( 'NONE', ( #867 ), #633, .T. ) ;
#487 = CARTESIAN_POINT ( 'NONE',  ( 35.00000000000000000, 6.938893903907228378E-15, 50.00000000000000000 ) ) ;
#488 = ORIENTED_EDGE ( 'NONE', *, *, #756, .T. ) ;
#489 = DIRECTION ( 'NONE',  ( -0.000000000000000000, 0.000000000000000000, 1.000000000000000000 ) ) ;
#490 = CARTESIAN_POINT ( 'NONE',  ( -12.80487804878049118, 62.08499185782689267, 200.0000000000000000 ) ) ;
#491 =( GEOMETRIC_REPRESENTATION_CONTEXT ( 3 ) GLOBAL_UNCERTAINTY_ASSIGNED_CONTEXT ( ( #291 ) ) GLOBAL_UNIT_ASSIGNED_CONTEXT ( ( #675, #905, #965 ) ) REPRESENTATION_CONTEXT ( 'NONE', 'WORKASPACE' ) );
#492 = ITEM_DEFINED_TRANSFORMATION ( 'NONE', 'NONE', #841,  #873 ) ;
#493 = FACE_OUTER_BOUND ( 'NONE', #875, .T. ) ;
#494 = ORIENTED_EDGE ( 'NONE', *, *, #631, .T. ) ;
#495 = PRODUCT_DEFINITION_SHAPE ( 'NONE', 'NONE',  #1083 ) ;
#496 = CARTESIAN_POINT ( 'NONE',  ( -24.74873734152917137, -3.535533905932714660, 268.0000000000000000 ) ) ;
#497 = FACE_OUTER_BOUND ( 'NONE', #515, .T. ) ;
#498 = ORIENTED_EDGE ( 'NONE', *, *, #57, .T. ) ;
#499 = FILL_AREA_STYLE_COLOUR ( '', #615 ) ;
#500 = MECHANICAL_DESIGN_GEOMETRIC_PRESENTATION_REPRESENTATION (  '', ( #166 ), #628 ) ;
#501 = UNCERTAINTY_MEASURE_WITH_UNIT (LENGTH_MEASURE( 1.000000000000000082E-05 ), #426, 'distance_accuracy_value', 'NONE');
#502 = LINE ( 'NONE', #68, #268 ) ;
#503 = FILL_AREA_STYLE ('',( #1076 ) ) ;
#504 = LINE ( 'NONE', #909, #579 ) ;
#505 = EDGE_LOOP ( 'NONE', ( #274, #235, #52, #78 ) ) ;
#506 = PRODUCT_DEFINITION ( 'UNKNOWN', '', #41, #420 ) ;
#507 = LINE ( 'NONE', #765, #607 ) ;
#508 = CIRCLE ( 'NONE', #977, 35.00000000000000000 ) ;
#509 = AXIS2_PLACEMENT_3D ( 'NONE', #750, #154, #81 ) ;
#510 =( LENGTH_UNIT ( ) NAMED_UNIT ( * ) SI_UNIT ( .MILLI., .METRE. ) );
#511 = ORIENTED_EDGE ( 'NONE', *, *, #456, .T. ) ;
#512 = DIRECTION ( 'NONE',  ( 1.000000000000000000, 0.000000000000000000, 0.000000000000000000 ) ) ;
#513 = DIRECTION ( 'NONE',  ( -0.000000000000000000, -0.000000000000000000, -1.000000000000000000 ) ) ;
#514 = DIRECTION ( 'NONE',  ( 1.000000000000000000, 0.000000000000000000, 0.000000000000000000 ) ) ;
#515 = EDGE_LOOP ( 'NONE', ( #831, #594, #108, #84 ) ) ;
#516 = VECTOR ( 'NONE', #837, 1000.000000000000000 ) ;
#517 =( NAMED_UNIT ( * ) SI_UNIT ( $, .STERADIAN. ) SOLID_ANGLE_UNIT ( ) );
#518 = CARTESIAN_POINT ( 'NONE',  ( -3.347222686602635999, 24.79780283577591149, 254.9042825239914407 ) ) ;
#519 = CARTESIAN_POINT ( 'NONE',  ( -35.00000000000000000, 75.00000000000000000, 57.00000000000000000 ) ) ;
#520 = LINE ( 'NONE', #688, #65 ) ;
#521 = PRODUCT_DEFINITION ( 'UNKNOWN', '', #197, #590 ) ;
#522 = VERTEX_POINT ( 'NONE', #552 ) ;
#523 = DIRECTION ( 'NONE',  ( 1.000000000000000000, 0.000000000000000000, 0.000000000000000000 ) ) ;
#524 = CARTESIAN_POINT ( 'NONE',  ( -5.522174686640260788, 24.38906672821106980, 282.9138367514484003 ) ) ;
#525 = DIRECTION ( 'NONE',  ( -0.000000000000000000, 0.000000000000000000, 1.000000000000000000 ) ) ;
#526 = ORIENTED_EDGE ( 'NONE', *, *, #543, .F. ) ;
#527 = DIRECTION ( 'NONE',  ( 0.000000000000000000, 0.000000000000000000, 1.000000000000000000 ) ) ;
#528 = ITEM_DEFINED_TRANSFORMATION ( 'NONE', 'NONE', #906,  #873 ) ;
#529 = CARTESIAN_POINT ( 'NONE',  ( 0.6975848193359696081, 24.99298958065746490, 259.6091456661486063 ) ) ;
#530 = CARTESIAN_POINT ( 'NONE',  ( 34.99999999999999289, 74.99999999999998579, 50.00000000000000000 ) ) ;
#531 = VERTEX_POINT ( 'NONE', #705 ) ;
#532 = DIRECTION ( 'NONE',  ( 1.000000000000000000, 0.000000000000000000, 0.000000000000000000 ) ) ;
#533 = CARTESIAN_POINT ( 'NONE',  ( 0.000000000000000000, 0.000000000000000000, 0.000000000000000000 ) ) ;
#534 = SHAPE_DEFINITION_REPRESENTATION ( #72, #968 ) ;
#535 = EDGE_CURVE ( 'NONE', #861, #208, #557, .T. ) ;
#536 = UNCERTAINTY_MEASURE_WITH_UNIT (LENGTH_MEASURE( 1.000000000000000082E-05 ), #272, 'distance_accuracy_value', 'NONE');
#537 = CARTESIAN_POINT ( 'NONE',  ( -5.460177188448031238, 24.40286963531888986, 253.1345525771826033 ) ) ;
#538 = DIRECTION ( 'NONE',  ( 0.000000000000000000, -0.000000000000000000, 1.000000000000000000 ) ) ;
#539 = VECTOR ( 'NONE', #252, 1000.000000000000000 ) ;
#540 = AXIS2_PLACEMENT_3D ( 'NONE', #398, #975, #391 ) ;
#541 = LINE ( 'NONE', #305, #279 ) ;
#542 = DIRECTION ( 'NONE',  ( 0.7491449188795652470, 0.6624061371371267049, 0.000000000000000000 ) ) ;
#543 = EDGE_CURVE ( 'NONE', #565, #182, #366, .T. ) ;
#544 = CARTESIAN_POINT ( 'NONE',  ( 3.411738424725159202, 24.76617889707062758, 269.7665305827752604 ) ) ;
#545 = CARTESIAN_POINT ( 'NONE',  ( 35.00000000000000000, -6.122062975178464185E-16, 57.00000000000000000 ) ) ;
#546 = EDGE_LOOP ( 'NONE', ( #769, #312, #910, #826 ) ) ;
#547 = COLOUR_RGB ( '',0.7921568627450980005, 0.8196078431372548767, 0.9333333333333333481 ) ;
#548 = AXIS2_PLACEMENT_3D ( 'NONE', #348, #174, #179 ) ;
#549 = CARTESIAN_POINT ( 'NONE',  ( 0.000000000000000000, 0.000000000000000000, -179.2152391221240464 ) ) ;
#550 = CARTESIAN_POINT ( 'NONE',  ( -25.00000000000000000, -3.061616997868382254E-15, 50.00000000000000000 ) ) ;
#551 = DIRECTION ( 'NONE',  ( 0.000000000000000000, 0.000000000000000000, 1.000000000000000000 ) ) ;
#552 = CARTESIAN_POINT ( 'NONE',  ( -25.00000000000000000, -3.061616997868383831E-15, 200.0000000000000000 ) ) ;
#553 = ORIENTED_EDGE ( 'NONE', *, *, #797, .F. ) ;
#554 = CARTESIAN_POINT ( 'NONE',  ( -21.10178965715570243, 13.47524182728437836, 248.6916024325047658 ) ) ;
#555 = DIRECTION ( 'NONE',  ( -0.7071067811865475727, -0.7071067811865475727, 0.000000000000000000 ) ) ;
#556 = CLOSED_SHELL ( 'NONE', ( #90, #827, #113, #486, #978, #702, #951, #287, #602 ) ) ;
#557 = CIRCLE ( 'NONE', #396, 25.00000000000000000 ) ;
#558 = EDGE_CURVE ( 'NONE', #144, #531, #373, .T. ) ;
#559 = DIRECTION ( 'NONE',  ( -0.000000000000000000, -0.000000000000000000, -1.000000000000000000 ) ) ;
#560 = SHAPE_REPRESENTATION_RELATIONSHIP ( 'NONE' , 'NONE' ,  #796, #480 ) ;
#561 = FACE_OUTER_BOUND ( 'NONE', #98, .T. ) ;
#562 = CARTESIAN_POINT ( 'NONE',  ( -25.00000000000000000, -3.061616997868383831E-15, 205.0000000000000284 ) ) ;
#563 = DIRECTION ( 'NONE',  ( 1.000000000000000000, 0.000000000000000000, 0.000000000000000000 ) ) ;
#564 = DIRECTION ( 'NONE',  ( -0.000000000000000000, 0.000000000000000000, 1.000000000000000000 ) ) ;
#565 = VERTEX_POINT ( 'NONE', #1066 ) ;
#566 = EDGE_CURVE ( 'NONE', #144, #201, #1051, .T. ) ;
#567 = CARTESIAN_POINT ( 'NONE',  ( -24.75095122115707014, -3.520135461308659952, 267.2961521415841162 ) ) ;
#568 = CONTEXT_DEPENDENT_SHAPE_REPRESENTATION ( #221, #945 ) ;
#569 = CARTESIAN_POINT ( 'NONE',  ( 35.00000000000000000, -6.122062975178464185E-16, 57.00000000000000000 ) ) ;
#570 = VERTEX_POINT ( 'NONE', #1058 ) ;
#571 = CARTESIAN_POINT ( 'NONE',  ( 0.000000000000000000, 0.000000000000000000, 57.00000000000000000 ) ) ;
#572 = ADVANCED_FACE ( 'NONE', ( #231 ), #655, .T. ) ;
#573 = CARTESIAN_POINT ( 'NONE',  ( -35.00000000000000000, 0.000000000000000000, 200.0000000000000000 ) ) ;
#574 = ITEM_DEFINED_TRANSFORMATION ( 'NONE', 'NONE', #790,  #873 ) ;
#575 = DIRECTION ( 'NONE',  ( 1.982541115402065110E-16, -1.000000000000000000, 0.000000000000000000 ) ) ;
#576 = ORIENTED_EDGE ( 'NONE', *, *, #460, .F. ) ;
#577 = CARTESIAN_POINT ( 'NONE',  ( 0.000000000000000000, 0.000000000000000000, 0.000000000000000000 ) ) ;
#578 = LINE ( 'NONE', #215, #121 ) ;
#579 = VECTOR ( 'NONE', #83, 1000.000000000000000 ) ;
#580 = ADVANCED_FACE ( 'NONE', ( #58, #809 ), #642, .F. ) ;
#581 = FACE_OUTER_BOUND ( 'NONE', #546, .T. ) ;
#582 = ORIENTED_EDGE ( 'NONE', *, *, #969, .T. ) ;
#583 = CARTESIAN_POINT ( 'NONE',  ( 0.000000000000000000, 75.00000000000000000, 50.00000000000000000 ) ) ;
#584 = PRESENTATION_STYLE_ASSIGNMENT (( #1009 ) ) ;
#585 = DIRECTION ( 'NONE',  ( 1.000000000000000000, 0.000000000000000000, 0.000000000000000000 ) ) ;
#586 = EDGE_LOOP ( 'NONE', ( #1016, #189, #689, #498 ) ) ;
#587 = ADVANCED_FACE ( 'NONE', ( #472, #403 ), #885, .T. ) ;
#588 =( NAMED_UNIT ( * ) PLANE_ANGLE_UNIT ( ) SI_UNIT ( $, .RADIAN. ) );
#589 = VECTOR ( 'NONE', #213, 1000.000000000000000 ) ;
#590 = PRODUCT_DEFINITION_CONTEXT ( 'detailed design', #692, 'design' ) ;
#591 = CARTESIAN_POINT ( 'NONE',  ( 25.00000000000000000, 0.000000000000000000, 0.000000000000000000 ) ) ;
#592 = DIRECTION ( 'NONE',  ( 1.000000000000000000, 0.000000000000000000, 0.000000000000000000 ) ) ;
#593 = PLANE ( 'NONE',  #791 ) ;
#594 = ORIENTED_EDGE ( 'NONE', *, *, #756, .F. ) ;
#595 =( NAMED_UNIT ( * ) SI_UNIT ( $, .STERADIAN. ) SOLID_ANGLE_UNIT ( ) );
#596 = VERTEX_POINT ( 'NONE', #591 ) ;
#597 =( NAMED_UNIT ( * ) PLANE_ANGLE_UNIT ( ) SI_UNIT ( $, .RADIAN. ) );
#598 = AXIS2_PLACEMENT_3D ( 'NONE', #435, #770, #523 ) ;
#599 = AXIS2_PLACEMENT_3D ( 'NONE', #1065, #334, #828 ) ;
#600 = DIRECTION ( 'NONE',  ( -1.982541115402065110E-16, 1.000000000000000000, 0.000000000000000000 ) ) ;
#601 = ORIENTED_EDGE ( 'NONE', *, *, #667, .T. ) ;
#602 = ADVANCED_FACE ( 'NONE', ( #493 ), #660, .T. ) ;
#603 = CARTESIAN_POINT ( 'NONE',  ( -10.87951427375021574, 22.51088845263979721, 286.2336626358976446 ) ) ;
#604 = DIRECTION ( 'NONE',  ( 1.000000000000000000, 0.000000000000000000, 0.000000000000000000 ) ) ;
#605 = ORIENTED_EDGE ( 'NONE', *, *, #848, .T. ) ;
#606 = SURFACE_STYLE_FILL_AREA ( #190 ) ;
#607 = VECTOR ( 'NONE', #185, 1000.000000000000000 ) ;
#608 = CARTESIAN_POINT ( 'NONE',  ( -13.90605526566913142, 20.78653381613338524, 248.5887797137514497 ) ) ;
#609 = APPLICATION_CONTEXT ( 'automotive_design' ) ;
#610 = FACE_OUTER_BOUND ( 'NONE', #703, .T. ) ;
#611 = ORIENTED_EDGE ( 'NONE', *, *, #667, .F. ) ;
#612 = CARTESIAN_POINT ( 'NONE',  ( -15.01068651351836181, 20.00344099233875639, 248.3022293926424311 ) ) ;
#613 = CARTESIAN_POINT ( 'NONE',  ( -24.90253049479193947, -2.210648728171559885, 273.7047321010617225 ) ) ;
#614 = EDGE_LOOP ( 'NONE', ( #822 ) ) ;
#615 = COLOUR_RGB ( '',0.7921568627450980005, 0.8196078431372548767, 0.9333333333333333481 ) ;
#616 = DIRECTION ( 'NONE',  ( 0.000000000000000000, -0.000000000000000000, 1.000000000000000000 ) ) ;
#617 = CARTESIAN_POINT ( 'NONE',  ( 0.000000000000000000, 0.000000000000000000, 0.000000000000000000 ) ) ;
#618 = PRODUCT_CONTEXT ( 'NONE', #930, 'mechanical' ) ;
#619 = CARTESIAN_POINT ( 'NONE',  ( -6.547368721956870807, 24.13390859737307181, 252.3235484482579523 ) ) ;
#620 = CARTESIAN_POINT ( 'NONE',  ( -35.00000000000000000, -4.286263797015737285E-15, 200.0000000000000000 ) ) ;
#621 = ORIENTED_EDGE ( 'NONE', *, *, #1057, .F. ) ;
#622 = PRODUCT_DEFINITION_SHAPE ( 'NONE', 'NONE',  #1084 ) ;
#623 = VECTOR ( 'NONE', #133, 1000.000000000000000 ) ;
#624 = EDGE_CURVE ( 'NONE', #176, #531, #138, .T. ) ;
#625 = CARTESIAN_POINT ( 'NONE',  ( 3.536962776137510645, 24.74853321879459500, 267.3303616049028051 ) ) ;
#626 = CARTESIAN_POINT ( 'NONE',  ( -24.99330535329648839, -0.6853581215486568290, 276.4087570836892951 ) ) ;
#627 = VECTOR ( 'NONE', #455, 1000.000000000000000 ) ;
#628 =( GEOMETRIC_REPRESENTATION_CONTEXT ( 3 ) GLOBAL_UNCERTAINTY_ASSIGNED_CONTEXT ( ( #445 ) ) GLOBAL_UNIT_ASSIGNED_CONTEXT ( ( #26, #804, #960 ) ) REPRESENTATION_CONTEXT ( 'NONE', 'WORKASPACE' ) );
#629 = DIRECTION ( 'NONE',  ( -0.000000000000000000, -0.000000000000000000, -1.000000000000000000 ) ) ;
#630 = DIRECTION ( 'NONE',  ( 0.000000000000000000, 0.000000000000000000, 1.000000000000000000 ) ) ;
#631 = EDGE_CURVE ( 'NONE', #182, #522, #476, .T. ) ;
#632 = CARTESIAN_POINT ( 'NONE',  ( -56.56854249492377562, 56.56854249492383957, 268.0000000000000000 ) ) ;
#633 = PLANE ( 'NONE',  #778 ) ;
#634 =( GEOMETRIC_REPRESENTATION_CONTEXT ( 3 ) GLOBAL_UNCERTAINTY_ASSIGNED_CONTEXT ( ( #501 ) ) GLOBAL_UNIT_ASSIGNED_CONTEXT ( ( #426, #920, #595 ) ) REPRESENTATION_CONTEXT ( 'NONE', 'WORKASPACE' ) );
#635 = AXIS2_PLACEMENT_3D ( 'NONE', #983, #759, #258 ) ;
#636 = APPLICATION_PROTOCOL_DEFINITION ( 'draft international standard', 'automotive_design', 1998, #930 ) ;
#637 = FACE_OUTER_BOUND ( 'NONE', #676, .T. ) ;
#638 = LINE ( 'NONE', #1032, #1053 ) ;
#639 = CARTESIAN_POINT ( 'NONE',  ( -24.96339533095621732, -1.401818318803340624, 260.7306929725185682 ) ) ;
#640 = VECTOR ( 'NONE', #1043, 1000.000000000000000 ) ;
#641 = CONTEXT_DEPENDENT_SHAPE_REPRESENTATION ( #122, #754 ) ;
#642 = CYLINDRICAL_SURFACE ( 'NONE', #540, 15.00000000000000000 ) ;
#643 = FILL_AREA_STYLE ('',( #1052 ) ) ;
#644 = CARTESIAN_POINT ( 'NONE',  ( 0.000000000000000000, 85.00000000000000000, 199.9990000000000236 ) ) ;
#645 = ITEM_DEFINED_TRANSFORMATION ( 'NONE', 'NONE', #249,  #873 ) ;
#646 = DIRECTION ( 'NONE',  ( -0.000000000000000000, 0.000000000000000000, 1.000000000000000000 ) ) ;
#647 = VERTEX_POINT ( 'NONE', #980 ) ;
#648 =( LENGTH_UNIT ( ) NAMED_UNIT ( * ) SI_UNIT ( .MILLI., .METRE. ) );
#649 = VECTOR ( 'NONE', #1074, 1000.000000000000000 ) ;
#650 = CARTESIAN_POINT ( 'NONE',  ( -20.10516413822541182, 14.86267486995292231, 248.3435335342579435 ) ) ;
#651 = DIRECTION ( 'NONE',  ( -0.000000000000000000, -0.000000000000000000, -1.000000000000000000 ) ) ;
#652 = ORIENTED_EDGE ( 'NONE', *, *, #566, .F. ) ;
#653 = EDGE_CURVE ( 'NONE', #647, #897, #736, .T. ) ;
#654 = PRESENTATION_LAYER_ASSIGNMENT (  '', '', ( #29 ) ) ;
#655 = PLANE ( 'NONE',  #349 ) ;
#656 = ORIENTED_EDGE ( 'NONE', *, *, #204, .F. ) ;
#657 = PRODUCT ( 'Part4^Assem1', 'Part4^Assem1', '', ( #301 ) ) ;
#658 = VERTEX_POINT ( 'NONE', #410 ) ;
#659 = CONTEXT_DEPENDENT_SHAPE_REPRESENTATION ( #157, #879 ) ;
#660 = CYLINDRICAL_SURFACE ( 'NONE', #952, 25.00000000000000000 ) ;
#661 = ORIENTED_EDGE ( 'NONE', *, *, #820, .T. ) ;
#662 = FILL_AREA_STYLE ('',( #337 ) ) ;
#663 = DIRECTION ( 'NONE',  ( -6.122076534966415883E-17, -1.000000000000000000, 0.000000000000000000 ) ) ;
#664 = MECHANICAL_DESIGN_GEOMETRIC_PRESENTATION_REPRESENTATION (  '', ( #375 ), #766 ) ;
#665 = PRODUCT_DEFINITION_CONTEXT ( 'detailed design', #901, 'design' ) ;
#666 = CARTESIAN_POINT ( 'NONE',  ( -35.00000000000000000, -4.286263797015737285E-15, 205.0000000000000284 ) ) ;
#667 = EDGE_CURVE ( 'NONE', #1072, #647, #85, .T. ) ;
#668 = PRESENTATION_STYLE_ASSIGNMENT (( #168 ) ) ;
#669 = EDGE_LOOP ( 'NONE', ( #758, #853, #482, #46 ) ) ;
#670 = CARTESIAN_POINT ( 'NONE',  ( 0.000000000000000000, 85.00000000000000000, 205.0000000000000284 ) ) ;
#671 = CARTESIAN_POINT ( 'NONE',  ( -25.00000000000000000, -3.061616997868382254E-15, 57.00000000000000000 ) ) ;
#672 = ORIENTED_EDGE ( 'NONE', *, *, #820, .F. ) ;
#673 = STYLED_ITEM ( 'NONE', ( #988 ), #54 ) ;
#674 = AXIS2_PLACEMENT_3D ( 'NONE', #42, #335, #812 ) ;
#675 =( LENGTH_UNIT ( ) NAMED_UNIT ( * ) SI_UNIT ( .MILLI., .METRE. ) );
#676 = EDGE_LOOP ( 'NONE', ( #891, #605, #601, #372 ) ) ;
#677 = ADVANCED_BREP_SHAPE_REPRESENTATION ( '', ( #54, #873 ), #1007 ) ;
#678 = CARTESIAN_POINT ( 'NONE',  ( 34.99999999999999289, 74.99999999999998579, 57.00000000000000000 ) ) ;
#679 = ORIENTED_EDGE ( 'NONE', *, *, #31, .T. ) ;
#680 = DIRECTION ( 'NONE',  ( -0.000000000000000000, 0.000000000000000000, 1.000000000000000000 ) ) ;
#681 = SURFACE_SIDE_STYLE ('',( #359 ) ) ;
#682 = MECHANICAL_DESIGN_GEOMETRIC_PRESENTATION_REPRESENTATION (  '', ( #267 ), #136 ) ;
#683 = PRESENTATION_LAYER_ASSIGNMENT (  '', '', ( #402 ) ) ;
#684 = CARTESIAN_POINT ( 'NONE',  ( 0.000000000000000000, 0.000000000000000000, 205.0000000000000284 ) ) ;
#685 = ORIENTED_EDGE ( 'NONE', *, *, #140, .T. ) ;
#686 = CARTESIAN_POINT ( 'NONE',  ( -2.359416948272785142, 24.90536606968832700, 255.8606185632513643 ) ) ;
#687 = SURFACE_STYLE_USAGE ( .BOTH. , #681 ) ;
#688 = CARTESIAN_POINT ( 'NONE',  ( -35.00000000000000000, 0.000000000000000000, 50.00000000000000000 ) ) ;
#689 = ORIENTED_EDGE ( 'NONE', *, *, #1036, .T. ) ;
#690 = DIRECTION ( 'NONE',  ( 0.000000000000000000, 0.000000000000000000, 1.000000000000000000 ) ) ;
#691 = PRESENTATION_LAYER_ASSIGNMENT (  '', '', ( #673 ) ) ;
#692 = APPLICATION_CONTEXT ( 'automotive_design' ) ;
#693 = AXIS2_PLACEMENT_3D ( 'NONE', #103, #629, #380 ) ;
#694 = CARTESIAN_POINT ( 'NONE',  ( -0.9835822161339674574, 24.98486727750119840, 257.4004584607918673 ) ) ;
#695 = CARTESIAN_POINT ( 'NONE',  ( -24.74873734152917493, -3.535533905932715992, 269.4042470688559661 ) ) ;
#696 = ORIENTED_EDGE ( 'NONE', *, *, #535, .F. ) ;
#697 = DIRECTION ( 'NONE',  ( 1.000000000000000000, 0.000000000000000000, 0.000000000000000000 ) ) ;
#698 = DIRECTION ( 'NONE',  ( 0.000000000000000000, 0.000000000000000000, 1.000000000000000000 ) ) ;
#699 = UNCERTAINTY_MEASURE_WITH_UNIT (LENGTH_MEASURE( 1.000000000000000082E-05 ), #428, 'distance_accuracy_value', 'NONE');
#700 = CARTESIAN_POINT ( 'NONE',  ( 3.518962696788318745, 24.75111859430004557, 268.7234323382826915 ) ) ;
#701 = CARTESIAN_POINT ( 'NONE',  ( -21.63777592661520188, 12.52661126099330247, 286.9369148816079473 ) ) ;
#702 = ADVANCED_FACE ( 'NONE', ( #984 ), #394, .F. ) ;
#703 = EDGE_LOOP ( 'NONE', ( #124, #857, #1035, #18, #913, #331, #838 ) ) ;
#704 = AXIS2_PLACEMENT_3D ( 'NONE', #533, #698, #1023 ) ;
#705 = CARTESIAN_POINT ( 'NONE',  ( 35.00000000000000000, -6.122062975178464185E-16, 50.00000000000000000 ) ) ;
#706 = DIRECTION ( 'NONE',  ( 1.000000000000000000, 0.000000000000000000, 0.000000000000000000 ) ) ;
#707 = CARTESIAN_POINT ( 'NONE',  ( -1.028267379128630310, 24.98317097092791172, 278.6521912791056934 ) ) ;
#708 = CARTESIAN_POINT ( 'NONE',  ( -18.66480396384779539, 16.64661300229943919, 287.9612140922297385 ) ) ;
#709 = LINE ( 'NONE', #1034, #589 ) ;
#710 = FACE_OUTER_BOUND ( 'NONE', #1059, .T. ) ;
#711 = CARTESIAN_POINT ( 'NONE',  ( -24.84961445144991288, -2.740253638937773850, 272.4174404090522899 ) ) ;
#712 = CIRCLE ( 'NONE', #241, 15.00000000000000000 ) ;
#713 = FACE_OUTER_BOUND ( 'NONE', #904, .T. ) ;
#714 = EDGE_CURVE ( 'NONE', #929, #1062, #755, .T. ) ;
#715 = CARTESIAN_POINT ( 'NONE',  ( 0.000000000000000000, 0.000000000000000000, 205.0000000000000284 ) ) ;
#716 = PRODUCT ( 'Part2^Assem1', 'Part2^Assem1', '', ( #1041 ) ) ;
#717 = LINE ( 'NONE', #954, #640 ) ;
#718 = DIRECTION ( 'NONE',  ( -0.000000000000000000, 0.000000000000000000, -1.000000000000000000 ) ) ;
#719 = ORIENTED_EDGE ( 'NONE', *, *, #762, .F. ) ;
#720 =( GEOMETRIC_REPRESENTATION_CONTEXT ( 3 ) GLOBAL_UNCERTAINTY_ASSIGNED_CONTEXT ( ( #993 ) ) GLOBAL_UNIT_ASSIGNED_CONTEXT ( ( #839, #283, #937 ) ) REPRESENTATION_CONTEXT ( 'NONE', 'WORKASPACE' ) );
#721 = AXIS2_PLACEMENT_3D ( 'NONE', #830, #70, #1071 ) ;
#722 = DIRECTION ( 'NONE',  ( 0.000000000000000000, 0.000000000000000000, 1.000000000000000000 ) ) ;
#723 = DIRECTION ( 'NONE',  ( 1.000000000000000000, 0.000000000000000000, 0.000000000000000000 ) ) ;
#724 = VECTOR ( 'NONE', #768, 1000.000000000000000 ) ;
#725 = CARTESIAN_POINT ( 'NONE',  ( -23.02765303257935869, 9.737704073341026501, 250.3422861502694445 ) ) ;
#726 = EDGE_CURVE ( 'NONE', #522, #156, #317, .T. ) ;
#727 = AXIS2_PLACEMENT_3D ( 'NONE', #36, #368, #532 ) ;
#728 = CARTESIAN_POINT ( 'NONE',  ( 0.000000000000000000, 75.00000000000000000, 57.00000000000000000 ) ) ;
#729 = PRESENTATION_STYLE_ASSIGNMENT (( #473 ) ) ;
#730 = CARTESIAN_POINT ( 'NONE',  ( -25.00213505721996299, -0.2670229964070174322, 258.9928142582245982 ) ) ;
#731 = EDGE_CURVE ( 'NONE', #201, #1005, #425, .T. ) ;
#732 = CONTEXT_DEPENDENT_SHAPE_REPRESENTATION ( #262, #495 ) ;
#733 = CARTESIAN_POINT ( 'NONE',  ( 0.000000000000000000, 75.00000000000000000, 57.00000000000000000 ) ) ;
#734 = ORIENTED_EDGE ( 'NONE', *, *, #990, .F. ) ;
#735 = VERTEX_POINT ( 'NONE', #666 ) ;
#736 = LINE ( 'NONE', #327, #329 ) ;
#737 = EDGE_LOOP ( 'NONE', ( #679, #281, #553, #336 ) ) ;
#738 = DIRECTION ( 'NONE',  ( 1.000000000000000000, 0.000000000000000000, 0.000000000000000000 ) ) ;
#739 = CLOSED_SHELL ( 'NONE', ( #388, #316, #858, #921, #572, #74, #927, #888, #474, #580 ) ) ;
#740 = CARTESIAN_POINT ( 'NONE',  ( 0.000000000000000000, 85.00000000000000000, 200.0000000000000000 ) ) ;
#741 = ORIENTED_EDGE ( 'NONE', *, *, #731, .F. ) ;
#742 = PRESENTATION_LAYER_ASSIGNMENT (  '', '', ( #1017 ) ) ;
#743 = ADVANCED_FACE ( 'NONE', ( #330 ), #890, .F. ) ;
#744 = PLANE ( 'NONE',  #635 ) ;
#745 = FACE_OUTER_BOUND ( 'NONE', #737, .T. ) ;
#746 = ORIENTED_EDGE ( 'NONE', *, *, #816, .F. ) ;
#747 = SHAPE_REPRESENTATION ( 'Part2^Assem1', ( #873 ), #1007 ) ;
#748 = SHAPE_REPRESENTATION_RELATIONSHIP ( 'NONE' , 'NONE' ,  #747, #677 ) ;
#749 = UNCERTAINTY_MEASURE_WITH_UNIT (LENGTH_MEASURE( 1.000000000000000082E-05 ), #118, 'distance_accuracy_value', 'NONE');
#750 = CARTESIAN_POINT ( 'NONE',  ( 0.000000000000000000, 0.000000000000000000, 205.0000000000000284 ) ) ;
#751 = CYLINDRICAL_SURFACE ( 'NONE', #966, 25.00000000000000000 ) ;
#752 = SURFACE_STYLE_FILL_AREA ( #265 ) ;
#753 = ORIENTED_EDGE ( 'NONE', *, *, #248, .F. ) ;
#754 = PRODUCT_DEFINITION_SHAPE ( 'NONE', 'NONE',  #1085 ) ;
#755 = CIRCLE ( 'NONE', #463, 35.00000000000000000 ) ;
#756 = EDGE_CURVE ( 'NONE', #1062, #408, #508, .T. ) ;
#757 = SURFACE_SIDE_STYLE ('',( #752 ) ) ;
#758 = ORIENTED_EDGE ( 'NONE', *, *, #1049, .F. ) ;
#759 = DIRECTION ( 'NONE',  ( 0.000000000000000000, 1.000000000000000000, 0.000000000000000000 ) ) ;
#760 = PLANE ( 'NONE',  #100 ) ;
#761 = ORIENTED_EDGE ( 'NONE', *, *, #67, .F. ) ;
#762 = EDGE_CURVE ( 'NONE', #176, #929, #351, .T. ) ;
#763 = DIRECTION ( 'NONE',  ( 1.000000000000000000, 0.000000000000000000, 0.000000000000000000 ) ) ;
#764 = CARTESIAN_POINT ( 'NONE',  ( -11.33819885186023591, 22.28336760898015001, 249.5551623416121743 ) ) ;
#765 = CARTESIAN_POINT ( 'NONE',  ( -35.00000000000000000, 0.000000000000000000, 57.00000000000000000 ) ) ;
#766 =( GEOMETRIC_REPRESENTATION_CONTEXT ( 3 ) GLOBAL_UNCERTAINTY_ASSIGNED_CONTEXT ( ( #842 ) ) GLOBAL_UNIT_ASSIGNED_CONTEXT ( ( #275, #833, #93 ) ) REPRESENTATION_CONTEXT ( 'NONE', 'WORKASPACE' ) );
#767 = VECTOR ( 'NONE', #994, 1000.000000000000000 ) ;
#768 = DIRECTION ( 'NONE',  ( 1.982541115402065110E-16, -1.000000000000000000, 0.000000000000000000 ) ) ;
#769 = ORIENTED_EDGE ( 'NONE', *, *, #935, .F. ) ;
#770 = DIRECTION ( 'NONE',  ( 0.000000000000000000, 0.000000000000000000, 1.000000000000000000 ) ) ;
#771 = CARTESIAN_POINT ( 'NONE',  ( 3.065886465080268852, 24.81144189476314210, 264.6022958626471677 ) ) ;
#772 = DIRECTION ( 'NONE',  ( 0.000000000000000000, -0.000000000000000000, -1.000000000000000000 ) ) ;
#773 = ORIENTED_EDGE ( 'NONE', *, *, #935, .T. ) ;
#774 = DIRECTION ( 'NONE',  ( -0.000000000000000000, -0.000000000000000000, -1.000000000000000000 ) ) ;
#775 = DIRECTION ( 'NONE',  ( 0.6632930593559093202, -0.7483597513297187698, 0.000000000000000000 ) ) ;
#776 = MECHANICAL_DESIGN_GEOMETRIC_PRESENTATION_REPRESENTATION (  '', ( #673 ), #209 ) ;
#777 = SHAPE_DEFINITION_REPRESENTATION ( #785, #313 ) ;
#778 = AXIS2_PLACEMENT_3D ( 'NONE', #220, #311, #110 ) ;
#779 = PRODUCT_RELATED_PRODUCT_CATEGORY ( 'part', '', ( #253 ) ) ;
#780 = CARTESIAN_POINT ( 'NONE',  ( -17.22176964773325736, 18.13523813976689425, 288.0014749625744912 ) ) ;
#781 = CARTESIAN_POINT ( 'NONE',  ( -56.56854249492377562, 56.56854249492383957, 268.0000000000000000 ) ) ;
#782 = ORIENTED_EDGE ( 'NONE', *, *, #714, .F. ) ;
#783 = SURFACE_STYLE_USAGE ( .BOTH. , #299 ) ;
#784 = DIRECTION ( 'NONE',  ( 0.000000000000000000, 0.000000000000000000, 0.9999999999999998890 ) ) ;
#785 = PRODUCT_DEFINITION_SHAPE ( 'NONE', 'NONE',  #506 ) ;
#786 = APPLICATION_PROTOCOL_DEFINITION ( 'draft international standard', 'automotive_design', 1998, #310 ) ;
#787 = CARTESIAN_POINT ( 'NONE',  ( -11.62867551817752521, 22.13326615210368686, 249.4274406520813443 ) ) ;
#788 = CARTESIAN_POINT ( 'NONE',  ( -19.98131195010428129, 15.04008626606639787, 287.7042281935121082 ) ) ;
#789 = MANIFOLD_SOLID_BREP ( 'Fillet1', #556 ) ;
#790 = AXIS2_PLACEMENT_3D ( 'NONE', #869, #296, #205 ) ;
#791 = AXIS2_PLACEMENT_3D ( 'NONE', #1004, #161, #600 ) ;
#792 = DIRECTION ( 'NONE',  ( -1.000000000000000000, 0.000000000000000000, 0.000000000000000000 ) ) ;
#793 = APPLICATION_PROTOCOL_DEFINITION ( 'draft international standard', 'automotive_design', 1998, #850 ) ;
#794 = CARTESIAN_POINT ( 'NONE',  ( 3.060626900272874096, 24.81294253018499418, 271.4618205320750235 ) ) ;
#795 = CARTESIAN_POINT ( 'NONE',  ( -24.94000585009201743, -1.757293251284599345, 274.6371649729708793 ) ) ;
#796 = SHAPE_REPRESENTATION ( 'Part1^Assem1', ( #873 ), #491 ) ;
#797 = EDGE_CURVE ( 'NONE', #92, #981, #520, .T. ) ;
#798 = CARTESIAN_POINT ( 'NONE',  ( -12.80487804878049118, 62.08499185782689267, 205.0000000000000284 ) ) ;
#799 = MECHANICAL_DESIGN_GEOMETRIC_PRESENTATION_REPRESENTATION (  '', ( #29 ), #479 ) ;
#800 = SHAPE_DEFINITION_REPRESENTATION ( #1050, #898 ) ;
#801 = LINE ( 'NONE', #715, #979 ) ;
#802 = CARTESIAN_POINT ( 'NONE',  ( -35.00000000000000000, 0.000000000000000000, 205.0000000000000284 ) ) ;
#803 = VECTOR ( 'NONE', #538, 1000.000000000000000 ) ;
#804 =( NAMED_UNIT ( * ) PLANE_ANGLE_UNIT ( ) SI_UNIT ( $, .RADIAN. ) );
#805 = EDGE_LOOP ( 'NONE', ( #399 ) ) ;
#806 = APPLICATION_PROTOCOL_DEFINITION ( 'draft international standard', 'automotive_design', 1998, #829 ) ;
#807 = CARTESIAN_POINT ( 'NONE',  ( -23.97262240277125755, 7.117550789116134702, 284.0735597788984705 ) ) ;
#808 = APPLICATION_CONTEXT ( 'automotive_design' ) ;
#809 = FACE_OUTER_BOUND ( 'NONE', #805, .T. ) ;
#810 = PRODUCT_DEFINITION_SHAPE ( 'NONE', 'NONE',  #3 ) ;
#811 = CARTESIAN_POINT ( 'NONE',  ( -24.76582523194125329, -3.414298142244435841, 266.2510444333472037 ) ) ;
#812 = DIRECTION ( 'NONE',  ( -0.7071067811865476838, -0.7071067811865474617, 0.000000000000000000 ) ) ;
#813 = ORIENTED_EDGE ( 'NONE', *, *, #363, .F. ) ;
#814 =( LENGTH_UNIT ( ) NAMED_UNIT ( * ) SI_UNIT ( .MILLI., .METRE. ) );
#815 = CARTESIAN_POINT ( 'NONE',  ( -24.86295654614739448, -2.623496696559993069, 263.2354920940995839 ) ) ;
#816 = EDGE_CURVE ( 'NONE', #985, #404, #89, .T. ) ;
#817 = VECTOR ( 'NONE', #651, 1000.000000000000000 ) ;
#818 = CARTESIAN_POINT ( 'NONE',  ( 0.000000000000000000, 0.000000000000000000, 57.00000000000000000 ) ) ;
#819 = EDGE_LOOP ( 'NONE', ( #418, #430, #661, #7 ) ) ;
#820 = EDGE_CURVE ( 'NONE', #929, #144, #1015, .T. ) ;
#821 = CARTESIAN_POINT ( 'NONE',  ( 0.000000000000000000, 0.000000000000000000, 57.00000000000000000 ) ) ;
#822 = ORIENTED_EDGE ( 'NONE', *, *, #204, .T. ) ;
#823 = CYLINDRICAL_SURFACE ( 'NONE', #693, 25.00000000000000000 ) ;
#824 = DIRECTION ( 'NONE',  ( 0.000000000000000000, -1.000000000000000000, 0.000000000000000000 ) ) ;
#825 = DIRECTION ( 'NONE',  ( 1.224646799147352961E-16, -1.000000000000000000, 0.000000000000000000 ) ) ;
#826 = ORIENTED_EDGE ( 'NONE', *, *, #990, .T. ) ;
#827 = ADVANCED_FACE ( 'NONE', ( #581 ), #433, .T. ) ;
#828 = DIRECTION ( 'NONE',  ( 1.000000000000000000, 0.000000000000000000, 0.000000000000000000 ) ) ;
#829 = APPLICATION_CONTEXT ( 'automotive_design' ) ;
#830 = CARTESIAN_POINT ( 'NONE',  ( -35.00000000000000000, 0.000000000000000000, 57.00000000000000000 ) ) ;
#831 = ORIENTED_EDGE ( 'NONE', *, *, #39, .F. ) ;
#832 = CIRCLE ( 'NONE', #727, 15.00000000000000000 ) ;
#833 =( NAMED_UNIT ( * ) PLANE_ANGLE_UNIT ( ) SI_UNIT ( $, .RADIAN. ) );
#834 = DIRECTION ( 'NONE',  ( 1.000000000000000000, 0.000000000000000000, 0.000000000000000000 ) ) ;
#835 = CARTESIAN_POINT ( 'NONE',  ( -35.00000000000000000, 75.00000000000000000, 50.00000000000000000 ) ) ;
#836 = FACE_OUTER_BOUND ( 'NONE', #151, .T. ) ;
#837 = DIRECTION ( 'NONE',  ( 0.000000000000000000, -0.000000000000000000, 1.000000000000000000 ) ) ;
#838 = ORIENTED_EDGE ( 'NONE', *, *, #797, .T. ) ;
#839 =( LENGTH_UNIT ( ) NAMED_UNIT ( * ) SI_UNIT ( .MILLI., .METRE. ) );
#840 = AXIS2_PLACEMENT_3D ( 'NONE', #8, #784, #1024 ) ;
#841 = AXIS2_PLACEMENT_3D ( 'NONE', #617, #99, #203 ) ;
#842 = UNCERTAINTY_MEASURE_WITH_UNIT (LENGTH_MEASURE( 1.000000000000000082E-05 ), #275, 'distance_accuracy_value', 'NONE');
#843 = FILL_AREA_STYLE ('',( #6 ) ) ;
#844 = DIRECTION ( 'NONE',  ( -0.000000000000000000, 0.000000000000000000, -1.000000000000000000 ) ) ;
#845 = ORIENTED_EDGE ( 'NONE', *, *, #653, .F. ) ;
#846 = VERTEX_POINT ( 'NONE', #496 ) ;
#847 = CARTESIAN_POINT ( 'NONE',  ( -35.00000000000000000, -4.286263797015737285E-15, 205.0000000000000284 ) ) ;
#848 = EDGE_CURVE ( 'NONE', #477, #1072, #504, .T. ) ;
#849 = ORIENTED_EDGE ( 'NONE', *, *, #456, .F. ) ;
#850 = APPLICATION_CONTEXT ( 'automotive_design' ) ;
#851 = CARTESIAN_POINT ( 'NONE',  ( 3.235505208832269997, 24.78989339948015314, 265.2786716352396184 ) ) ;
#852 =( NAMED_UNIT ( * ) SI_UNIT ( $, .STERADIAN. ) SOLID_ANGLE_UNIT ( ) );
#853 = ORIENTED_EDGE ( 'NONE', *, *, #57, .F. ) ;
#854 = CARTESIAN_POINT ( 'NONE',  ( -15.66269070431586563, 19.48842691618946432, 287.8192217342562458 ) ) ;
#855 = VERTEX_POINT ( 'NONE', #429 ) ;
#856 = DIRECTION ( 'NONE',  ( 1.000000000000000000, 0.000000000000000000, 0.000000000000000000 ) ) ;
#857 = ORIENTED_EDGE ( 'NONE', *, *, #1000, .T. ) ;
#858 = ADVANCED_FACE ( 'NONE', ( #56 ), #593, .T. ) ;
#859 = CARTESIAN_POINT ( 'NONE',  ( -17.13363330897513848, 18.21856620384730974, 248.0027750003261815 ) ) ;
#860 = CARTESIAN_POINT ( 'NONE',  ( -24.51469193562943616, 4.930464374420122198, 282.4434537972109638 ) ) ;
#861 = VERTEX_POINT ( 'NONE', #345 ) ;
#862 = CARTESIAN_POINT ( 'NONE',  ( 0.000000000000000000, 75.00000000000000000, 0.000000000000000000 ) ) ;
#863 = APPLICATION_PROTOCOL_DEFINITION ( 'draft international standard', 'automotive_design', 1998, #692 ) ;
#864 = AXIS2_PLACEMENT_3D ( 'NONE', #862, #718, #12 ) ;
#865 = CARTESIAN_POINT ( 'NONE',  ( -4.920317534189563524, 24.51681477398069120, 253.5646605301328123 ) ) ;
#866 = DIRECTION ( 'NONE',  ( -1.000000000000000000, 0.000000000000000000, 0.000000000000000000 ) ) ;
#867 = FACE_OUTER_BOUND ( 'NONE', #586, .T. ) ;
#868 = ORIENTED_EDGE ( 'NONE', *, *, #163, .F. ) ;
#869 = CARTESIAN_POINT ( 'NONE',  ( -4.097580795193378670E-15, -1.517666998436374360E-15, -179.3131394953618098 ) ) ;
#870 = CARTESIAN_POINT ( 'NONE',  ( -6.621365668827275286, 24.11386542681571754, 283.7292263131847108 ) ) ;
#871 = DIRECTION ( 'NONE',  ( -0.7071067811865474617, 0.7071067811865476838, 0.000000000000000000 ) ) ;
#872 = PRODUCT_DEFINITION_FORMATION_WITH_SPECIFIED_SOURCE ( 'ANY', '', #716, .NOT_KNOWN. ) ;
#873 = AXIS2_PLACEMENT_3D ( 'NONE', #1047, #159, #134 ) ;
#874 = FILL_AREA_STYLE ('',( #1029 ) ) ;
#875 = EDGE_LOOP ( 'NONE', ( #761, #360, #1067, #240 ) ) ;
#876 = APPLICATION_PROTOCOL_DEFINITION ( 'draft international standard', 'automotive_design', 1998, #901 ) ;
#877 = CARTESIAN_POINT ( 'NONE',  ( -24.94111375149024212, -1.742041266271697308, 261.3340320843481095 ) ) ;
#878 = DIRECTION ( 'NONE',  ( -0.7071067811865476838, -0.7071067811865474617, 0.000000000000000000 ) ) ;
#879 = PRODUCT_DEFINITION_SHAPE ( 'NONE', 'NONE',  #1080 ) ;
#880 = CARTESIAN_POINT ( 'NONE',  ( 0.000000000000000000, 0.000000000000000000, 50.00000000000000000 ) ) ;
#881 = EDGE_LOOP ( 'NONE', ( #288, #998, #941, #294 ) ) ;
#882 = COLOUR_RGB ( '',0.7921568627450980005, 0.8196078431372548767, 0.9333333333333333481 ) ;
#883 = CYLINDRICAL_SURFACE ( 'NONE', #88, 25.00000000000000000 ) ;
#884 = DIRECTION ( 'NONE',  ( -1.000000000000000000, -1.224646799147352961E-16, 0.000000000000000000 ) ) ;
#885 = CYLINDRICAL_SURFACE ( 'NONE', #674, 20.00000000000002132 ) ;
#886 = ADVANCED_FACE ( 'NONE', ( #923 ), #760, .T. ) ;
#887 = DIRECTION ( 'NONE',  ( 1.000000000000000000, 0.000000000000000000, 0.000000000000000000 ) ) ;
#888 = ADVANCED_FACE ( 'NONE', ( #497 ), #260, .T. ) ;
#889 = ITEM_DEFINED_TRANSFORMATION ( 'NONE', 'NONE', #840,  #873 ) ;
#890 = PLANE ( 'NONE',  #892 ) ;
#891 = ORIENTED_EDGE ( 'NONE', *, *, #363, .T. ) ;
#892 = AXIS2_PLACEMENT_3D ( 'NONE', #143, #481, #155 ) ;
#893 = SURFACE_STYLE_USAGE ( .BOTH. , #389 ) ;
#894 = CARTESIAN_POINT ( 'NONE',  ( -19.47176262564305915, 15.68342303667765947, 248.1771711739244779 ) ) ;
#895 = ITEM_DEFINED_TRANSFORMATION ( 'NONE', 'NONE', #986,  #873 ) ;
#896 = DIRECTION ( 'NONE',  ( -0.000000000000000000, 0.000000000000000000, 1.000000000000000000 ) ) ;
#897 = VERTEX_POINT ( 'NONE', #1 ) ;
#898 = SHAPE_REPRESENTATION ( 'Part3^Assem1', ( #873 ), #634 ) ;
#899 =( NAMED_UNIT ( * ) PLANE_ANGLE_UNIT ( ) SI_UNIT ( $, .RADIAN. ) );
#900 = CARTESIAN_POINT ( 'NONE',  ( 0.000000000000000000, 0.000000000000000000, 200.0000000000000000 ) ) ;
#901 = APPLICATION_CONTEXT ( 'automotive_design' ) ;
#902 = PRODUCT_RELATED_PRODUCT_CATEGORY ( 'part', '', ( #716 ) ) ;
#903 = CARTESIAN_POINT ( 'NONE',  ( 0.000000000000000000, 0.000000000000000000, 200.0000000000000000 ) ) ;
#904 = EDGE_LOOP ( 'NONE', ( #656 ) ) ;
#905 =( NAMED_UNIT ( * ) PLANE_ANGLE_UNIT ( ) SI_UNIT ( $, .RADIAN. ) );
#906 = AXIS2_PLACEMENT_3D ( 'NONE', #361, #690, #452 ) ;
#907 = COLOUR_RGB ( '',0.7921568627450980005, 0.8196078431372548767, 0.9333333333333333481 ) ;
#908 = DIRECTION ( 'NONE',  ( 0.000000000000000000, -0.000000000000000000, -1.000000000000000000 ) ) ;
#909 = CARTESIAN_POINT ( 'NONE',  ( -12.80487804878049296, 62.08499185782689267, 199.9990000000000236 ) ) ;
#910 = ORIENTED_EDGE ( 'NONE', *, *, #248, .T. ) ;
#911 = UNCERTAINTY_MEASURE_WITH_UNIT (LENGTH_MEASURE( 1.000000000000000082E-05 ), #145, 'distance_accuracy_value', 'NONE');
#912 = LINE ( 'NONE', #244, #767 ) ;
#913 = ORIENTED_EDGE ( 'NONE', *, *, #535, .T. ) ;
#914 = VECTOR ( 'NONE', #616, 1000.000000000000000 ) ;
#915 = DIRECTION ( 'NONE',  ( 1.000000000000000000, 0.000000000000000000, 0.000000000000000000 ) ) ;
#916 = PRODUCT_DEFINITION_SHAPE ( 'NONE', 'NONE',  #1086 ) ;
#917 = CARTESIAN_POINT ( 'NONE',  ( 25.00000000000000000, 0.000000000000000000, 300.0000000000000000 ) ) ;
#918 = PLANE ( 'NONE',  #448 ) ;
#919 = ORIENTED_EDGE ( 'NONE', *, *, #148, .F. ) ;
#920 =( NAMED_UNIT ( * ) PLANE_ANGLE_UNIT ( ) SI_UNIT ( $, .RADIAN. ) );
#921 = ADVANCED_FACE ( 'NONE', ( #745 ), #1010, .T. ) ;
#922 = CIRCLE ( 'NONE', #599, 25.00000000000000000 ) ;
#923 = FACE_OUTER_BOUND ( 'NONE', #367, .T. ) ;
#924 = ORIENTED_EDGE ( 'NONE', *, *, #163, .T. ) ;
#925 = CARTESIAN_POINT ( 'NONE',  ( -14.84312511233307497, 20.11959476442997286, 287.6519133846599061 ) ) ;
#926 = DIRECTION ( 'NONE',  ( -0.000000000000000000, -0.000000000000000000, -1.000000000000000000 ) ) ;
#927 = ADVANCED_FACE ( 'NONE', ( #280, #610 ), #934, .F. ) ;
#928 = CARTESIAN_POINT ( 'NONE',  ( -35.00000000000000000, 85.00000000000000000, 205.0000000000000284 ) ) ;
#929 = VERTEX_POINT ( 'NONE', #427 ) ;
#930 = APPLICATION_CONTEXT ( 'automotive_design' ) ;
#931 = SURFACE_SIDE_STYLE ('',( #606 ) ) ;
#932 = CIRCLE ( 'NONE', #395, 25.00000000000000000 ) ;
#933 = CARTESIAN_POINT ( 'NONE',  ( -9.725039391529476163, 23.03299791802361796, 285.6509221016215747 ) ) ;
#934 = PLANE ( 'NONE',  #376 ) ;
#935 = EDGE_CURVE ( 'NONE', #2, #570, #502, .T. ) ;
#936 = ORIENTED_EDGE ( 'NONE', *, *, #236, .T. ) ;
#937 =( NAMED_UNIT ( * ) SI_UNIT ( $, .STERADIAN. ) SOLID_ANGLE_UNIT ( ) );
#938 = CARTESIAN_POINT ( 'NONE',  ( -15.55467293798303352, 19.58413353448203864, 248.1916705612958651 ) ) ;
#939 = CARTESIAN_POINT ( 'NONE',  ( -22.26462770675788505, 11.37495464023970193, 286.4612523724317157 ) ) ;
#940 = PRODUCT_DEFINITION_FORMATION_WITH_SPECIFIED_SOURCE ( 'ANY', '', #116, .NOT_KNOWN. ) ;
#941 = ORIENTED_EDGE ( 'NONE', *, *, #148, .T. ) ;
#942 = CYLINDRICAL_SURFACE ( 'NONE', #864, 35.00000000000000000 ) ;
#943 = PRODUCT_CONTEXT ( 'NONE', #609, 'mechanical' ) ;
#944 = CARTESIAN_POINT ( 'NONE',  ( -7.097360200383546314, 23.97849134532855331, 251.9403128883579939 ) ) ;
#945 = PRODUCT_DEFINITION_SHAPE ( 'NONE', 'NONE',  #1081 ) ;
#946 = CARTESIAN_POINT ( 'NONE',  ( -20.76492578244944198, 13.93825237924273530, 287.4206778835155092 ) ) ;
#947 = ORIENTED_EDGE ( 'NONE', *, *, #1049, .T. ) ;
#948 = CARTESIAN_POINT ( 'NONE',  ( -35.00000000000000000, 75.00000000000000000, 57.00000000000000000 ) ) ;
#949 = AXIS2_PLACEMENT_3D ( 'NONE', #632, #871, #878 ) ;
#950 = DIRECTION ( 'NONE',  ( 0.000000000000000000, 0.000000000000000000, 1.000000000000000000 ) ) ;
#951 = ADVANCED_FACE ( 'NONE', ( #86 ), #744, .T. ) ;
#952 = AXIS2_PLACEMENT_3D ( 'NONE', #245, #63, #45 ) ;
#953 = CARTESIAN_POINT ( 'NONE',  ( 2.418939387237641903, 24.88661631043791189, 262.6123875765073876 ) ) ;
#954 = CARTESIAN_POINT ( 'NONE',  ( 0.000000000000000000, 0.000000000000000000, 57.00000000000000000 ) ) ;
#955 = APPLICATION_PROTOCOL_DEFINITION ( 'draft international standard', 'automotive_design', 1998, #982 ) ;
#956 = EDGE_CURVE ( 'NONE', #981, #855, #974, .T. ) ;
#957 = CARTESIAN_POINT ( 'NONE',  ( -23.58563569678757332, 8.310706873736926070, 251.1551828024028907 ) ) ;
#958 = CARTESIAN_POINT ( 'NONE',  ( -24.98420625925211880, 1.001072398551198672, 278.6201621950124263 ) ) ;
#959 = MECHANICAL_DESIGN_GEOMETRIC_PRESENTATION_REPRESENTATION (  '', ( #1027 ), #720 ) ;
#960 =( NAMED_UNIT ( * ) SI_UNIT ( $, .STERADIAN. ) SOLID_ANGLE_UNIT ( ) );
#961 = APPLICATION_PROTOCOL_DEFINITION ( 'draft international standard', 'automotive_design', 1998, #609 ) ;
#962 = CARTESIAN_POINT ( 'NONE',  ( -22.50409819268663014, 10.89357745489769869, 249.7596784962046002 ) ) ;
#963 = CARTESIAN_POINT ( 'NONE',  ( -24.90332118024728558, 2.382315596519418044, 280.1628513722283742 ) ) ;
#964 = EDGE_CURVE ( 'NONE', #897, #985, #62, .T. ) ;
#965 =( NAMED_UNIT ( * ) SI_UNIT ( $, .STERADIAN. ) SOLID_ANGLE_UNIT ( ) );
#966 = AXIS2_PLACEMENT_3D ( 'NONE', #1075, #259, #866 ) ;
#967 = AXIS2_PLACEMENT_3D ( 'NONE', #670, #489, #915 ) ;
#968 = SHAPE_REPRESENTATION ( 'Part4^Assem1', ( #873 ), #1044 ) ;
#969 = EDGE_CURVE ( 'NONE', #570, #522, #60, .T. ) ;
#970 = DIRECTION ( 'NONE',  ( -0.000000000000000000, -0.000000000000000000, -1.000000000000000000 ) ) ;
#971 = DIRECTION ( 'NONE',  ( -0.000000000000000000, -0.000000000000000000, 1.000000000000000000 ) ) ;
#972 = ADVANCED_BREP_SHAPE_REPRESENTATION ( '', ( #50, #873 ), #1044 ) ;
#973 = DIRECTION ( 'NONE',  ( 0.000000000000000000, -0.000000000000000000, -1.000000000000000000 ) ) ;
#974 = CIRCLE ( 'NONE', #1045, 35.00000000000000000 ) ;
#975 = DIRECTION ( 'NONE',  ( -0.000000000000000000, -0.000000000000000000, 1.000000000000000000 ) ) ;
#976 = ORIENTED_EDGE ( 'NONE', *, *, #731, .T. ) ;
#977 = AXIS2_PLACEMENT_3D ( 'NONE', #733, #150, #604 ) ;
#978 = ADVANCED_FACE ( 'NONE', ( #247 ), #1002, .T. ) ;
#979 = VECTOR ( 'NONE', #315, 1000.000000000000000 ) ;
#980 = CARTESIAN_POINT ( 'NONE',  ( -26.25000000000001066, 85.00000000000000000, 200.0000000000000000 ) ) ;
#981 = VERTEX_POINT ( 'NONE', #835 ) ;
#982 = APPLICATION_CONTEXT ( 'automotive_design' ) ;
#983 = CARTESIAN_POINT ( 'NONE',  ( 0.000000000000000000, 85.00000000000000000, 0.000000000000000000 ) ) ;
#984 = FACE_OUTER_BOUND ( 'NONE', #256, .T. ) ;
#985 = VERTEX_POINT ( 'NONE', #263 ) ;
#986 = AXIS2_PLACEMENT_3D ( 'NONE', #214, #630, #542 ) ;
#987 = VERTEX_POINT ( 'NONE', #165 ) ;
#988 = PRESENTATION_STYLE_ASSIGNMENT (( #687 ) ) ;
#989 = PRODUCT_DEFINITION_SHAPE ( 'NONE', 'NONE',  #521 ) ;
#990 = EDGE_CURVE ( 'NONE', #565, #570, #578, .T. ) ;
#991 = DIRECTION ( 'NONE',  ( 1.000000000000000000, 0.000000000000000000, -0.000000000000000000 ) ) ;
#992 = ORIENTED_EDGE ( 'NONE', *, *, #302, .T. ) ;
#993 = UNCERTAINTY_MEASURE_WITH_UNIT (LENGTH_MEASURE( 1.000000000000000082E-05 ), #839, 'distance_accuracy_value', 'NONE');
#994 = DIRECTION ( 'NONE',  ( -1.000000000000000000, -1.224646799147353454E-16, 0.000000000000000000 ) ) ;
#995 = CARTESIAN_POINT ( 'NONE',  ( 0.000000000000000000, 0.000000000000000000, 57.00000000000000000 ) ) ;
#996 = AXIS2_PLACEMENT_3D ( 'NONE', #571, #663, #61 ) ;
#997 = DIRECTION ( 'NONE',  ( 0.000000000000000000, 0.000000000000000000, 1.000000000000000000 ) ) ;
#998 = ORIENTED_EDGE ( 'NONE', *, *, #140, .F. ) ;
#999 = VECTOR ( 'NONE', #407, 1000.000000000000000 ) ;
#1000 = EDGE_CURVE ( 'NONE', #855, #176, #158, .T. ) ;
#1001 = PRESENTATION_STYLE_ASSIGNMENT (( #347 ) ) ;
#1002 = PLANE ( 'NONE',  #509 ) ;
#1003 = LINE ( 'NONE', #519, #129 ) ;
#1004 = CARTESIAN_POINT ( 'NONE',  ( 35.00000000000000000, 6.938893903907228378E-15, 57.00000000000000000 ) ) ;
#1005 = VERTEX_POINT ( 'NONE', #671 ) ;
#1006 = SHAPE_REPRESENTATION_RELATIONSHIP ( 'NONE' , 'NONE' ,  #898, #344 ) ;
#1007 =( GEOMETRIC_REPRESENTATION_CONTEXT ( 3 ) GLOBAL_UNCERTAINTY_ASSIGNED_CONTEXT ( ( #254 ) ) GLOBAL_UNIT_ASSIGNED_CONTEXT ( ( #814, #400, #1060 ) ) REPRESENTATION_CONTEXT ( 'NONE', 'WORKASPACE' ) );
#1008 = CARTESIAN_POINT ( 'NONE',  ( 1.397254565720587705, 24.96364634619694201, 275.2770364604167526 ) ) ;
#1009 = SURFACE_STYLE_USAGE ( .BOTH. , #277 ) ;
#1010 = PLANE ( 'NONE',  #721 ) ;
#1011 = ORIENTED_EDGE ( 'NONE', *, *, #236, .F. ) ;
#1012 = PRODUCT_RELATED_PRODUCT_CATEGORY ( 'part', '', ( #116 ) ) ;
#1013 = CARTESIAN_POINT ( 'NONE',  ( -12.49172241870290101, 21.65794038219139850, 249.0763674807345183 ) ) ;
#1014 = CARTESIAN_POINT ( 'NONE',  ( 0.000000000000000000, 40.26117457956679146, 200.0000000000000000 ) ) ;
#1015 = LINE ( 'NONE', #97, #724 ) ;
#1016 = ORIENTED_EDGE ( 'NONE', *, *, #726, .F. ) ;
#1017 = STYLED_ITEM ( 'NONE', ( #584 ), #50 ) ;
#1018 = CONTEXT_DEPENDENT_SHAPE_REPRESENTATION ( #96, #1040 ) ;
#1019 = CARTESIAN_POINT ( 'NONE',  ( -9.897203415462080045, 22.99341139920944954, 250.2233017377697308 ) ) ;
#1020 = CARTESIAN_POINT ( 'NONE',  ( -22.97709810061559921, 9.935029073100082542, 285.7965581010408869 ) ) ;
#1021 =( REPRESENTATION_RELATIONSHIP ('NONE','NONE', #313, #796 ) REPRESENTATION_RELATIONSHIP_WITH_TRANSFORMATION ( #130 )SHAPE_REPRESENTATION_RELATIONSHIP( ) );
#1022 = ORIENTED_EDGE ( 'NONE', *, *, #186, .T. ) ;
#1023 = DIRECTION ( 'NONE',  ( 1.000000000000000000, 0.000000000000000000, 0.000000000000000000 ) ) ;
#1024 = DIRECTION ( 'NONE',  ( 0.04022245787043204901, -0.9991907494982433802, 0.000000000000000000 ) ) ;
#1025 = CARTESIAN_POINT ( 'NONE',  ( 3.534779602718079783, 24.74884509831920809, 268.3728957500433694 ) ) ;
#1026 = CARTESIAN_POINT ( 'NONE',  ( -21.12946149041827937, 13.37846045188838495, 287.2461584611464787 ) ) ;
#1027 = STYLED_ITEM ( 'NONE', ( #172 ), #972 ) ;
#1028 = EDGE_LOOP ( 'NONE', ( #936 ) ) ;
#1029 = FILL_AREA_STYLE_COLOUR ( '', #14 ) ;
#1030 = CARTESIAN_POINT ( 'NONE',  ( -0.5799981073156345035, 24.99682878773903738, 278.1144962326894756 ) ) ;
#1031 = PRODUCT_DEFINITION_SHAPE ( 'NONE', 'NONE',  #1077 ) ;
#1032 = CARTESIAN_POINT ( 'NONE',  ( 0.000000000000000000, 0.000000000000000000, 50.00000000000000000 ) ) ;
#1033 = COLOUR_RGB ( '',0.7921568627450980005, 0.8196078431372548767, 0.9333333333333333481 ) ;
#1034 = CARTESIAN_POINT ( 'NONE',  ( -35.00000000000000000, 0.000000000000000000, 205.0000000000000284 ) ) ;
#1035 = ORIENTED_EDGE ( 'NONE', *, *, #624, .T. ) ;
#1036 = EDGE_CURVE ( 'NONE', #182, #735, #912, .T. ) ;
#1037 = DIRECTION ( 'NONE',  ( 1.000000000000000000, 0.000000000000000000, 0.000000000000000000 ) ) ;
#1038 = CARTESIAN_POINT ( 'NONE',  ( 0.000000000000000000, 40.26117457956679146, 205.0000000000000284 ) ) ;
#1039 = CYLINDRICAL_SURFACE ( 'NONE', #228, 25.00000000000000000 ) ;
#1040 = PRODUCT_DEFINITION_SHAPE ( 'NONE', 'NONE',  #1078 ) ;
#1041 = PRODUCT_CONTEXT ( 'NONE', #808, 'mechanical' ) ;
#1042 = CARTESIAN_POINT ( 'NONE',  ( -24.98330502259837260, 1.025480964391818794, 257.3510069682209860 ) ) ;
#1043 = DIRECTION ( 'NONE',  ( -1.000000000000000000, -1.224646799147352961E-16, 0.000000000000000000 ) ) ;
#1044 =( GEOMETRIC_REPRESENTATION_CONTEXT ( 3 ) GLOBAL_UNCERTAINTY_ASSIGNED_CONTEXT ( ( #75 ) ) GLOBAL_UNIT_ASSIGNED_CONTEXT ( ( #66, #588, #517 ) ) REPRESENTATION_CONTEXT ( 'NONE', 'WORKASPACE' ) );
#1045 = AXIS2_PLACEMENT_3D ( 'NONE', #583, #21, #512 ) ;
#1046 = CARTESIAN_POINT ( 'NONE',  ( 0.000000000000000000, 0.000000000000000000, 205.0000000000000284 ) ) ;
#1047 = CARTESIAN_POINT ( 'NONE',  ( 0.000000000000000000, 0.000000000000000000, 0.000000000000000000 ) ) ;
#1048 = CARTESIAN_POINT ( 'NONE',  ( -22.90401508972589539, 10.02529775036972381, 250.1904931933838725 ) ) ;
#1049 = EDGE_CURVE ( 'NONE', #156, #897, #338, .T. ) ;
#1050 = PRODUCT_DEFINITION_SHAPE ( 'NONE', 'NONE',  #269 ) ;
#1051 = LINE ( 'NONE', #818, #999 ) ;
#1052 = FILL_AREA_STYLE_COLOUR ( '', #907 ) ;
#1053 = VECTOR ( 'NONE', #884, 1000.000000000000000 ) ;
#1054 = CARTESIAN_POINT ( 'NONE',  ( -23.37848224522675622, 8.878587001596089934, 250.8156629678052241 ) ) ;
#1055 = CARTESIAN_POINT ( 'NONE',  ( 0.000000000000000000, 0.000000000000000000, 200.0000000000000000 ) ) ;
#1056 = CARTESIAN_POINT ( 'NONE',  ( -23.95237797967510573, 7.185655786463321704, 251.8801952510917204 ) ) ;
#1057 = EDGE_CURVE ( 'NONE', #343, #343, #922, .T. ) ;
#1058 = CARTESIAN_POINT ( 'NONE',  ( 0.000000000000000000, 25.00000000000000000, 200.0000000000000000 ) ) ;
#1059 = EDGE_LOOP ( 'NONE', ( #992 ) ) ;
#1060 =( NAMED_UNIT ( * ) SI_UNIT ( $, .STERADIAN. ) SOLID_ANGLE_UNIT ( ) );
#1061 = DIRECTION ( 'NONE',  ( 1.000000000000000000, 0.000000000000000000, 0.000000000000000000 ) ) ;
#1062 = VERTEX_POINT ( 'NONE', #255 ) ;
#1063 = DIRECTION ( 'NONE',  ( 0.000000000000000000, 0.000000000000000000, 1.000000000000000000 ) ) ;
#1064 =( REPRESENTATION_RELATIONSHIP ('NONE','NONE', #313, #898 ) REPRESENTATION_RELATIONSHIP_WITH_TRANSFORMATION ( #284 )SHAPE_REPRESENTATION_RELATIONSHIP( ) );
#1065 = CARTESIAN_POINT ( 'NONE',  ( 0.000000000000000000, 0.000000000000000000, 300.0000000000000000 ) ) ;
#1066 = CARTESIAN_POINT ( 'NONE',  ( 0.000000000000000000, 25.00000000000000000, 205.0000000000000284 ) ) ;
#1067 = ORIENTED_EDGE ( 'NONE', *, *, #1068, .F. ) ;
#1068 = EDGE_CURVE ( 'NONE', #169, #477, #178, .T. ) ;
#1069 = FACE_OUTER_BOUND ( 'NONE', #300, .T. ) ;
#1070 = DIRECTION ( 'NONE',  ( 1.000000000000000000, 0.000000000000000000, 0.000000000000000000 ) ) ;
#1071 = DIRECTION ( 'NONE',  ( 0.000000000000000000, 0.000000000000000000, 1.000000000000000000 ) ) ;
#1072 = VERTEX_POINT ( 'NONE', #490 ) ;
#1073 = AXIS2_PLACEMENT_3D ( 'NONE', #13, #104, #20 ) ;
#1074 = DIRECTION ( 'NONE',  ( 0.000000000000000000, 1.000000000000000000, -0.000000000000000000 ) ) ;
#1075 = CARTESIAN_POINT ( 'NONE',  ( 0.000000000000000000, 0.000000000000000000, 205.0000000000000284 ) ) ;
#1076 = FILL_AREA_STYLE_COLOUR ( '', #128 ) ;
#1077 = NEXT_ASSEMBLY_USAGE_OCCURRENCE ( 'NAUO1', ' ', ' ', #506, #521, $ ) ;
#1078 = NEXT_ASSEMBLY_USAGE_OCCURRENCE ( 'NAUO2', ' ', ' ', #506, #3, $ ) ;
#1079 = NEXT_ASSEMBLY_USAGE_OCCURRENCE ( 'NAUO3', ' ', ' ', #506, #269, $ ) ;
#1080 = NEXT_ASSEMBLY_USAGE_OCCURRENCE ( 'NAUO4', ' ', ' ', #506, #3, $ ) ;
#1081 = NEXT_ASSEMBLY_USAGE_OCCURRENCE ( 'NAUO5', ' ', ' ', #506, #269, $ ) ;
#1082 = NEXT_ASSEMBLY_USAGE_OCCURRENCE ( 'NAUO6', ' ', ' ', #506, #321, $ ) ;
#1083 = NEXT_ASSEMBLY_USAGE_OCCURRENCE ( 'NAUO7', ' ', ' ', #506, #3, $ ) ;
#1084 = NEXT_ASSEMBLY_USAGE_OCCURRENCE ( 'NAUO8', ' ', ' ', #506, #269, $ ) ;
#1085 = NEXT_ASSEMBLY_USAGE_OCCURRENCE ( 'NAUO9', ' ', ' ', #506, #269, $ ) ;
#1086 = NEXT_ASSEMBLY_USAGE_OCCURRENCE ( 'NAUO10', ' ', ' ', #506, #321, $ ) ;
ENDSEC;
END-ISO-10303-21;
