ISO-10303-21;
HEADER;
/* Generated by software containing ST-Developer
 * from STEP Tools, Inc. (www.steptools.com) 
 */
/* OPTION: strings as raw bytes, not using required /X/ escapes */

FILE_DESCRIPTION(
/* description */ ('Unknown'),
/* implementation_level */ '2;1');

FILE_NAME(
/* name */ 'Part1',
/* time_stamp */ '2025-10-29T18:39:22+01:00',
/* author */ ('Unknown'),
/* organization */ ('Unknown'),
/* preprocessor_version */ 'ST-DEVELOPER v19.4',
/* originating_system */ 'Solid Edge',
/* authorisation */ 'Unknown');

FILE_SCHEMA (('AUTOMOTIVE_DESIGN {1 0 10303 214 3 1 1}'));
ENDSEC;

DATA;
#10=PROPERTY_DEFINITION_REPRESENTATION(#14,#12);
#11=PROPERTY_DEFINITION_REPRESENTATION(#15,#13);
#12=REPRESENTATION('',(#16),#523);
#13=REPRESENTATION('',(#17),#523);
#14=PROPERTY_DEFINITION('pmi validation property','',#528);
#15=PROPERTY_DEFINITION('pmi validation property','',#528);
#16=VALUE_REPRESENTATION_ITEM('number of annotations',COUNT_MEASURE(0.));
#17=VALUE_REPRESENTATION_ITEM('number of views',COUNT_MEASURE(0.));
#18=SHAPE_REPRESENTATION_RELATIONSHIP('','',#333,#19);
#19=ADVANCED_BREP_SHAPE_REPRESENTATION('',(#331),#523);
#20=CYLINDRICAL_SURFACE('',#351,2.5);
#21=CYLINDRICAL_SURFACE('',#353,6.);
#22=CIRCLE('',#338,6.);
#23=CIRCLE('',#346,2.5);
#24=CIRCLE('',#352,2.5);
#25=CIRCLE('',#354,6.);
#26=ORIENTED_EDGE('',*,*,#106,.F.);
#27=ORIENTED_EDGE('',*,*,#107,.T.);
#28=ORIENTED_EDGE('',*,*,#108,.T.);
#29=ORIENTED_EDGE('',*,*,#109,.F.);
#30=ORIENTED_EDGE('',*,*,#110,.F.);
#31=ORIENTED_EDGE('',*,*,#109,.T.);
#32=ORIENTED_EDGE('',*,*,#111,.T.);
#33=ORIENTED_EDGE('',*,*,#112,.F.);
#34=ORIENTED_EDGE('',*,*,#113,.F.);
#35=ORIENTED_EDGE('',*,*,#114,.T.);
#36=ORIENTED_EDGE('',*,*,#115,.T.);
#37=ORIENTED_EDGE('',*,*,#116,.F.);
#38=ORIENTED_EDGE('',*,*,#117,.T.);
#39=ORIENTED_EDGE('',*,*,#118,.T.);
#40=ORIENTED_EDGE('',*,*,#119,.F.);
#41=ORIENTED_EDGE('',*,*,#120,.F.);
#42=ORIENTED_EDGE('',*,*,#121,.T.);
#43=ORIENTED_EDGE('',*,*,#122,.F.);
#44=ORIENTED_EDGE('',*,*,#119,.T.);
#45=ORIENTED_EDGE('',*,*,#123,.T.);
#46=ORIENTED_EDGE('',*,*,#124,.T.);
#47=ORIENTED_EDGE('',*,*,#125,.F.);
#48=ORIENTED_EDGE('',*,*,#111,.F.);
#49=ORIENTED_EDGE('',*,*,#108,.F.);
#50=ORIENTED_EDGE('',*,*,#126,.F.);
#51=ORIENTED_EDGE('',*,*,#127,.F.);
#52=ORIENTED_EDGE('',*,*,#128,.F.);
#53=ORIENTED_EDGE('',*,*,#129,.F.);
#54=ORIENTED_EDGE('',*,*,#115,.F.);
#55=ORIENTED_EDGE('',*,*,#130,.F.);
#56=ORIENTED_EDGE('',*,*,#131,.T.);
#57=ORIENTED_EDGE('',*,*,#124,.F.);
#58=ORIENTED_EDGE('',*,*,#132,.F.);
#59=ORIENTED_EDGE('',*,*,#133,.T.);
#60=ORIENTED_EDGE('',*,*,#134,.T.);
#61=ORIENTED_EDGE('',*,*,#128,.T.);
#62=ORIENTED_EDGE('',*,*,#135,.F.);
#63=ORIENTED_EDGE('',*,*,#136,.F.);
#64=ORIENTED_EDGE('',*,*,#137,.T.);
#65=ORIENTED_EDGE('',*,*,#126,.T.);
#66=ORIENTED_EDGE('',*,*,#107,.F.);
#67=ORIENTED_EDGE('',*,*,#134,.F.);
#68=ORIENTED_EDGE('',*,*,#138,.T.);
#69=ORIENTED_EDGE('',*,*,#116,.T.);
#70=ORIENTED_EDGE('',*,*,#129,.T.);
#71=ORIENTED_EDGE('',*,*,#125,.T.);
#72=ORIENTED_EDGE('',*,*,#137,.F.);
#73=ORIENTED_EDGE('',*,*,#139,.F.);
#74=ORIENTED_EDGE('',*,*,#112,.T.);
#75=ORIENTED_EDGE('',*,*,#127,.T.);
#76=ORIENTED_EDGE('',*,*,#114,.F.);
#77=ORIENTED_EDGE('',*,*,#140,.F.);
#78=ORIENTED_EDGE('',*,*,#135,.T.);
#79=ORIENTED_EDGE('',*,*,#141,.T.);
#80=ORIENTED_EDGE('',*,*,#113,.T.);
#81=ORIENTED_EDGE('',*,*,#139,.T.);
#82=ORIENTED_EDGE('',*,*,#136,.T.);
#83=ORIENTED_EDGE('',*,*,#140,.T.);
#84=ORIENTED_EDGE('',*,*,#117,.F.);
#85=ORIENTED_EDGE('',*,*,#138,.F.);
#86=ORIENTED_EDGE('',*,*,#133,.F.);
#87=ORIENTED_EDGE('',*,*,#142,.F.);
#88=ORIENTED_EDGE('',*,*,#123,.F.);
#89=ORIENTED_EDGE('',*,*,#118,.F.);
#90=ORIENTED_EDGE('',*,*,#142,.T.);
#91=ORIENTED_EDGE('',*,*,#132,.T.);
#92=ORIENTED_EDGE('',*,*,#110,.T.);
#93=ORIENTED_EDGE('',*,*,#143,.T.);
#94=ORIENTED_EDGE('',*,*,#130,.T.);
#95=ORIENTED_EDGE('',*,*,#106,.T.);
#96=ORIENTED_EDGE('',*,*,#122,.T.);
#97=ORIENTED_EDGE('',*,*,#131,.F.);
#98=ORIENTED_EDGE('',*,*,#143,.F.);
#99=ORIENTED_EDGE('',*,*,#120,.T.);
#100=ORIENTED_EDGE('',*,*,#144,.F.);
#101=ORIENTED_EDGE('',*,*,#141,.F.);
#102=ORIENTED_EDGE('',*,*,#145,.T.);
#103=ORIENTED_EDGE('',*,*,#121,.F.);
#104=ORIENTED_EDGE('',*,*,#144,.T.);
#105=ORIENTED_EDGE('',*,*,#145,.F.);
#106=EDGE_CURVE('',#146,#147,#174,.T.);
#107=EDGE_CURVE('',#146,#148,#175,.T.);
#108=EDGE_CURVE('',#148,#149,#176,.T.);
#109=EDGE_CURVE('',#147,#149,#177,.T.);
#110=EDGE_CURVE('',#147,#150,#178,.T.);
#111=EDGE_CURVE('',#149,#151,#179,.T.);
#112=EDGE_CURVE('',#152,#151,#180,.T.);
#113=EDGE_CURVE('',#153,#152,#181,.T.);
#114=EDGE_CURVE('',#153,#154,#182,.T.);
#115=EDGE_CURVE('',#154,#155,#183,.T.);
#116=EDGE_CURVE('',#156,#155,#184,.T.);
#117=EDGE_CURVE('',#156,#157,#185,.T.);
#118=EDGE_CURVE('',#157,#158,#186,.T.);
#119=EDGE_CURVE('',#159,#158,#187,.T.);
#120=EDGE_CURVE('',#150,#159,#188,.T.);
#121=EDGE_CURVE('',#160,#160,#22,.T.);
#122=EDGE_CURVE('',#159,#161,#189,.T.);
#123=EDGE_CURVE('',#158,#162,#190,.T.);
#124=EDGE_CURVE('',#162,#161,#191,.T.);
#125=EDGE_CURVE('',#151,#163,#192,.T.);
#126=EDGE_CURVE('',#163,#148,#193,.T.);
#127=EDGE_CURVE('',#164,#154,#194,.T.);
#128=EDGE_CURVE('',#165,#164,#195,.T.);
#129=EDGE_CURVE('',#155,#165,#196,.T.);
#130=EDGE_CURVE('',#166,#146,#197,.T.);
#131=EDGE_CURVE('',#166,#161,#198,.T.);
#132=EDGE_CURVE('',#167,#162,#199,.T.);
#133=EDGE_CURVE('',#167,#168,#200,.T.);
#134=EDGE_CURVE('',#168,#165,#201,.T.);
#135=EDGE_CURVE('',#169,#164,#202,.T.);
#136=EDGE_CURVE('',#170,#169,#203,.T.);
#137=EDGE_CURVE('',#170,#163,#204,.T.);
#138=EDGE_CURVE('',#168,#156,#205,.T.);
#139=EDGE_CURVE('',#152,#170,#206,.T.);
#140=EDGE_CURVE('',#169,#153,#207,.T.);
#141=EDGE_CURVE('',#171,#171,#23,.F.);
#142=EDGE_CURVE('',#157,#167,#208,.T.);
#143=EDGE_CURVE('',#150,#166,#209,.T.);
#144=EDGE_CURVE('',#172,#172,#24,.T.);
#145=EDGE_CURVE('',#173,#173,#25,.T.);
#146=VERTEX_POINT('',#439);
#147=VERTEX_POINT('',#440);
#148=VERTEX_POINT('',#442);
#149=VERTEX_POINT('',#444);
#150=VERTEX_POINT('',#448);
#151=VERTEX_POINT('',#450);
#152=VERTEX_POINT('',#452);
#153=VERTEX_POINT('',#454);
#154=VERTEX_POINT('',#456);
#155=VERTEX_POINT('',#458);
#156=VERTEX_POINT('',#460);
#157=VERTEX_POINT('',#462);
#158=VERTEX_POINT('',#464);
#159=VERTEX_POINT('',#466);
#160=VERTEX_POINT('',#470);
#161=VERTEX_POINT('',#472);
#162=VERTEX_POINT('',#474);
#163=VERTEX_POINT('',#478);
#164=VERTEX_POINT('',#482);
#165=VERTEX_POINT('',#484);
#166=VERTEX_POINT('',#488);
#167=VERTEX_POINT('',#491);
#168=VERTEX_POINT('',#493);
#169=VERTEX_POINT('',#496);
#170=VERTEX_POINT('',#498);
#171=VERTEX_POINT('',#508);
#172=VERTEX_POINT('',#517);
#173=VERTEX_POINT('',#520);
#174=LINE('',#438,#210);
#175=LINE('',#441,#211);
#176=LINE('',#443,#212);
#177=LINE('',#445,#213);
#178=LINE('',#447,#214);
#179=LINE('',#449,#215);
#180=LINE('',#451,#216);
#181=LINE('',#453,#217);
#182=LINE('',#455,#218);
#183=LINE('',#457,#219);
#184=LINE('',#459,#220);
#185=LINE('',#461,#221);
#186=LINE('',#463,#222);
#187=LINE('',#465,#223);
#188=LINE('',#467,#224);
#189=LINE('',#471,#225);
#190=LINE('',#473,#226);
#191=LINE('',#475,#227);
#192=LINE('',#477,#228);
#193=LINE('',#479,#229);
#194=LINE('',#481,#230);
#195=LINE('',#483,#231);
#196=LINE('',#485,#232);
#197=LINE('',#487,#233);
#198=LINE('',#489,#234);
#199=LINE('',#490,#235);
#200=LINE('',#492,#236);
#201=LINE('',#494,#237);
#202=LINE('',#495,#238);
#203=LINE('',#497,#239);
#204=LINE('',#499,#240);
#205=LINE('',#501,#241);
#206=LINE('',#503,#242);
#207=LINE('',#505,#243);
#208=LINE('',#510,#244);
#209=LINE('',#513,#245);
#210=VECTOR('',#360,1000.);
#211=VECTOR('',#361,1000.);
#212=VECTOR('',#362,1000.);
#213=VECTOR('',#363,1000.);
#214=VECTOR('',#366,1000.);
#215=VECTOR('',#367,1000.);
#216=VECTOR('',#368,1000.);
#217=VECTOR('',#369,1000.);
#218=VECTOR('',#370,1000.);
#219=VECTOR('',#371,1000.);
#220=VECTOR('',#372,1000.);
#221=VECTOR('',#373,1000.);
#222=VECTOR('',#374,1000.);
#223=VECTOR('',#375,1000.);
#224=VECTOR('',#376,1000.);
#225=VECTOR('',#381,1000.);
#226=VECTOR('',#382,1000.);
#227=VECTOR('',#383,1000.);
#228=VECTOR('',#386,1000.);
#229=VECTOR('',#387,1000.);
#230=VECTOR('',#390,1000.);
#231=VECTOR('',#391,1000.);
#232=VECTOR('',#392,1000.);
#233=VECTOR('',#395,1000.);
#234=VECTOR('',#396,1000.);
#235=VECTOR('',#397,1000.);
#236=VECTOR('',#398,1000.);
#237=VECTOR('',#399,1000.);
#238=VECTOR('',#400,1000.);
#239=VECTOR('',#401,1000.);
#240=VECTOR('',#402,1000.);
#241=VECTOR('',#405,1000.);
#242=VECTOR('',#408,1000.);
#243=VECTOR('',#411,1000.);
#244=VECTOR('',#418,1000.);
#245=VECTOR('',#423,1000.);
#246=EDGE_LOOP('',(#26,#27,#28,#29));
#247=EDGE_LOOP('',(#30,#31,#32,#33,#34,#35,#36,#37,#38,#39,#40,#41));
#248=EDGE_LOOP('',(#42));
#249=EDGE_LOOP('',(#43,#44,#45,#46));
#250=EDGE_LOOP('',(#47,#48,#49,#50));
#251=EDGE_LOOP('',(#51,#52,#53,#54));
#252=EDGE_LOOP('',(#55,#56,#57,#58,#59,#60,#61,#62,#63,#64,#65,#66));
#253=EDGE_LOOP('',(#67,#68,#69,#70));
#254=EDGE_LOOP('',(#71,#72,#73,#74));
#255=EDGE_LOOP('',(#75,#76,#77,#78));
#256=EDGE_LOOP('',(#79));
#257=EDGE_LOOP('',(#80,#81,#82,#83));
#258=EDGE_LOOP('',(#84,#85,#86,#87));
#259=EDGE_LOOP('',(#88,#89,#90,#91));
#260=EDGE_LOOP('',(#92,#93,#94,#95));
#261=EDGE_LOOP('',(#96,#97,#98,#99));
#262=EDGE_LOOP('',(#100));
#263=EDGE_LOOP('',(#101));
#264=EDGE_LOOP('',(#102));
#265=EDGE_LOOP('',(#103));
#266=EDGE_LOOP('',(#104));
#267=EDGE_LOOP('',(#105));
#268=FACE_BOUND('',#246,.T.);
#269=FACE_BOUND('',#247,.T.);
#270=FACE_BOUND('',#248,.T.);
#271=FACE_BOUND('',#249,.T.);
#272=FACE_BOUND('',#250,.T.);
#273=FACE_BOUND('',#251,.T.);
#274=FACE_BOUND('',#252,.T.);
#275=FACE_BOUND('',#253,.T.);
#276=FACE_BOUND('',#254,.T.);
#277=FACE_BOUND('',#255,.T.);
#278=FACE_BOUND('',#256,.T.);
#279=FACE_BOUND('',#257,.T.);
#280=FACE_BOUND('',#258,.T.);
#281=FACE_BOUND('',#259,.T.);
#282=FACE_BOUND('',#260,.T.);
#283=FACE_BOUND('',#261,.T.);
#284=FACE_BOUND('',#262,.T.);
#285=FACE_BOUND('',#263,.T.);
#286=FACE_BOUND('',#264,.T.);
#287=FACE_BOUND('',#265,.T.);
#288=FACE_BOUND('',#266,.T.);
#289=FACE_BOUND('',#267,.T.);
#290=PLANE('',#335);
#291=PLANE('',#336);
#292=PLANE('',#337);
#293=PLANE('',#339);
#294=PLANE('',#340);
#295=PLANE('',#341);
#296=PLANE('',#342);
#297=PLANE('',#343);
#298=PLANE('',#344);
#299=PLANE('',#345);
#300=PLANE('',#347);
#301=PLANE('',#348);
#302=PLANE('',#349);
#303=PLANE('',#350);
#304=PLANE('',#355);
#305=ADVANCED_FACE('',(#268),#290,.F.);
#306=ADVANCED_FACE('',(#269),#291,.F.);
#307=ADVANCED_FACE('',(#270,#271),#292,.T.);
#308=ADVANCED_FACE('',(#272),#293,.F.);
#309=ADVANCED_FACE('',(#273),#294,.F.);
#310=ADVANCED_FACE('',(#274),#295,.F.);
#311=ADVANCED_FACE('',(#275),#296,.F.);
#312=ADVANCED_FACE('',(#276),#297,.F.);
#313=ADVANCED_FACE('',(#277),#298,.F.);
#314=ADVANCED_FACE('',(#278,#279),#299,.T.);
#315=ADVANCED_FACE('',(#280),#300,.F.);
#316=ADVANCED_FACE('',(#281),#301,.T.);
#317=ADVANCED_FACE('',(#282),#302,.T.);
#318=ADVANCED_FACE('',(#283),#303,.F.);
#319=ADVANCED_FACE('',(#284,#285),#20,.F.);
#320=ADVANCED_FACE('',(#286,#287),#21,.F.);
#321=ADVANCED_FACE('',(#288,#289),#304,.F.);
#322=CLOSED_SHELL('',(#305,#306,#307,#308,#309,#310,#311,#312,#313,#314,
#315,#316,#317,#318,#319,#320,#321));
#323=STYLED_ITEM('',(#324),#331);
#324=PRESENTATION_STYLE_ASSIGNMENT((#325));
#325=SURFACE_STYLE_USAGE(.BOTH.,#326);
#326=SURFACE_SIDE_STYLE('',(#327));
#327=SURFACE_STYLE_FILL_AREA(#328);
#328=FILL_AREA_STYLE('',(#329));
#329=FILL_AREA_STYLE_COLOUR('',#330);
#330=COLOUR_RGB('',0.506983280181885,0.531564235687256,0.550000011920929);
#331=MANIFOLD_SOLID_BREP('',#322);
#332=SHAPE_DEFINITION_REPRESENTATION(#528,#333);
#333=SHAPE_REPRESENTATION('Part1',(#334),#523);
#334=AXIS2_PLACEMENT_3D('',#436,#356,#357);
#335=AXIS2_PLACEMENT_3D('',#437,#358,#359);
#336=AXIS2_PLACEMENT_3D('',#446,#364,#365);
#337=AXIS2_PLACEMENT_3D('',#468,#377,#378);
#338=AXIS2_PLACEMENT_3D('',#469,#379,#380);
#339=AXIS2_PLACEMENT_3D('',#476,#384,#385);
#340=AXIS2_PLACEMENT_3D('',#480,#388,#389);
#341=AXIS2_PLACEMENT_3D('',#486,#393,#394);
#342=AXIS2_PLACEMENT_3D('',#500,#403,#404);
#343=AXIS2_PLACEMENT_3D('',#502,#406,#407);
#344=AXIS2_PLACEMENT_3D('',#504,#409,#410);
#345=AXIS2_PLACEMENT_3D('',#506,#412,#413);
#346=AXIS2_PLACEMENT_3D('',#507,#414,#415);
#347=AXIS2_PLACEMENT_3D('',#509,#416,#417);
#348=AXIS2_PLACEMENT_3D('',#511,#419,#420);
#349=AXIS2_PLACEMENT_3D('',#512,#421,#422);
#350=AXIS2_PLACEMENT_3D('',#514,#424,#425);
#351=AXIS2_PLACEMENT_3D('',#515,#426,#427);
#352=AXIS2_PLACEMENT_3D('',#516,#428,#429);
#353=AXIS2_PLACEMENT_3D('',#518,#430,#431);
#354=AXIS2_PLACEMENT_3D('',#519,#432,#433);
#355=AXIS2_PLACEMENT_3D('',#521,#434,#435);
#356=DIRECTION('',(0.,0.,1.));
#357=DIRECTION('',(1.,0.,0.));
#358=DIRECTION('',(-1.,0.,0.));
#359=DIRECTION('',(0.,0.,1.));
#360=DIRECTION('',(1.38777878078145E-16,1.,0.));
#361=DIRECTION('',(0.,0.,-1.));
#362=DIRECTION('',(0.,1.,0.));
#363=DIRECTION('',(0.,0.,-1.));
#364=DIRECTION('',(0.,-1.,0.));
#365=DIRECTION('',(0.,0.,-1.));
#366=DIRECTION('',(-1.,0.,0.));
#367=DIRECTION('',(-1.,0.,0.));
#368=DIRECTION('',(0.,0.,-1.));
#369=DIRECTION('',(1.,0.,0.));
#370=DIRECTION('',(0.,0.,-1.));
#371=DIRECTION('',(-1.,0.,0.));
#372=DIRECTION('',(0.,0.,-1.));
#373=DIRECTION('',(1.,0.,0.));
#374=DIRECTION('',(0.,0.,1.));
#375=DIRECTION('',(-1.,0.,0.));
#376=DIRECTION('',(0.,0.,1.));
#377=DIRECTION('',(0.,0.,1.));
#378=DIRECTION('',(1.,0.,0.));
#379=DIRECTION('',(0.,0.,-1.));
#380=DIRECTION('',(5.20417042793042E-17,1.,0.));
#381=DIRECTION('',(-1.21430643318376E-16,-1.,0.));
#382=DIRECTION('',(0.,-1.,0.));
#383=DIRECTION('',(1.,0.,0.));
#384=DIRECTION('',(0.,0.,1.));
#385=DIRECTION('',(1.,0.,0.));
#386=DIRECTION('',(0.,-1.,0.));
#387=DIRECTION('',(1.,0.,0.));
#388=DIRECTION('',(0.,0.,1.));
#389=DIRECTION('',(1.,0.,0.));
#390=DIRECTION('',(0.,1.,0.));
#391=DIRECTION('',(1.,0.,0.));
#392=DIRECTION('',(0.,-1.,0.));
#393=DIRECTION('',(0.,1.,0.));
#394=DIRECTION('',(0.,0.,1.));
#395=DIRECTION('',(1.,0.,0.));
#396=DIRECTION('',(0.,0.,1.));
#397=DIRECTION('',(0.,0.,1.));
#398=DIRECTION('',(-1.,0.,0.));
#399=DIRECTION('',(0.,0.,-1.));
#400=DIRECTION('',(0.,0.,-1.));
#401=DIRECTION('',(-1.,0.,0.));
#402=DIRECTION('',(0.,0.,-1.));
#403=DIRECTION('',(1.,0.,0.));
#404=DIRECTION('',(0.,0.,-1.));
#405=DIRECTION('',(0.,1.,0.));
#406=DIRECTION('',(1.,0.,0.));
#407=DIRECTION('',(0.,0.,-1.));
#408=DIRECTION('',(0.,-1.,0.));
#409=DIRECTION('',(-1.,0.,0.));
#410=DIRECTION('',(0.,0.,1.));
#411=DIRECTION('',(0.,1.,0.));
#412=DIRECTION('',(0.,0.,-1.));
#413=DIRECTION('',(-1.,0.,0.));
#414=DIRECTION('',(0.,0.,-1.));
#415=DIRECTION('',(-1.,0.,0.));
#416=DIRECTION('',(0.,0.,-1.));
#417=DIRECTION('',(-1.,0.,0.));
#418=DIRECTION('',(0.,-1.,0.));
#419=DIRECTION('',(-1.,0.,0.));
#420=DIRECTION('',(0.,0.,1.));
#421=DIRECTION('',(0.,0.,1.));
#422=DIRECTION('',(1.,0.,0.));
#423=DIRECTION('',(-1.21430643318376E-16,-1.,0.));
#424=DIRECTION('',(-1.,1.21430643318377E-16,0.));
#425=DIRECTION('',(-1.21430643318377E-16,-1.,0.));
#426=DIRECTION('',(0.,0.,1.));
#427=DIRECTION('',(1.,0.,0.));
#428=DIRECTION('',(0.,0.,-1.));
#429=DIRECTION('',(-1.,0.,0.));
#430=DIRECTION('',(0.,0.,1.));
#431=DIRECTION('',(1.,0.,0.));
#432=DIRECTION('',(0.,0.,-1.));
#433=DIRECTION('',(5.20417042793042E-17,1.,0.));
#434=DIRECTION('',(0.,0.,-1.));
#435=DIRECTION('',(-1.,0.,0.));
#436=CARTESIAN_POINT('',(0.,0.,0.));
#437=CARTESIAN_POINT('',(25.,-50.,50.));
#438=CARTESIAN_POINT('',(25.,-50.,35.));
#439=CARTESIAN_POINT('',(25.,-50.,35.));
#440=CARTESIAN_POINT('',(25.,50.,35.));
#441=CARTESIAN_POINT('',(25.,-50.,50.));
#442=CARTESIAN_POINT('',(25.,-50.,0.));
#443=CARTESIAN_POINT('',(25.,-50.,0.));
#444=CARTESIAN_POINT('',(25.,50.,0.));
#445=CARTESIAN_POINT('',(25.,50.,50.));
#446=CARTESIAN_POINT('',(25.,50.,50.));
#447=CARTESIAN_POINT('',(25.,50.,35.));
#448=CARTESIAN_POINT('',(10.,50.,35.));
#449=CARTESIAN_POINT('',(25.,50.,0.));
#450=CARTESIAN_POINT('',(15.,50.,0.));
#451=CARTESIAN_POINT('',(15.,50.,10.));
#452=CARTESIAN_POINT('',(15.,50.,10.));
#453=CARTESIAN_POINT('',(-15.,50.,10.));
#454=CARTESIAN_POINT('',(-15.,50.,10.));
#455=CARTESIAN_POINT('',(-15.,50.,10.));
#456=CARTESIAN_POINT('',(-15.,50.,0.));
#457=CARTESIAN_POINT('',(25.,50.,0.));
#458=CARTESIAN_POINT('',(-25.,50.,0.));
#459=CARTESIAN_POINT('',(-25.,50.,50.));
#460=CARTESIAN_POINT('',(-25.,50.,35.));
#461=CARTESIAN_POINT('',(-25.,50.,35.));
#462=CARTESIAN_POINT('',(-10.,50.,35.));
#463=CARTESIAN_POINT('',(-10.,50.,35.));
#464=CARTESIAN_POINT('',(-10.,50.,50.));
#465=CARTESIAN_POINT('',(25.,50.,50.));
#466=CARTESIAN_POINT('',(9.99999999999999,50.,50.));
#467=CARTESIAN_POINT('',(10.,50.,35.));
#468=CARTESIAN_POINT('',(0.,0.,50.));
#469=CARTESIAN_POINT('',(0.,0.,50.));
#470=CARTESIAN_POINT('',(3.12250225675825E-16,6.,50.));
#471=CARTESIAN_POINT('',(10.,50.,50.));
#472=CARTESIAN_POINT('',(9.99999999999999,-50.,50.));
#473=CARTESIAN_POINT('',(-10.,50.,50.));
#474=CARTESIAN_POINT('',(-10.,-50.,50.));
#475=CARTESIAN_POINT('',(-25.,-50.,50.));
#476=CARTESIAN_POINT('',(0.,0.,0.));
#477=CARTESIAN_POINT('',(15.,50.,0.));
#478=CARTESIAN_POINT('',(15.,-50.,0.));
#479=CARTESIAN_POINT('',(-25.,-50.,0.));
#480=CARTESIAN_POINT('',(0.,0.,0.));
#481=CARTESIAN_POINT('',(-15.,-50.,0.));
#482=CARTESIAN_POINT('',(-15.,-50.,0.));
#483=CARTESIAN_POINT('',(-25.,-50.,0.));
#484=CARTESIAN_POINT('',(-25.,-50.,0.));
#485=CARTESIAN_POINT('',(-25.,50.,0.));
#486=CARTESIAN_POINT('',(-25.,-50.,50.));
#487=CARTESIAN_POINT('',(9.99999999999999,-50.,35.));
#488=CARTESIAN_POINT('',(9.99999999999999,-50.,35.));
#489=CARTESIAN_POINT('',(9.99999999999999,-50.,35.));
#490=CARTESIAN_POINT('',(-10.,-50.,35.));
#491=CARTESIAN_POINT('',(-10.,-50.,35.));
#492=CARTESIAN_POINT('',(-10.,-50.,35.));
#493=CARTESIAN_POINT('',(-25.,-50.,35.));
#494=CARTESIAN_POINT('',(-25.,-50.,50.));
#495=CARTESIAN_POINT('',(-15.,-50.,10.));
#496=CARTESIAN_POINT('',(-15.,-50.,10.));
#497=CARTESIAN_POINT('',(15.,-50.,10.));
#498=CARTESIAN_POINT('',(15.,-50.,10.));
#499=CARTESIAN_POINT('',(15.,-50.,10.));
#500=CARTESIAN_POINT('',(-25.,50.,50.));
#501=CARTESIAN_POINT('',(-25.,-50.,35.));
#502=CARTESIAN_POINT('',(15.,50.,10.));
#503=CARTESIAN_POINT('',(15.,50.,10.));
#504=CARTESIAN_POINT('',(-15.,-50.,10.));
#505=CARTESIAN_POINT('',(-15.,-50.,10.));
#506=CARTESIAN_POINT('',(0.,0.,10.));
#507=CARTESIAN_POINT('',(0.,-1.80555932286303E-31,10.));
#508=CARTESIAN_POINT('',(-2.5,-1.80555932286303E-31,10.));
#509=CARTESIAN_POINT('',(0.,0.,35.));
#510=CARTESIAN_POINT('',(-10.,50.,35.));
#511=CARTESIAN_POINT('',(-10.,50.,35.));
#512=CARTESIAN_POINT('',(0.,0.,35.));
#513=CARTESIAN_POINT('',(10.,50.,35.));
#514=CARTESIAN_POINT('',(10.,50.,35.));
#515=CARTESIAN_POINT('',(0.,-1.80555932286303E-31,-38.5215013215999));
#516=CARTESIAN_POINT('',(0.,-1.80555932286303E-31,45.));
#517=CARTESIAN_POINT('',(-2.5,-1.80555932286303E-31,45.));
#518=CARTESIAN_POINT('',(0.,0.,45.));
#519=CARTESIAN_POINT('',(0.,0.,45.));
#520=CARTESIAN_POINT('',(3.12250225675825E-16,6.,45.));
#521=CARTESIAN_POINT('',(0.,0.,45.));
#522=MECHANICAL_DESIGN_GEOMETRIC_PRESENTATION_REPRESENTATION('',(#323),
#523);
#523=(
GEOMETRIC_REPRESENTATION_CONTEXT(3)
GLOBAL_UNCERTAINTY_ASSIGNED_CONTEXT((#524))
GLOBAL_UNIT_ASSIGNED_CONTEXT((#527,#526,#525))
REPRESENTATION_CONTEXT('Part1','TOP_LEVEL_ASSEMBLY_PART')
);
#524=UNCERTAINTY_MEASURE_WITH_UNIT(LENGTH_MEASURE(0.005),#527,
'DISTANCE_ACCURACY_VALUE','Maximum Tolerance applied to model');
#525=(
NAMED_UNIT(*)
SI_UNIT($,.STERADIAN.)
SOLID_ANGLE_UNIT()
);
#526=(
NAMED_UNIT(*)
PLANE_ANGLE_UNIT()
SI_UNIT($,.RADIAN.)
);
#527=(
LENGTH_UNIT()
NAMED_UNIT(*)
SI_UNIT(.MILLI.,.METRE.)
);
#528=PRODUCT_DEFINITION_SHAPE('','',#529);
#529=PRODUCT_DEFINITION('','',#531,#530);
#530=PRODUCT_DEFINITION_CONTEXT('',#537,'design');
#531=PRODUCT_DEFINITION_FORMATION_WITH_SPECIFIED_SOURCE('','',#533,
 .NOT_KNOWN.);
#532=PRODUCT_RELATED_PRODUCT_CATEGORY('','',(#533));
#533=PRODUCT('Part1','Part1','Part1',(#535));
#534=PRODUCT_CATEGORY('','');
#535=PRODUCT_CONTEXT('',#537,'mechanical');
#536=APPLICATION_PROTOCOL_DEFINITION('international standard',
'automotive_design',2010,#537);
#537=APPLICATION_CONTEXT(
'core data for automotive mechanical design processes');
ENDSEC;
END-ISO-10303-21;
