ISO-10303-21;
HEADER;
/* Generated by software containing ST-Developer
 * from STEP Tools, Inc. (www.steptools.com) 
 */
/* OPTION: strings as raw bytes, not using required /X/ escapes */

FILE_DESCRIPTION(
/* description */ ('Unknown'),
/* implementation_level */ '2;1');

FILE_NAME(
/* name */ 'Part3',
/* time_stamp */ '2025-10-29T18:39:55+01:00',
/* author */ ('Unknown'),
/* organization */ ('Unknown'),
/* preprocessor_version */ 'ST-DEVELOPER v19.4',
/* originating_system */ 'Solid Edge',
/* authorisation */ 'Unknown');

FILE_SCHEMA (('AUTOMOTIVE_DESIGN {1 0 10303 214 3 1 1}'));
ENDSEC;

DATA;
#10=PROPERTY_DEFINITION_REPRESENTATION(#14,#12);
#11=PROPERTY_DEFINITION_REPRESENTATION(#15,#13);
#12=REPRESENTATION('',(#16),#1693);
#13=REPRESENTATION('',(#17),#1693);
#14=PROPERTY_DEFINITION('pmi validation property','',#1698);
#15=PROPERTY_DEFINITION('pmi validation property','',#1698);
#16=VALUE_REPRESENTATION_ITEM('number of annotations',COUNT_MEASURE(0.));
#17=VALUE_REPRESENTATION_ITEM('number of views',COUNT_MEASURE(0.));
#18=SHAPE_REPRESENTATION_RELATIONSHIP('','',#1063,#19);
#19=ADVANCED_BREP_SHAPE_REPRESENTATION('',(#1061),#1693);
#20=CYLINDRICAL_SURFACE('',#1090,10.);
#21=CYLINDRICAL_SURFACE('',#1092,15.);
#22=CYLINDRICAL_SURFACE('',#1095,5.);
#23=CYLINDRICAL_SURFACE('',#1096,5.);
#24=CYLINDRICAL_SURFACE('',#1097,5.);
#25=CYLINDRICAL_SURFACE('',#1098,5.);
#26=CYLINDRICAL_SURFACE('',#1111,2.5);
#27=CYLINDRICAL_SURFACE('',#1114,2.5);
#28=CIRCLE('',#1067,5.);
#29=CIRCLE('',#1068,5.);
#30=CIRCLE('',#1069,5.);
#31=CIRCLE('',#1070,5.);
#32=CIRCLE('',#1071,10.);
#33=CIRCLE('',#1085,5.);
#34=CIRCLE('',#1086,5.);
#35=CIRCLE('',#1087,5.);
#36=CIRCLE('',#1088,5.);
#37=CIRCLE('',#1089,15.);
#38=CIRCLE('',#1091,10.);
#39=CIRCLE('',#1093,15.);
#40=CIRCLE('',#1103,2.5);
#41=CIRCLE('',#1104,2.5);
#42=CIRCLE('',#1110,2.5);
#43=CIRCLE('',#1113,2.5);
#44=ORIENTED_EDGE('',*,*,#316,.F.);
#45=ORIENTED_EDGE('',*,*,#317,.F.);
#46=ORIENTED_EDGE('',*,*,#318,.F.);
#47=ORIENTED_EDGE('',*,*,#319,.F.);
#48=ORIENTED_EDGE('',*,*,#320,.F.);
#49=ORIENTED_EDGE('',*,*,#321,.F.);
#50=ORIENTED_EDGE('',*,*,#322,.F.);
#51=ORIENTED_EDGE('',*,*,#323,.F.);
#52=ORIENTED_EDGE('',*,*,#324,.F.);
#53=ORIENTED_EDGE('',*,*,#325,.F.);
#54=ORIENTED_EDGE('',*,*,#326,.F.);
#55=ORIENTED_EDGE('',*,*,#327,.T.);
#56=ORIENTED_EDGE('',*,*,#328,.F.);
#57=ORIENTED_EDGE('',*,*,#329,.F.);
#58=ORIENTED_EDGE('',*,*,#330,.T.);
#59=ORIENTED_EDGE('',*,*,#331,.F.);
#60=ORIENTED_EDGE('',*,*,#332,.F.);
#61=ORIENTED_EDGE('',*,*,#333,.T.);
#62=ORIENTED_EDGE('',*,*,#334,.T.);
#63=ORIENTED_EDGE('',*,*,#335,.F.);
#64=ORIENTED_EDGE('',*,*,#336,.F.);
#65=ORIENTED_EDGE('',*,*,#335,.T.);
#66=ORIENTED_EDGE('',*,*,#337,.T.);
#67=ORIENTED_EDGE('',*,*,#338,.T.);
#68=ORIENTED_EDGE('',*,*,#339,.T.);
#69=ORIENTED_EDGE('',*,*,#340,.T.);
#70=ORIENTED_EDGE('',*,*,#341,.T.);
#71=ORIENTED_EDGE('',*,*,#342,.T.);
#72=ORIENTED_EDGE('',*,*,#343,.T.);
#73=ORIENTED_EDGE('',*,*,#332,.T.);
#74=ORIENTED_EDGE('',*,*,#344,.F.);
#75=ORIENTED_EDGE('',*,*,#345,.F.);
#76=ORIENTED_EDGE('',*,*,#346,.T.);
#77=ORIENTED_EDGE('',*,*,#347,.F.);
#78=ORIENTED_EDGE('',*,*,#348,.F.);
#79=ORIENTED_EDGE('',*,*,#349,.T.);
#80=ORIENTED_EDGE('',*,*,#350,.T.);
#81=ORIENTED_EDGE('',*,*,#318,.T.);
#82=ORIENTED_EDGE('',*,*,#351,.F.);
#83=ORIENTED_EDGE('',*,*,#352,.F.);
#84=ORIENTED_EDGE('',*,*,#353,.T.);
#85=ORIENTED_EDGE('',*,*,#354,.F.);
#86=ORIENTED_EDGE('',*,*,#350,.F.);
#87=ORIENTED_EDGE('',*,*,#355,.F.);
#88=ORIENTED_EDGE('',*,*,#356,.F.);
#89=ORIENTED_EDGE('',*,*,#357,.F.);
#90=ORIENTED_EDGE('',*,*,#358,.F.);
#91=ORIENTED_EDGE('',*,*,#359,.F.);
#92=ORIENTED_EDGE('',*,*,#360,.F.);
#93=ORIENTED_EDGE('',*,*,#361,.F.);
#94=ORIENTED_EDGE('',*,*,#362,.T.);
#95=ORIENTED_EDGE('',*,*,#345,.T.);
#96=ORIENTED_EDGE('',*,*,#363,.T.);
#97=ORIENTED_EDGE('',*,*,#364,.F.);
#98=ORIENTED_EDGE('',*,*,#365,.F.);
#99=ORIENTED_EDGE('',*,*,#366,.F.);
#100=ORIENTED_EDGE('',*,*,#367,.T.);
#101=ORIENTED_EDGE('',*,*,#352,.T.);
#102=ORIENTED_EDGE('',*,*,#368,.T.);
#103=ORIENTED_EDGE('',*,*,#369,.F.);
#104=ORIENTED_EDGE('',*,*,#370,.F.);
#105=ORIENTED_EDGE('',*,*,#371,.T.);
#106=ORIENTED_EDGE('',*,*,#372,.T.);
#107=ORIENTED_EDGE('',*,*,#373,.T.);
#108=ORIENTED_EDGE('',*,*,#374,.T.);
#109=ORIENTED_EDGE('',*,*,#375,.F.);
#110=ORIENTED_EDGE('',*,*,#376,.T.);
#111=ORIENTED_EDGE('',*,*,#328,.T.);
#112=ORIENTED_EDGE('',*,*,#377,.F.);
#113=ORIENTED_EDGE('',*,*,#378,.T.);
#114=ORIENTED_EDGE('',*,*,#379,.T.);
#115=ORIENTED_EDGE('',*,*,#329,.T.);
#116=ORIENTED_EDGE('',*,*,#346,.F.);
#117=ORIENTED_EDGE('',*,*,#362,.F.);
#118=ORIENTED_EDGE('',*,*,#380,.F.);
#119=ORIENTED_EDGE('',*,*,#381,.F.);
#120=ORIENTED_EDGE('',*,*,#382,.T.);
#121=ORIENTED_EDGE('',*,*,#368,.F.);
#122=ORIENTED_EDGE('',*,*,#351,.T.);
#123=ORIENTED_EDGE('',*,*,#317,.T.);
#124=ORIENTED_EDGE('',*,*,#383,.F.);
#125=ORIENTED_EDGE('',*,*,#384,.F.);
#126=ORIENTED_EDGE('',*,*,#385,.T.);
#127=ORIENTED_EDGE('',*,*,#319,.T.);
#128=ORIENTED_EDGE('',*,*,#353,.F.);
#129=ORIENTED_EDGE('',*,*,#367,.F.);
#130=ORIENTED_EDGE('',*,*,#386,.F.);
#131=ORIENTED_EDGE('',*,*,#387,.F.);
#132=ORIENTED_EDGE('',*,*,#388,.T.);
#133=ORIENTED_EDGE('',*,*,#363,.F.);
#134=ORIENTED_EDGE('',*,*,#344,.T.);
#135=ORIENTED_EDGE('',*,*,#331,.T.);
#136=ORIENTED_EDGE('',*,*,#389,.F.);
#137=ORIENTED_EDGE('',*,*,#390,.T.);
#138=ORIENTED_EDGE('',*,*,#391,.T.);
#139=ORIENTED_EDGE('',*,*,#326,.T.);
#140=ORIENTED_EDGE('',*,*,#392,.F.);
#141=ORIENTED_EDGE('',*,*,#372,.F.);
#142=ORIENTED_EDGE('',*,*,#393,.F.);
#143=ORIENTED_EDGE('',*,*,#394,.T.);
#144=ORIENTED_EDGE('',*,*,#395,.T.);
#145=ORIENTED_EDGE('',*,*,#373,.F.);
#146=ORIENTED_EDGE('',*,*,#395,.F.);
#147=ORIENTED_EDGE('',*,*,#396,.T.);
#148=ORIENTED_EDGE('',*,*,#397,.T.);
#149=ORIENTED_EDGE('',*,*,#374,.F.);
#150=ORIENTED_EDGE('',*,*,#397,.F.);
#151=ORIENTED_EDGE('',*,*,#398,.T.);
#152=ORIENTED_EDGE('',*,*,#399,.T.);
#153=ORIENTED_EDGE('',*,*,#371,.F.);
#154=ORIENTED_EDGE('',*,*,#399,.F.);
#155=ORIENTED_EDGE('',*,*,#400,.T.);
#156=ORIENTED_EDGE('',*,*,#393,.T.);
#157=ORIENTED_EDGE('',*,*,#401,.T.);
#158=ORIENTED_EDGE('',*,*,#402,.T.);
#159=ORIENTED_EDGE('',*,*,#403,.T.);
#160=ORIENTED_EDGE('',*,*,#404,.T.);
#161=ORIENTED_EDGE('',*,*,#405,.T.);
#162=ORIENTED_EDGE('',*,*,#394,.F.);
#163=ORIENTED_EDGE('',*,*,#400,.F.);
#164=ORIENTED_EDGE('',*,*,#398,.F.);
#165=ORIENTED_EDGE('',*,*,#396,.F.);
#166=ORIENTED_EDGE('',*,*,#406,.F.);
#167=ORIENTED_EDGE('',*,*,#324,.T.);
#168=ORIENTED_EDGE('',*,*,#407,.T.);
#169=ORIENTED_EDGE('',*,*,#405,.F.);
#170=ORIENTED_EDGE('',*,*,#406,.T.);
#171=ORIENTED_EDGE('',*,*,#407,.F.);
#172=ORIENTED_EDGE('',*,*,#404,.F.);
#173=ORIENTED_EDGE('',*,*,#323,.T.);
#174=ORIENTED_EDGE('',*,*,#403,.F.);
#175=ORIENTED_EDGE('',*,*,#322,.T.);
#176=ORIENTED_EDGE('',*,*,#402,.F.);
#177=ORIENTED_EDGE('',*,*,#321,.T.);
#178=ORIENTED_EDGE('',*,*,#401,.F.);
#179=ORIENTED_EDGE('',*,*,#320,.T.);
#180=ORIENTED_EDGE('',*,*,#408,.T.);
#181=ORIENTED_EDGE('',*,*,#387,.T.);
#182=ORIENTED_EDGE('',*,*,#409,.T.);
#183=ORIENTED_EDGE('',*,*,#410,.T.);
#184=ORIENTED_EDGE('',*,*,#364,.T.);
#185=ORIENTED_EDGE('',*,*,#388,.F.);
#186=ORIENTED_EDGE('',*,*,#408,.F.);
#187=ORIENTED_EDGE('',*,*,#411,.T.);
#188=ORIENTED_EDGE('',*,*,#366,.T.);
#189=ORIENTED_EDGE('',*,*,#412,.F.);
#190=ORIENTED_EDGE('',*,*,#409,.F.);
#191=ORIENTED_EDGE('',*,*,#386,.T.);
#192=ORIENTED_EDGE('',*,*,#413,.T.);
#193=ORIENTED_EDGE('',*,*,#414,.T.);
#194=ORIENTED_EDGE('',*,*,#365,.T.);
#195=ORIENTED_EDGE('',*,*,#411,.F.);
#196=ORIENTED_EDGE('',*,*,#410,.F.);
#197=ORIENTED_EDGE('',*,*,#412,.T.);
#198=ORIENTED_EDGE('',*,*,#415,.T.);
#199=ORIENTED_EDGE('',*,*,#416,.T.);
#200=ORIENTED_EDGE('',*,*,#417,.T.);
#201=ORIENTED_EDGE('',*,*,#381,.T.);
#202=ORIENTED_EDGE('',*,*,#370,.T.);
#203=ORIENTED_EDGE('',*,*,#418,.F.);
#204=ORIENTED_EDGE('',*,*,#416,.F.);
#205=ORIENTED_EDGE('',*,*,#419,.T.);
#206=ORIENTED_EDGE('',*,*,#369,.T.);
#207=ORIENTED_EDGE('',*,*,#382,.F.);
#208=ORIENTED_EDGE('',*,*,#417,.F.);
#209=ORIENTED_EDGE('',*,*,#418,.T.);
#210=ORIENTED_EDGE('',*,*,#361,.T.);
#211=ORIENTED_EDGE('',*,*,#419,.F.);
#212=ORIENTED_EDGE('',*,*,#415,.F.);
#213=ORIENTED_EDGE('',*,*,#380,.T.);
#214=ORIENTED_EDGE('',*,*,#420,.F.);
#215=ORIENTED_EDGE('',*,*,#420,.T.);
#216=ORIENTED_EDGE('',*,*,#414,.F.);
#217=ORIENTED_EDGE('',*,*,#421,.F.);
#218=ORIENTED_EDGE('',*,*,#421,.T.);
#219=ORIENTED_EDGE('',*,*,#413,.F.);
#220=ORIENTED_EDGE('',*,*,#355,.T.);
#221=ORIENTED_EDGE('',*,*,#349,.F.);
#222=ORIENTED_EDGE('',*,*,#422,.F.);
#223=ORIENTED_EDGE('',*,*,#423,.T.);
#224=ORIENTED_EDGE('',*,*,#424,.F.);
#225=ORIENTED_EDGE('',*,*,#425,.T.);
#226=ORIENTED_EDGE('',*,*,#358,.T.);
#227=ORIENTED_EDGE('',*,*,#426,.F.);
#228=ORIENTED_EDGE('',*,*,#357,.T.);
#229=ORIENTED_EDGE('',*,*,#427,.F.);
#230=ORIENTED_EDGE('',*,*,#428,.F.);
#231=ORIENTED_EDGE('',*,*,#426,.T.);
#232=ORIENTED_EDGE('',*,*,#356,.T.);
#233=ORIENTED_EDGE('',*,*,#423,.F.);
#234=ORIENTED_EDGE('',*,*,#429,.F.);
#235=ORIENTED_EDGE('',*,*,#427,.T.);
#236=ORIENTED_EDGE('',*,*,#422,.T.);
#237=ORIENTED_EDGE('',*,*,#348,.T.);
#238=ORIENTED_EDGE('',*,*,#430,.T.);
#239=ORIENTED_EDGE('',*,*,#431,.T.);
#240=ORIENTED_EDGE('',*,*,#432,.T.);
#241=ORIENTED_EDGE('',*,*,#424,.T.);
#242=ORIENTED_EDGE('',*,*,#428,.T.);
#243=ORIENTED_EDGE('',*,*,#429,.T.);
#244=ORIENTED_EDGE('',*,*,#354,.T.);
#245=ORIENTED_EDGE('',*,*,#433,.F.);
#246=ORIENTED_EDGE('',*,*,#430,.F.);
#247=ORIENTED_EDGE('',*,*,#347,.T.);
#248=ORIENTED_EDGE('',*,*,#360,.T.);
#249=ORIENTED_EDGE('',*,*,#434,.F.);
#250=ORIENTED_EDGE('',*,*,#431,.F.);
#251=ORIENTED_EDGE('',*,*,#433,.T.);
#252=ORIENTED_EDGE('',*,*,#359,.T.);
#253=ORIENTED_EDGE('',*,*,#425,.F.);
#254=ORIENTED_EDGE('',*,*,#432,.F.);
#255=ORIENTED_EDGE('',*,*,#434,.T.);
#256=ORIENTED_EDGE('',*,*,#435,.F.);
#257=ORIENTED_EDGE('',*,*,#436,.T.);
#258=ORIENTED_EDGE('',*,*,#437,.T.);
#259=ORIENTED_EDGE('',*,*,#340,.F.);
#260=ORIENTED_EDGE('',*,*,#341,.F.);
#261=ORIENTED_EDGE('',*,*,#437,.F.);
#262=ORIENTED_EDGE('',*,*,#438,.T.);
#263=ORIENTED_EDGE('',*,*,#439,.T.);
#264=ORIENTED_EDGE('',*,*,#342,.F.);
#265=ORIENTED_EDGE('',*,*,#439,.F.);
#266=ORIENTED_EDGE('',*,*,#440,.T.);
#267=ORIENTED_EDGE('',*,*,#441,.T.);
#268=ORIENTED_EDGE('',*,*,#343,.F.);
#269=ORIENTED_EDGE('',*,*,#441,.F.);
#270=ORIENTED_EDGE('',*,*,#442,.T.);
#271=ORIENTED_EDGE('',*,*,#336,.T.);
#272=ORIENTED_EDGE('',*,*,#333,.F.);
#273=ORIENTED_EDGE('',*,*,#442,.F.);
#274=ORIENTED_EDGE('',*,*,#440,.F.);
#275=ORIENTED_EDGE('',*,*,#438,.F.);
#276=ORIENTED_EDGE('',*,*,#436,.F.);
#277=ORIENTED_EDGE('',*,*,#443,.F.);
#278=ORIENTED_EDGE('',*,*,#444,.F.);
#279=ORIENTED_EDGE('',*,*,#445,.F.);
#280=ORIENTED_EDGE('',*,*,#338,.F.);
#281=ORIENTED_EDGE('',*,*,#446,.F.);
#282=ORIENTED_EDGE('',*,*,#444,.T.);
#283=ORIENTED_EDGE('',*,*,#447,.T.);
#284=ORIENTED_EDGE('',*,*,#339,.F.);
#285=ORIENTED_EDGE('',*,*,#447,.F.);
#286=ORIENTED_EDGE('',*,*,#443,.T.);
#287=ORIENTED_EDGE('',*,*,#435,.T.);
#288=ORIENTED_EDGE('',*,*,#337,.F.);
#289=ORIENTED_EDGE('',*,*,#334,.F.);
#290=ORIENTED_EDGE('',*,*,#445,.T.);
#291=ORIENTED_EDGE('',*,*,#446,.T.);
#292=ORIENTED_EDGE('',*,*,#390,.F.);
#293=ORIENTED_EDGE('',*,*,#448,.F.);
#294=ORIENTED_EDGE('',*,*,#378,.F.);
#295=ORIENTED_EDGE('',*,*,#449,.F.);
#296=ORIENTED_EDGE('',*,*,#327,.F.);
#297=ORIENTED_EDGE('',*,*,#391,.F.);
#298=ORIENTED_EDGE('',*,*,#449,.T.);
#299=ORIENTED_EDGE('',*,*,#377,.T.);
#300=ORIENTED_EDGE('',*,*,#330,.F.);
#301=ORIENTED_EDGE('',*,*,#379,.F.);
#302=ORIENTED_EDGE('',*,*,#448,.T.);
#303=ORIENTED_EDGE('',*,*,#389,.T.);
#304=ORIENTED_EDGE('',*,*,#375,.T.);
#305=ORIENTED_EDGE('',*,*,#450,.T.);
#306=ORIENTED_EDGE('',*,*,#384,.T.);
#307=ORIENTED_EDGE('',*,*,#451,.T.);
#308=ORIENTED_EDGE('',*,*,#316,.T.);
#309=ORIENTED_EDGE('',*,*,#385,.F.);
#310=ORIENTED_EDGE('',*,*,#450,.F.);
#311=ORIENTED_EDGE('',*,*,#383,.T.);
#312=ORIENTED_EDGE('',*,*,#325,.T.);
#313=ORIENTED_EDGE('',*,*,#376,.F.);
#314=ORIENTED_EDGE('',*,*,#451,.F.);
#315=ORIENTED_EDGE('',*,*,#392,.T.);
#316=EDGE_CURVE('',#452,#453,#548,.T.);
#317=EDGE_CURVE('',#454,#452,#549,.T.);
#318=EDGE_CURVE('',#455,#454,#550,.T.);
#319=EDGE_CURVE('',#453,#455,#551,.T.);
#320=EDGE_CURVE('',#456,#456,#28,.F.);
#321=EDGE_CURVE('',#457,#457,#29,.F.);
#322=EDGE_CURVE('',#458,#458,#30,.F.);
#323=EDGE_CURVE('',#459,#459,#31,.F.);
#324=EDGE_CURVE('',#460,#460,#32,.F.);
#325=EDGE_CURVE('',#461,#462,#552,.T.);
#326=EDGE_CURVE('',#463,#461,#553,.T.);
#327=EDGE_CURVE('',#463,#464,#554,.T.);
#328=EDGE_CURVE('',#462,#464,#555,.T.);
#329=EDGE_CURVE('',#465,#466,#556,.T.);
#330=EDGE_CURVE('',#465,#467,#557,.T.);
#331=EDGE_CURVE('',#468,#467,#558,.T.);
#332=EDGE_CURVE('',#466,#468,#559,.T.);
#333=EDGE_CURVE('',#469,#470,#560,.T.);
#334=EDGE_CURVE('',#470,#471,#561,.T.);
#335=EDGE_CURVE('',#472,#471,#562,.T.);
#336=EDGE_CURVE('',#469,#472,#563,.T.);
#337=EDGE_CURVE('',#471,#473,#564,.T.);
#338=EDGE_CURVE('',#473,#474,#565,.T.);
#339=EDGE_CURVE('',#474,#475,#566,.T.);
#340=EDGE_CURVE('',#475,#476,#567,.T.);
#341=EDGE_CURVE('',#476,#477,#568,.T.);
#342=EDGE_CURVE('',#477,#478,#569,.T.);
#343=EDGE_CURVE('',#478,#472,#570,.T.);
#344=EDGE_CURVE('',#479,#468,#571,.T.);
#345=EDGE_CURVE('',#480,#479,#572,.T.);
#346=EDGE_CURVE('',#480,#466,#573,.T.);
#347=EDGE_CURVE('',#481,#482,#574,.T.);
#348=EDGE_CURVE('',#483,#481,#575,.T.);
#349=EDGE_CURVE('',#483,#484,#576,.T.);
#350=EDGE_CURVE('',#484,#482,#577,.T.);
#351=EDGE_CURVE('',#485,#454,#578,.T.);
#352=EDGE_CURVE('',#486,#485,#579,.T.);
#353=EDGE_CURVE('',#486,#455,#580,.T.);
#354=EDGE_CURVE('',#482,#487,#581,.T.);
#355=EDGE_CURVE('',#488,#484,#582,.T.);
#356=EDGE_CURVE('',#489,#488,#583,.T.);
#357=EDGE_CURVE('',#490,#489,#584,.T.);
#358=EDGE_CURVE('',#491,#490,#585,.T.);
#359=EDGE_CURVE('',#492,#491,#586,.T.);
#360=EDGE_CURVE('',#487,#492,#587,.T.);
#361=EDGE_CURVE('',#493,#494,#588,.T.);
#362=EDGE_CURVE('',#493,#480,#589,.T.);
#363=EDGE_CURVE('',#479,#495,#590,.T.);
#364=EDGE_CURVE('',#496,#495,#591,.T.);
#365=EDGE_CURVE('',#497,#496,#592,.T.);
#366=EDGE_CURVE('',#498,#497,#593,.T.);
#367=EDGE_CURVE('',#498,#486,#594,.T.);
#368=EDGE_CURVE('',#485,#499,#595,.T.);
#369=EDGE_CURVE('',#500,#499,#596,.T.);
#370=EDGE_CURVE('',#494,#500,#597,.T.);
#371=EDGE_CURVE('',#501,#502,#598,.T.);
#372=EDGE_CURVE('',#502,#503,#599,.T.);
#373=EDGE_CURVE('',#503,#504,#600,.T.);
#374=EDGE_CURVE('',#504,#501,#601,.T.);
#375=EDGE_CURVE('',#505,#506,#602,.T.);
#376=EDGE_CURVE('',#505,#462,#603,.T.);
#377=EDGE_CURVE('',#507,#464,#604,.T.);
#378=EDGE_CURVE('',#507,#508,#605,.T.);
#379=EDGE_CURVE('',#508,#465,#606,.T.);
#380=EDGE_CURVE('',#509,#493,#607,.T.);
#381=EDGE_CURVE('',#510,#509,#608,.T.);
#382=EDGE_CURVE('',#510,#499,#609,.T.);
#383=EDGE_CURVE('',#506,#452,#610,.T.);
#384=EDGE_CURVE('',#511,#512,#611,.T.);
#385=EDGE_CURVE('',#511,#453,#612,.T.);
#386=EDGE_CURVE('',#513,#498,#613,.T.);
#387=EDGE_CURVE('',#514,#513,#614,.T.);
#388=EDGE_CURVE('',#514,#495,#615,.T.);
#389=EDGE_CURVE('',#515,#467,#616,.T.);
#390=EDGE_CURVE('',#515,#516,#617,.T.);
#391=EDGE_CURVE('',#516,#463,#618,.T.);
#392=EDGE_CURVE('',#512,#461,#619,.T.);
#393=EDGE_CURVE('',#517,#502,#620,.T.);
#394=EDGE_CURVE('',#517,#518,#621,.T.);
#395=EDGE_CURVE('',#518,#503,#622,.T.);
#396=EDGE_CURVE('',#518,#519,#623,.T.);
#397=EDGE_CURVE('',#519,#504,#624,.T.);
#398=EDGE_CURVE('',#519,#520,#625,.T.);
#399=EDGE_CURVE('',#520,#501,#626,.T.);
#400=EDGE_CURVE('',#520,#517,#627,.T.);
#401=EDGE_CURVE('',#521,#521,#33,.T.);
#402=EDGE_CURVE('',#522,#522,#34,.T.);
#403=EDGE_CURVE('',#523,#523,#35,.T.);
#404=EDGE_CURVE('',#524,#524,#36,.T.);
#405=EDGE_CURVE('',#525,#525,#37,.T.);
#406=EDGE_CURVE('',#526,#526,#38,.T.);
#407=EDGE_CURVE('',#527,#527,#39,.T.);
#408=EDGE_CURVE('',#528,#514,#628,.T.);
#409=EDGE_CURVE('',#513,#529,#629,.T.);
#410=EDGE_CURVE('',#529,#528,#630,.T.);
#411=EDGE_CURVE('',#528,#496,#631,.T.);
#412=EDGE_CURVE('',#529,#497,#632,.T.);
#413=EDGE_CURVE('',#530,#530,#40,.T.);
#414=EDGE_CURVE('',#531,#531,#41,.T.);
#415=EDGE_CURVE('',#509,#532,#633,.T.);
#416=EDGE_CURVE('',#532,#533,#634,.T.);
#417=EDGE_CURVE('',#533,#510,#635,.T.);
#418=EDGE_CURVE('',#533,#500,#636,.T.);
#419=EDGE_CURVE('',#532,#494,#637,.T.);
#420=EDGE_CURVE('',#534,#534,#42,.T.);
#421=EDGE_CURVE('',#535,#535,#43,.T.);
#422=EDGE_CURVE('',#536,#483,#638,.T.);
#423=EDGE_CURVE('',#536,#488,#639,.T.);
#424=EDGE_CURVE('',#537,#538,#640,.T.);
#425=EDGE_CURVE('',#537,#491,#641,.T.);
#426=EDGE_CURVE('',#538,#490,#642,.T.);
#427=EDGE_CURVE('',#539,#489,#643,.T.);
#428=EDGE_CURVE('',#538,#539,#644,.T.);
#429=EDGE_CURVE('',#539,#536,#645,.T.);
#430=EDGE_CURVE('',#481,#540,#646,.T.);
#431=EDGE_CURVE('',#540,#541,#647,.T.);
#432=EDGE_CURVE('',#541,#537,#648,.T.);
#433=EDGE_CURVE('',#540,#487,#649,.T.);
#434=EDGE_CURVE('',#541,#492,#650,.T.);
#435=EDGE_CURVE('',#542,#475,#651,.T.);
#436=EDGE_CURVE('',#542,#543,#652,.T.);
#437=EDGE_CURVE('',#543,#476,#653,.T.);
#438=EDGE_CURVE('',#543,#544,#654,.T.);
#439=EDGE_CURVE('',#544,#477,#655,.T.);
#440=EDGE_CURVE('',#544,#545,#656,.T.);
#441=EDGE_CURVE('',#545,#478,#657,.T.);
#442=EDGE_CURVE('',#545,#469,#658,.T.);
#443=EDGE_CURVE('',#546,#542,#659,.T.);
#444=EDGE_CURVE('',#547,#546,#660,.T.);
#445=EDGE_CURVE('',#470,#547,#661,.T.);
#446=EDGE_CURVE('',#547,#473,#662,.T.);
#447=EDGE_CURVE('',#546,#474,#663,.T.);
#448=EDGE_CURVE('',#508,#515,#664,.T.);
#449=EDGE_CURVE('',#516,#507,#665,.T.);
#450=EDGE_CURVE('',#506,#511,#666,.T.);
#451=EDGE_CURVE('',#512,#505,#667,.T.);
#452=VERTEX_POINT('',#1406);
#453=VERTEX_POINT('',#1407);
#454=VERTEX_POINT('',#1409);
#455=VERTEX_POINT('',#1411);
#456=VERTEX_POINT('',#1415);
#457=VERTEX_POINT('',#1417);
#458=VERTEX_POINT('',#1419);
#459=VERTEX_POINT('',#1421);
#460=VERTEX_POINT('',#1423);
#461=VERTEX_POINT('',#1425);
#462=VERTEX_POINT('',#1426);
#463=VERTEX_POINT('',#1428);
#464=VERTEX_POINT('',#1430);
#465=VERTEX_POINT('',#1434);
#466=VERTEX_POINT('',#1435);
#467=VERTEX_POINT('',#1437);
#468=VERTEX_POINT('',#1439);
#469=VERTEX_POINT('',#1443);
#470=VERTEX_POINT('',#1444);
#471=VERTEX_POINT('',#1446);
#472=VERTEX_POINT('',#1448);
#473=VERTEX_POINT('',#1452);
#474=VERTEX_POINT('',#1454);
#475=VERTEX_POINT('',#1456);
#476=VERTEX_POINT('',#1458);
#477=VERTEX_POINT('',#1460);
#478=VERTEX_POINT('',#1462);
#479=VERTEX_POINT('',#1465);
#480=VERTEX_POINT('',#1467);
#481=VERTEX_POINT('',#1471);
#482=VERTEX_POINT('',#1472);
#483=VERTEX_POINT('',#1474);
#484=VERTEX_POINT('',#1476);
#485=VERTEX_POINT('',#1480);
#486=VERTEX_POINT('',#1482);
#487=VERTEX_POINT('',#1485);
#488=VERTEX_POINT('',#1487);
#489=VERTEX_POINT('',#1489);
#490=VERTEX_POINT('',#1491);
#491=VERTEX_POINT('',#1493);
#492=VERTEX_POINT('',#1495);
#493=VERTEX_POINT('',#1499);
#494=VERTEX_POINT('',#1500);
#495=VERTEX_POINT('',#1503);
#496=VERTEX_POINT('',#1505);
#497=VERTEX_POINT('',#1507);
#498=VERTEX_POINT('',#1509);
#499=VERTEX_POINT('',#1512);
#500=VERTEX_POINT('',#1514);
#501=VERTEX_POINT('',#1517);
#502=VERTEX_POINT('',#1518);
#503=VERTEX_POINT('',#1520);
#504=VERTEX_POINT('',#1522);
#505=VERTEX_POINT('',#1526);
#506=VERTEX_POINT('',#1527);
#507=VERTEX_POINT('',#1530);
#508=VERTEX_POINT('',#1532);
#509=VERTEX_POINT('',#1535);
#510=VERTEX_POINT('',#1537);
#511=VERTEX_POINT('',#1542);
#512=VERTEX_POINT('',#1543);
#513=VERTEX_POINT('',#1546);
#514=VERTEX_POINT('',#1548);
#515=VERTEX_POINT('',#1551);
#516=VERTEX_POINT('',#1553);
#517=VERTEX_POINT('',#1558);
#518=VERTEX_POINT('',#1560);
#519=VERTEX_POINT('',#1564);
#520=VERTEX_POINT('',#1568);
#521=VERTEX_POINT('',#1574);
#522=VERTEX_POINT('',#1576);
#523=VERTEX_POINT('',#1578);
#524=VERTEX_POINT('',#1580);
#525=VERTEX_POINT('',#1582);
#526=VERTEX_POINT('',#1585);
#527=VERTEX_POINT('',#1588);
#528=VERTEX_POINT('',#1596);
#529=VERTEX_POINT('',#1598);
#530=VERTEX_POINT('',#1606);
#531=VERTEX_POINT('',#1608);
#532=VERTEX_POINT('',#1611);
#533=VERTEX_POINT('',#1613);
#534=VERTEX_POINT('',#1622);
#535=VERTEX_POINT('',#1626);
#536=VERTEX_POINT('',#1630);
#537=VERTEX_POINT('',#1634);
#538=VERTEX_POINT('',#1635);
#539=VERTEX_POINT('',#1640);
#540=VERTEX_POINT('',#1646);
#541=VERTEX_POINT('',#1648);
#542=VERTEX_POINT('',#1657);
#543=VERTEX_POINT('',#1659);
#544=VERTEX_POINT('',#1663);
#545=VERTEX_POINT('',#1667);
#546=VERTEX_POINT('',#1673);
#547=VERTEX_POINT('',#1675);
#548=LINE('',#1405,#668);
#549=LINE('',#1408,#669);
#550=LINE('',#1410,#670);
#551=LINE('',#1412,#671);
#552=LINE('',#1424,#672);
#553=LINE('',#1427,#673);
#554=LINE('',#1429,#674);
#555=LINE('',#1431,#675);
#556=LINE('',#1433,#676);
#557=LINE('',#1436,#677);
#558=LINE('',#1438,#678);
#559=LINE('',#1440,#679);
#560=LINE('',#1442,#680);
#561=LINE('',#1445,#681);
#562=LINE('',#1447,#682);
#563=LINE('',#1449,#683);
#564=LINE('',#1451,#684);
#565=LINE('',#1453,#685);
#566=LINE('',#1455,#686);
#567=LINE('',#1457,#687);
#568=LINE('',#1459,#688);
#569=LINE('',#1461,#689);
#570=LINE('',#1463,#690);
#571=LINE('',#1464,#691);
#572=LINE('',#1466,#692);
#573=LINE('',#1468,#693);
#574=LINE('',#1470,#694);
#575=LINE('',#1473,#695);
#576=LINE('',#1475,#696);
#577=LINE('',#1477,#697);
#578=LINE('',#1479,#698);
#579=LINE('',#1481,#699);
#580=LINE('',#1483,#700);
#581=LINE('',#1484,#701);
#582=LINE('',#1486,#702);
#583=LINE('',#1488,#703);
#584=LINE('',#1490,#704);
#585=LINE('',#1492,#705);
#586=LINE('',#1494,#706);
#587=LINE('',#1496,#707);
#588=LINE('',#1498,#708);
#589=LINE('',#1501,#709);
#590=LINE('',#1502,#710);
#591=LINE('',#1504,#711);
#592=LINE('',#1506,#712);
#593=LINE('',#1508,#713);
#594=LINE('',#1510,#714);
#595=LINE('',#1511,#715);
#596=LINE('',#1513,#716);
#597=LINE('',#1515,#717);
#598=LINE('',#1516,#718);
#599=LINE('',#1519,#719);
#600=LINE('',#1521,#720);
#601=LINE('',#1523,#721);
#602=LINE('',#1525,#722);
#603=LINE('',#1528,#723);
#604=LINE('',#1529,#724);
#605=LINE('',#1531,#725);
#606=LINE('',#1533,#726);
#607=LINE('',#1534,#727);
#608=LINE('',#1536,#728);
#609=LINE('',#1538,#729);
#610=LINE('',#1539,#730);
#611=LINE('',#1541,#731);
#612=LINE('',#1544,#732);
#613=LINE('',#1545,#733);
#614=LINE('',#1547,#734);
#615=LINE('',#1549,#735);
#616=LINE('',#1550,#736);
#617=LINE('',#1552,#737);
#618=LINE('',#1554,#738);
#619=LINE('',#1555,#739);
#620=LINE('',#1557,#740);
#621=LINE('',#1559,#741);
#622=LINE('',#1561,#742);
#623=LINE('',#1563,#743);
#624=LINE('',#1565,#744);
#625=LINE('',#1567,#745);
#626=LINE('',#1569,#746);
#627=LINE('',#1571,#747);
#628=LINE('',#1595,#748);
#629=LINE('',#1597,#749);
#630=LINE('',#1599,#750);
#631=LINE('',#1601,#751);
#632=LINE('',#1603,#752);
#633=LINE('',#1610,#753);
#634=LINE('',#1612,#754);
#635=LINE('',#1614,#755);
#636=LINE('',#1616,#756);
#637=LINE('',#1617,#757);
#638=LINE('',#1629,#758);
#639=LINE('',#1631,#759);
#640=LINE('',#1633,#760);
#641=LINE('',#1636,#761);
#642=LINE('',#1637,#762);
#643=LINE('',#1639,#763);
#644=LINE('',#1641,#764);
#645=LINE('',#1643,#765);
#646=LINE('',#1645,#766);
#647=LINE('',#1647,#767);
#648=LINE('',#1649,#768);
#649=LINE('',#1651,#769);
#650=LINE('',#1653,#770);
#651=LINE('',#1656,#771);
#652=LINE('',#1658,#772);
#653=LINE('',#1660,#773);
#654=LINE('',#1662,#774);
#655=LINE('',#1664,#775);
#656=LINE('',#1666,#776);
#657=LINE('',#1668,#777);
#658=LINE('',#1670,#778);
#659=LINE('',#1672,#779);
#660=LINE('',#1674,#780);
#661=LINE('',#1676,#781);
#662=LINE('',#1678,#782);
#663=LINE('',#1679,#783);
#664=LINE('',#1683,#784);
#665=LINE('',#1684,#785);
#666=LINE('',#1688,#786);
#667=LINE('',#1689,#787);
#668=VECTOR('',#1141,1000.);
#669=VECTOR('',#1142,1000.);
#670=VECTOR('',#1143,1000.);
#671=VECTOR('',#1144,1000.);
#672=VECTOR('',#1157,1000.);
#673=VECTOR('',#1158,1000.);
#674=VECTOR('',#1159,1000.);
#675=VECTOR('',#1160,1000.);
#676=VECTOR('',#1163,1000.);
#677=VECTOR('',#1164,1000.);
#678=VECTOR('',#1165,1000.);
#679=VECTOR('',#1166,1000.);
#680=VECTOR('',#1169,1000.);
#681=VECTOR('',#1170,1000.);
#682=VECTOR('',#1171,1000.);
#683=VECTOR('',#1172,1000.);
#684=VECTOR('',#1175,1000.);
#685=VECTOR('',#1176,1000.);
#686=VECTOR('',#1177,1000.);
#687=VECTOR('',#1178,1000.);
#688=VECTOR('',#1179,1000.);
#689=VECTOR('',#1180,1000.);
#690=VECTOR('',#1181,1000.);
#691=VECTOR('',#1182,1000.);
#692=VECTOR('',#1183,1000.);
#693=VECTOR('',#1184,1000.);
#694=VECTOR('',#1187,1000.);
#695=VECTOR('',#1188,1000.);
#696=VECTOR('',#1189,1000.);
#697=VECTOR('',#1190,1000.);
#698=VECTOR('',#1193,1000.);
#699=VECTOR('',#1194,1000.);
#700=VECTOR('',#1195,1000.);
#701=VECTOR('',#1196,1000.);
#702=VECTOR('',#1197,1000.);
#703=VECTOR('',#1198,1000.);
#704=VECTOR('',#1199,1000.);
#705=VECTOR('',#1200,1000.);
#706=VECTOR('',#1201,1000.);
#707=VECTOR('',#1202,1000.);
#708=VECTOR('',#1205,1000.);
#709=VECTOR('',#1206,1000.);
#710=VECTOR('',#1207,1000.);
#711=VECTOR('',#1208,1000.);
#712=VECTOR('',#1209,1000.);
#713=VECTOR('',#1210,1000.);
#714=VECTOR('',#1211,1000.);
#715=VECTOR('',#1212,1000.);
#716=VECTOR('',#1213,1000.);
#717=VECTOR('',#1214,1000.);
#718=VECTOR('',#1215,1000.);
#719=VECTOR('',#1216,1000.);
#720=VECTOR('',#1217,1000.);
#721=VECTOR('',#1218,1000.);
#722=VECTOR('',#1221,1000.);
#723=VECTOR('',#1222,1000.);
#724=VECTOR('',#1223,1000.);
#725=VECTOR('',#1224,1000.);
#726=VECTOR('',#1225,1000.);
#727=VECTOR('',#1226,1000.);
#728=VECTOR('',#1227,1000.);
#729=VECTOR('',#1228,1000.);
#730=VECTOR('',#1229,1000.);
#731=VECTOR('',#1232,1000.);
#732=VECTOR('',#1233,1000.);
#733=VECTOR('',#1234,1000.);
#734=VECTOR('',#1235,1000.);
#735=VECTOR('',#1236,1000.);
#736=VECTOR('',#1237,1000.);
#737=VECTOR('',#1238,1000.);
#738=VECTOR('',#1239,1000.);
#739=VECTOR('',#1240,1000.);
#740=VECTOR('',#1243,1000.);
#741=VECTOR('',#1244,1000.);
#742=VECTOR('',#1245,1000.);
#743=VECTOR('',#1248,1000.);
#744=VECTOR('',#1249,1000.);
#745=VECTOR('',#1252,1000.);
#746=VECTOR('',#1253,1000.);
#747=VECTOR('',#1256,1000.);
#748=VECTOR('',#1289,1000.);
#749=VECTOR('',#1290,1000.);
#750=VECTOR('',#1291,1000.);
#751=VECTOR('',#1294,1000.);
#752=VECTOR('',#1297,1000.);
#753=VECTOR('',#1306,1000.);
#754=VECTOR('',#1307,1000.);
#755=VECTOR('',#1308,1000.);
#756=VECTOR('',#1311,1000.);
#757=VECTOR('',#1312,1000.);
#758=VECTOR('',#1331,1000.);
#759=VECTOR('',#1332,1000.);
#760=VECTOR('',#1335,1000.);
#761=VECTOR('',#1336,1000.);
#762=VECTOR('',#1337,1000.);
#763=VECTOR('',#1340,1000.);
#764=VECTOR('',#1341,1000.);
#765=VECTOR('',#1344,1000.);
#766=VECTOR('',#1347,1000.);
#767=VECTOR('',#1348,1000.);
#768=VECTOR('',#1349,1000.);
#769=VECTOR('',#1352,1000.);
#770=VECTOR('',#1355,1000.);
#771=VECTOR('',#1360,1000.);
#772=VECTOR('',#1361,1000.);
#773=VECTOR('',#1362,1000.);
#774=VECTOR('',#1365,1000.);
#775=VECTOR('',#1366,1000.);
#776=VECTOR('',#1369,1000.);
#777=VECTOR('',#1370,1000.);
#778=VECTOR('',#1373,1000.);
#779=VECTOR('',#1376,1000.);
#780=VECTOR('',#1377,1000.);
#781=VECTOR('',#1378,1000.);
#782=VECTOR('',#1381,1000.);
#783=VECTOR('',#1382,1000.);
#784=VECTOR('',#1389,1000.);
#785=VECTOR('',#1390,1000.);
#786=VECTOR('',#1397,1000.);
#787=VECTOR('',#1398,1000.);
#788=EDGE_LOOP('',(#44,#45,#46,#47));
#789=EDGE_LOOP('',(#48));
#790=EDGE_LOOP('',(#49));
#791=EDGE_LOOP('',(#50));
#792=EDGE_LOOP('',(#51));
#793=EDGE_LOOP('',(#52));
#794=EDGE_LOOP('',(#53,#54,#55,#56));
#795=EDGE_LOOP('',(#57,#58,#59,#60));
#796=EDGE_LOOP('',(#61,#62,#63,#64));
#797=EDGE_LOOP('',(#65,#66,#67,#68,#69,#70,#71,#72));
#798=EDGE_LOOP('',(#73,#74,#75,#76));
#799=EDGE_LOOP('',(#77,#78,#79,#80));
#800=EDGE_LOOP('',(#81,#82,#83,#84));
#801=EDGE_LOOP('',(#85,#86,#87,#88,#89,#90,#91,#92));
#802=EDGE_LOOP('',(#93,#94,#95,#96,#97,#98,#99,#100,#101,#102,#103,#104));
#803=EDGE_LOOP('',(#105,#106,#107,#108));
#804=EDGE_LOOP('',(#109,#110,#111,#112,#113,#114,#115,#116,#117,#118,#119,
#120,#121,#122,#123,#124));
#805=EDGE_LOOP('',(#125,#126,#127,#128,#129,#130,#131,#132,#133,#134,#135,
#136,#137,#138,#139,#140));
#806=EDGE_LOOP('',(#141,#142,#143,#144));
#807=EDGE_LOOP('',(#145,#146,#147,#148));
#808=EDGE_LOOP('',(#149,#150,#151,#152));
#809=EDGE_LOOP('',(#153,#154,#155,#156));
#810=EDGE_LOOP('',(#157));
#811=EDGE_LOOP('',(#158));
#812=EDGE_LOOP('',(#159));
#813=EDGE_LOOP('',(#160));
#814=EDGE_LOOP('',(#161));
#815=EDGE_LOOP('',(#162,#163,#164,#165));
#816=EDGE_LOOP('',(#166));
#817=EDGE_LOOP('',(#167));
#818=EDGE_LOOP('',(#168));
#819=EDGE_LOOP('',(#169));
#820=EDGE_LOOP('',(#170));
#821=EDGE_LOOP('',(#171));
#822=EDGE_LOOP('',(#172));
#823=EDGE_LOOP('',(#173));
#824=EDGE_LOOP('',(#174));
#825=EDGE_LOOP('',(#175));
#826=EDGE_LOOP('',(#176));
#827=EDGE_LOOP('',(#177));
#828=EDGE_LOOP('',(#178));
#829=EDGE_LOOP('',(#179));
#830=EDGE_LOOP('',(#180,#181,#182,#183));
#831=EDGE_LOOP('',(#184,#185,#186,#187));
#832=EDGE_LOOP('',(#188,#189,#190,#191));
#833=EDGE_LOOP('',(#192));
#834=EDGE_LOOP('',(#193));
#835=EDGE_LOOP('',(#194,#195,#196,#197));
#836=EDGE_LOOP('',(#198,#199,#200,#201));
#837=EDGE_LOOP('',(#202,#203,#204,#205));
#838=EDGE_LOOP('',(#206,#207,#208,#209));
#839=EDGE_LOOP('',(#210,#211,#212,#213));
#840=EDGE_LOOP('',(#214));
#841=EDGE_LOOP('',(#215));
#842=EDGE_LOOP('',(#216));
#843=EDGE_LOOP('',(#217));
#844=EDGE_LOOP('',(#218));
#845=EDGE_LOOP('',(#219));
#846=EDGE_LOOP('',(#220,#221,#222,#223));
#847=EDGE_LOOP('',(#224,#225,#226,#227));
#848=EDGE_LOOP('',(#228,#229,#230,#231));
#849=EDGE_LOOP('',(#232,#233,#234,#235));
#850=EDGE_LOOP('',(#236,#237,#238,#239,#240,#241,#242,#243));
#851=EDGE_LOOP('',(#244,#245,#246,#247));
#852=EDGE_LOOP('',(#248,#249,#250,#251));
#853=EDGE_LOOP('',(#252,#253,#254,#255));
#854=EDGE_LOOP('',(#256,#257,#258,#259));
#855=EDGE_LOOP('',(#260,#261,#262,#263));
#856=EDGE_LOOP('',(#264,#265,#266,#267));
#857=EDGE_LOOP('',(#268,#269,#270,#271));
#858=EDGE_LOOP('',(#272,#273,#274,#275,#276,#277,#278,#279));
#859=EDGE_LOOP('',(#280,#281,#282,#283));
#860=EDGE_LOOP('',(#284,#285,#286,#287));
#861=EDGE_LOOP('',(#288,#289,#290,#291));
#862=EDGE_LOOP('',(#292,#293,#294,#295));
#863=EDGE_LOOP('',(#296,#297,#298,#299));
#864=EDGE_LOOP('',(#300,#301,#302,#303));
#865=EDGE_LOOP('',(#304,#305,#306,#307));
#866=EDGE_LOOP('',(#308,#309,#310,#311));
#867=EDGE_LOOP('',(#312,#313,#314,#315));
#868=FACE_BOUND('',#788,.T.);
#869=FACE_BOUND('',#789,.T.);
#870=FACE_BOUND('',#790,.T.);
#871=FACE_BOUND('',#791,.T.);
#872=FACE_BOUND('',#792,.T.);
#873=FACE_BOUND('',#793,.T.);
#874=FACE_BOUND('',#794,.T.);
#875=FACE_BOUND('',#795,.T.);
#876=FACE_BOUND('',#796,.T.);
#877=FACE_BOUND('',#797,.T.);
#878=FACE_BOUND('',#798,.T.);
#879=FACE_BOUND('',#799,.T.);
#880=FACE_BOUND('',#800,.T.);
#881=FACE_BOUND('',#801,.T.);
#882=FACE_BOUND('',#802,.T.);
#883=FACE_BOUND('',#803,.T.);
#884=FACE_BOUND('',#804,.T.);
#885=FACE_BOUND('',#805,.T.);
#886=FACE_BOUND('',#806,.T.);
#887=FACE_BOUND('',#807,.T.);
#888=FACE_BOUND('',#808,.T.);
#889=FACE_BOUND('',#809,.T.);
#890=FACE_BOUND('',#810,.T.);
#891=FACE_BOUND('',#811,.T.);
#892=FACE_BOUND('',#812,.T.);
#893=FACE_BOUND('',#813,.T.);
#894=FACE_BOUND('',#814,.T.);
#895=FACE_BOUND('',#815,.T.);
#896=FACE_BOUND('',#816,.T.);
#897=FACE_BOUND('',#817,.T.);
#898=FACE_BOUND('',#818,.T.);
#899=FACE_BOUND('',#819,.T.);
#900=FACE_BOUND('',#820,.T.);
#901=FACE_BOUND('',#821,.T.);
#902=FACE_BOUND('',#822,.T.);
#903=FACE_BOUND('',#823,.T.);
#904=FACE_BOUND('',#824,.T.);
#905=FACE_BOUND('',#825,.T.);
#906=FACE_BOUND('',#826,.T.);
#907=FACE_BOUND('',#827,.T.);
#908=FACE_BOUND('',#828,.T.);
#909=FACE_BOUND('',#829,.T.);
#910=FACE_BOUND('',#830,.T.);
#911=FACE_BOUND('',#831,.T.);
#912=FACE_BOUND('',#832,.T.);
#913=FACE_BOUND('',#833,.T.);
#914=FACE_BOUND('',#834,.T.);
#915=FACE_BOUND('',#835,.T.);
#916=FACE_BOUND('',#836,.T.);
#917=FACE_BOUND('',#837,.T.);
#918=FACE_BOUND('',#838,.T.);
#919=FACE_BOUND('',#839,.T.);
#920=FACE_BOUND('',#840,.T.);
#921=FACE_BOUND('',#841,.T.);
#922=FACE_BOUND('',#842,.T.);
#923=FACE_BOUND('',#843,.T.);
#924=FACE_BOUND('',#844,.T.);
#925=FACE_BOUND('',#845,.T.);
#926=FACE_BOUND('',#846,.T.);
#927=FACE_BOUND('',#847,.T.);
#928=FACE_BOUND('',#848,.T.);
#929=FACE_BOUND('',#849,.T.);
#930=FACE_BOUND('',#850,.T.);
#931=FACE_BOUND('',#851,.T.);
#932=FACE_BOUND('',#852,.T.);
#933=FACE_BOUND('',#853,.T.);
#934=FACE_BOUND('',#854,.T.);
#935=FACE_BOUND('',#855,.T.);
#936=FACE_BOUND('',#856,.T.);
#937=FACE_BOUND('',#857,.T.);
#938=FACE_BOUND('',#858,.T.);
#939=FACE_BOUND('',#859,.T.);
#940=FACE_BOUND('',#860,.T.);
#941=FACE_BOUND('',#861,.T.);
#942=FACE_BOUND('',#862,.T.);
#943=FACE_BOUND('',#863,.T.);
#944=FACE_BOUND('',#864,.T.);
#945=FACE_BOUND('',#865,.T.);
#946=FACE_BOUND('',#866,.T.);
#947=FACE_BOUND('',#867,.T.);
#948=PLANE('',#1065);
#949=PLANE('',#1066);
#950=PLANE('',#1072);
#951=PLANE('',#1073);
#952=PLANE('',#1074);
#953=PLANE('',#1075);
#954=PLANE('',#1076);
#955=PLANE('',#1077);
#956=PLANE('',#1078);
#957=PLANE('',#1079);
#958=PLANE('',#1080);
#959=PLANE('',#1081);
#960=PLANE('',#1082);
#961=PLANE('',#1083);
#962=PLANE('',#1084);
#963=PLANE('',#1094);
#964=PLANE('',#1099);
#965=PLANE('',#1100);
#966=PLANE('',#1101);
#967=PLANE('',#1102);
#968=PLANE('',#1105);
#969=PLANE('',#1106);
#970=PLANE('',#1107);
#971=PLANE('',#1108);
#972=PLANE('',#1109);
#973=PLANE('',#1112);
#974=PLANE('',#1115);
#975=PLANE('',#1116);
#976=PLANE('',#1117);
#977=PLANE('',#1118);
#978=PLANE('',#1119);
#979=PLANE('',#1120);
#980=PLANE('',#1121);
#981=PLANE('',#1122);
#982=PLANE('',#1123);
#983=PLANE('',#1124);
#984=PLANE('',#1125);
#985=PLANE('',#1126);
#986=PLANE('',#1127);
#987=PLANE('',#1128);
#988=PLANE('',#1129);
#989=PLANE('',#1130);
#990=PLANE('',#1131);
#991=PLANE('',#1132);
#992=PLANE('',#1133);
#993=PLANE('',#1134);
#994=PLANE('',#1135);
#995=PLANE('',#1136);
#996=ADVANCED_FACE('',(#868),#948,.F.);
#997=ADVANCED_FACE('',(#869,#870,#871,#872,#873,#874),#949,.F.);
#998=ADVANCED_FACE('',(#875),#950,.F.);
#999=ADVANCED_FACE('',(#876),#951,.T.);
#1000=ADVANCED_FACE('',(#877,#878),#952,.F.);
#1001=ADVANCED_FACE('',(#879),#953,.F.);
#1002=ADVANCED_FACE('',(#880,#881),#954,.F.);
#1003=ADVANCED_FACE('',(#882,#883),#955,.T.);
#1004=ADVANCED_FACE('',(#884),#956,.F.);
#1005=ADVANCED_FACE('',(#885),#957,.F.);
#1006=ADVANCED_FACE('',(#886),#958,.T.);
#1007=ADVANCED_FACE('',(#887),#959,.T.);
#1008=ADVANCED_FACE('',(#888),#960,.T.);
#1009=ADVANCED_FACE('',(#889),#961,.T.);
#1010=ADVANCED_FACE('',(#890,#891,#892,#893,#894,#895),#962,.F.);
#1011=ADVANCED_FACE('',(#896,#897),#20,.F.);
#1012=ADVANCED_FACE('',(#898,#899),#21,.F.);
#1013=ADVANCED_FACE('',(#900,#901),#963,.F.);
#1014=ADVANCED_FACE('',(#902,#903),#22,.F.);
#1015=ADVANCED_FACE('',(#904,#905),#23,.F.);
#1016=ADVANCED_FACE('',(#906,#907),#24,.F.);
#1017=ADVANCED_FACE('',(#908,#909),#25,.F.);
#1018=ADVANCED_FACE('',(#910),#964,.T.);
#1019=ADVANCED_FACE('',(#911),#965,.F.);
#1020=ADVANCED_FACE('',(#912),#966,.F.);
#1021=ADVANCED_FACE('',(#913,#914,#915),#967,.F.);
#1022=ADVANCED_FACE('',(#916),#968,.T.);
#1023=ADVANCED_FACE('',(#917),#969,.F.);
#1024=ADVANCED_FACE('',(#918),#970,.F.);
#1025=ADVANCED_FACE('',(#919),#971,.F.);
#1026=ADVANCED_FACE('',(#920),#972,.F.);
#1027=ADVANCED_FACE('',(#921,#922),#26,.F.);
#1028=ADVANCED_FACE('',(#923),#973,.F.);
#1029=ADVANCED_FACE('',(#924,#925),#27,.F.);
#1030=ADVANCED_FACE('',(#926),#974,.F.);
#1031=ADVANCED_FACE('',(#927),#975,.F.);
#1032=ADVANCED_FACE('',(#928),#976,.F.);
#1033=ADVANCED_FACE('',(#929),#977,.F.);
#1034=ADVANCED_FACE('',(#930),#978,.T.);
#1035=ADVANCED_FACE('',(#931),#979,.F.);
#1036=ADVANCED_FACE('',(#932),#980,.F.);
#1037=ADVANCED_FACE('',(#933),#981,.F.);
#1038=ADVANCED_FACE('',(#934),#982,.T.);
#1039=ADVANCED_FACE('',(#935),#983,.T.);
#1040=ADVANCED_FACE('',(#936),#984,.T.);
#1041=ADVANCED_FACE('',(#937),#985,.T.);
#1042=ADVANCED_FACE('',(#938),#986,.F.);
#1043=ADVANCED_FACE('',(#939),#987,.T.);
#1044=ADVANCED_FACE('',(#940),#988,.T.);
#1045=ADVANCED_FACE('',(#941),#989,.T.);
#1046=ADVANCED_FACE('',(#942),#990,.F.);
#1047=ADVANCED_FACE('',(#943),#991,.T.);
#1048=ADVANCED_FACE('',(#944),#992,.T.);
#1049=ADVANCED_FACE('',(#945),#993,.T.);
#1050=ADVANCED_FACE('',(#946),#994,.F.);
#1051=ADVANCED_FACE('',(#947),#995,.F.);
#1052=CLOSED_SHELL('',(#996,#997,#998,#999,#1000,#1001,#1002,#1003,#1004,
#1005,#1006,#1007,#1008,#1009,#1010,#1011,#1012,#1013,#1014,#1015,#1016,
#1017,#1018,#1019,#1020,#1021,#1022,#1023,#1024,#1025,#1026,#1027,#1028,
#1029,#1030,#1031,#1032,#1033,#1034,#1035,#1036,#1037,#1038,#1039,#1040,
#1041,#1042,#1043,#1044,#1045,#1046,#1047,#1048,#1049,#1050,#1051));
#1053=STYLED_ITEM('',(#1054),#1061);
#1054=PRESENTATION_STYLE_ASSIGNMENT((#1055));
#1055=SURFACE_STYLE_USAGE(.BOTH.,#1056);
#1056=SURFACE_SIDE_STYLE('',(#1057));
#1057=SURFACE_STYLE_FILL_AREA(#1058);
#1058=FILL_AREA_STYLE('',(#1059));
#1059=FILL_AREA_STYLE_COLOUR('',#1060);
#1060=COLOUR_RGB('',0.506983280181885,0.531564235687256,0.550000011920929);
#1061=MANIFOLD_SOLID_BREP('',#1052);
#1062=SHAPE_DEFINITION_REPRESENTATION(#1698,#1063);
#1063=SHAPE_REPRESENTATION('Part3',(#1064),#1693);
#1064=AXIS2_PLACEMENT_3D('',#1403,#1137,#1138);
#1065=AXIS2_PLACEMENT_3D('',#1404,#1139,#1140);
#1066=AXIS2_PLACEMENT_3D('',#1413,#1145,#1146);
#1067=AXIS2_PLACEMENT_3D('',#1414,#1147,#1148);
#1068=AXIS2_PLACEMENT_3D('',#1416,#1149,#1150);
#1069=AXIS2_PLACEMENT_3D('',#1418,#1151,#1152);
#1070=AXIS2_PLACEMENT_3D('',#1420,#1153,#1154);
#1071=AXIS2_PLACEMENT_3D('',#1422,#1155,#1156);
#1072=AXIS2_PLACEMENT_3D('',#1432,#1161,#1162);
#1073=AXIS2_PLACEMENT_3D('',#1441,#1167,#1168);
#1074=AXIS2_PLACEMENT_3D('',#1450,#1173,#1174);
#1075=AXIS2_PLACEMENT_3D('',#1469,#1185,#1186);
#1076=AXIS2_PLACEMENT_3D('',#1478,#1191,#1192);
#1077=AXIS2_PLACEMENT_3D('',#1497,#1203,#1204);
#1078=AXIS2_PLACEMENT_3D('',#1524,#1219,#1220);
#1079=AXIS2_PLACEMENT_3D('',#1540,#1230,#1231);
#1080=AXIS2_PLACEMENT_3D('',#1556,#1241,#1242);
#1081=AXIS2_PLACEMENT_3D('',#1562,#1246,#1247);
#1082=AXIS2_PLACEMENT_3D('',#1566,#1250,#1251);
#1083=AXIS2_PLACEMENT_3D('',#1570,#1254,#1255);
#1084=AXIS2_PLACEMENT_3D('',#1572,#1257,#1258);
#1085=AXIS2_PLACEMENT_3D('',#1573,#1259,#1260);
#1086=AXIS2_PLACEMENT_3D('',#1575,#1261,#1262);
#1087=AXIS2_PLACEMENT_3D('',#1577,#1263,#1264);
#1088=AXIS2_PLACEMENT_3D('',#1579,#1265,#1266);
#1089=AXIS2_PLACEMENT_3D('',#1581,#1267,#1268);
#1090=AXIS2_PLACEMENT_3D('',#1583,#1269,#1270);
#1091=AXIS2_PLACEMENT_3D('',#1584,#1271,#1272);
#1092=AXIS2_PLACEMENT_3D('',#1586,#1273,#1274);
#1093=AXIS2_PLACEMENT_3D('',#1587,#1275,#1276);
#1094=AXIS2_PLACEMENT_3D('',#1589,#1277,#1278);
#1095=AXIS2_PLACEMENT_3D('',#1590,#1279,#1280);
#1096=AXIS2_PLACEMENT_3D('',#1591,#1281,#1282);
#1097=AXIS2_PLACEMENT_3D('',#1592,#1283,#1284);
#1098=AXIS2_PLACEMENT_3D('',#1593,#1285,#1286);
#1099=AXIS2_PLACEMENT_3D('',#1594,#1287,#1288);
#1100=AXIS2_PLACEMENT_3D('',#1600,#1292,#1293);
#1101=AXIS2_PLACEMENT_3D('',#1602,#1295,#1296);
#1102=AXIS2_PLACEMENT_3D('',#1604,#1298,#1299);
#1103=AXIS2_PLACEMENT_3D('',#1605,#1300,#1301);
#1104=AXIS2_PLACEMENT_3D('',#1607,#1302,#1303);
#1105=AXIS2_PLACEMENT_3D('',#1609,#1304,#1305);
#1106=AXIS2_PLACEMENT_3D('',#1615,#1309,#1310);
#1107=AXIS2_PLACEMENT_3D('',#1618,#1313,#1314);
#1108=AXIS2_PLACEMENT_3D('',#1619,#1315,#1316);
#1109=AXIS2_PLACEMENT_3D('',#1620,#1317,#1318);
#1110=AXIS2_PLACEMENT_3D('',#1621,#1319,#1320);
#1111=AXIS2_PLACEMENT_3D('',#1623,#1321,#1322);
#1112=AXIS2_PLACEMENT_3D('',#1624,#1323,#1324);
#1113=AXIS2_PLACEMENT_3D('',#1625,#1325,#1326);
#1114=AXIS2_PLACEMENT_3D('',#1627,#1327,#1328);
#1115=AXIS2_PLACEMENT_3D('',#1628,#1329,#1330);
#1116=AXIS2_PLACEMENT_3D('',#1632,#1333,#1334);
#1117=AXIS2_PLACEMENT_3D('',#1638,#1338,#1339);
#1118=AXIS2_PLACEMENT_3D('',#1642,#1342,#1343);
#1119=AXIS2_PLACEMENT_3D('',#1644,#1345,#1346);
#1120=AXIS2_PLACEMENT_3D('',#1650,#1350,#1351);
#1121=AXIS2_PLACEMENT_3D('',#1652,#1353,#1354);
#1122=AXIS2_PLACEMENT_3D('',#1654,#1356,#1357);
#1123=AXIS2_PLACEMENT_3D('',#1655,#1358,#1359);
#1124=AXIS2_PLACEMENT_3D('',#1661,#1363,#1364);
#1125=AXIS2_PLACEMENT_3D('',#1665,#1367,#1368);
#1126=AXIS2_PLACEMENT_3D('',#1669,#1371,#1372);
#1127=AXIS2_PLACEMENT_3D('',#1671,#1374,#1375);
#1128=AXIS2_PLACEMENT_3D('',#1677,#1379,#1380);
#1129=AXIS2_PLACEMENT_3D('',#1680,#1383,#1384);
#1130=AXIS2_PLACEMENT_3D('',#1681,#1385,#1386);
#1131=AXIS2_PLACEMENT_3D('',#1682,#1387,#1388);
#1132=AXIS2_PLACEMENT_3D('',#1685,#1391,#1392);
#1133=AXIS2_PLACEMENT_3D('',#1686,#1393,#1394);
#1134=AXIS2_PLACEMENT_3D('',#1687,#1395,#1396);
#1135=AXIS2_PLACEMENT_3D('',#1690,#1399,#1400);
#1136=AXIS2_PLACEMENT_3D('',#1691,#1401,#1402);
#1137=DIRECTION('',(0.,0.,1.));
#1138=DIRECTION('',(1.,0.,0.));
#1139=DIRECTION('',(0.,0.,1.));
#1140=DIRECTION('',(1.,0.,0.));
#1141=DIRECTION('',(8.67361737988404E-17,-1.,0.));
#1142=DIRECTION('',(-1.,0.,0.));
#1143=DIRECTION('',(1.73472347597681E-16,1.,0.));
#1144=DIRECTION('',(1.,0.,0.));
#1145=DIRECTION('',(0.,0.,1.));
#1146=DIRECTION('',(1.,0.,0.));
#1147=DIRECTION('',(0.,0.,1.));
#1148=DIRECTION('',(1.,0.,0.));
#1149=DIRECTION('',(0.,0.,1.));
#1150=DIRECTION('',(1.,0.,0.));
#1151=DIRECTION('',(0.,0.,1.));
#1152=DIRECTION('',(1.,0.,0.));
#1153=DIRECTION('',(0.,0.,1.));
#1154=DIRECTION('',(1.,0.,0.));
#1155=DIRECTION('',(0.,0.,1.));
#1156=DIRECTION('',(1.,0.,0.));
#1157=DIRECTION('',(-8.67361737988404E-17,1.,0.));
#1158=DIRECTION('',(1.,0.,0.));
#1159=DIRECTION('',(-8.67361737988404E-17,1.,0.));
#1160=DIRECTION('',(-1.,0.,0.));
#1161=DIRECTION('',(0.,0.,1.));
#1162=DIRECTION('',(1.,0.,0.));
#1163=DIRECTION('',(-1.,0.,0.));
#1164=DIRECTION('',(8.67361737988404E-17,-1.,0.));
#1165=DIRECTION('',(1.,0.,0.));
#1166=DIRECTION('',(1.73472347597681E-16,-1.,0.));
#1167=DIRECTION('',(0.,0.,-1.));
#1168=DIRECTION('',(-1.,0.,0.));
#1169=DIRECTION('',(3.46944695195361E-16,-1.,0.));
#1170=DIRECTION('',(-1.,-1.73472347597681E-16,0.));
#1171=DIRECTION('',(3.46944695195361E-16,-1.,0.));
#1172=DIRECTION('',(-1.,-1.73472347597681E-16,0.));
#1173=DIRECTION('',(1.,1.73472347597681E-16,0.));
#1174=DIRECTION('',(-1.73472347597681E-16,1.,0.));
#1175=DIRECTION('',(-6.01853107621011E-32,1.73472347597681E-16,1.));
#1176=DIRECTION('',(3.46944695195361E-16,-1.,0.));
#1177=DIRECTION('',(1.80555932286303E-31,-5.20417042793042E-16,-1.));
#1178=DIRECTION('',(3.46944695195361E-16,-1.,0.));
#1179=DIRECTION('',(6.01853107621011E-32,-1.73472347597681E-16,-1.));
#1180=DIRECTION('',(-3.46944695195361E-16,1.,-1.73472347597681E-16));
#1181=DIRECTION('',(-6.01853107621011E-32,1.73472347597681E-16,1.));
#1182=DIRECTION('',(0.,0.,-1.));
#1183=DIRECTION('',(1.73472347597681E-16,-1.,0.));
#1184=DIRECTION('',(0.,0.,-1.));
#1185=DIRECTION('',(0.,0.,1.));
#1186=DIRECTION('',(1.,0.,0.));
#1187=DIRECTION('',(1.,-1.73472347597681E-16,0.));
#1188=DIRECTION('',(-3.46944695195361E-16,-1.,0.));
#1189=DIRECTION('',(1.,-1.73472347597681E-16,0.));
#1190=DIRECTION('',(-3.46944695195361E-16,-1.,0.));
#1191=DIRECTION('',(-1.,1.73472347597681E-16,0.));
#1192=DIRECTION('',(-1.73472347597681E-16,-1.,0.));
#1193=DIRECTION('',(0.,0.,-1.));
#1194=DIRECTION('',(1.73472347597681E-16,1.,0.));
#1195=DIRECTION('',(0.,0.,-1.));
#1196=DIRECTION('',(-6.01853107621011E-31,-1.73472347597681E-15,1.));
#1197=DIRECTION('',(0.,0.,1.));
#1198=DIRECTION('',(3.46944695195361E-16,1.,0.));
#1199=DIRECTION('',(0.,0.,-1.));
#1200=DIRECTION('',(-3.46944695195361E-16,-1.,0.));
#1201=DIRECTION('',(0.,0.,-1.));
#1202=DIRECTION('',(-3.46944695195361E-16,-1.,0.));
#1203=DIRECTION('',(0.,0.,1.));
#1204=DIRECTION('',(1.,0.,0.));
#1205=DIRECTION('',(0.,-1.,0.));
#1206=DIRECTION('',(-1.,0.,0.));
#1207=DIRECTION('',(1.,0.,0.));
#1208=DIRECTION('',(0.,-1.,0.));
#1209=DIRECTION('',(-1.,0.,0.));
#1210=DIRECTION('',(0.,1.,0.));
#1211=DIRECTION('',(1.,0.,0.));
#1212=DIRECTION('',(-1.,0.,0.));
#1213=DIRECTION('',(0.,1.,0.));
#1214=DIRECTION('',(1.,0.,0.));
#1215=DIRECTION('',(1.,0.,0.));
#1216=DIRECTION('',(0.,-1.,0.));
#1217=DIRECTION('',(-1.,0.,0.));
#1218=DIRECTION('',(0.,1.,0.));
#1219=DIRECTION('',(0.,-1.,0.));
#1220=DIRECTION('',(0.,0.,-1.));
#1221=DIRECTION('',(1.,0.,0.));
#1222=DIRECTION('',(0.,0.,-1.));
#1223=DIRECTION('',(0.,0.,-1.));
#1224=DIRECTION('',(-1.,0.,0.));
#1225=DIRECTION('',(0.,0.,-1.));
#1226=DIRECTION('',(0.,0.,1.));
#1227=DIRECTION('',(-1.,0.,0.));
#1228=DIRECTION('',(0.,0.,1.));
#1229=DIRECTION('',(0.,0.,-1.));
#1230=DIRECTION('',(0.,1.,0.));
#1231=DIRECTION('',(0.,0.,1.));
#1232=DIRECTION('',(-1.,0.,0.));
#1233=DIRECTION('',(0.,0.,-1.));
#1234=DIRECTION('',(0.,0.,1.));
#1235=DIRECTION('',(1.,0.,0.));
#1236=DIRECTION('',(0.,0.,1.));
#1237=DIRECTION('',(0.,0.,-1.));
#1238=DIRECTION('',(1.,0.,0.));
#1239=DIRECTION('',(0.,0.,-1.));
#1240=DIRECTION('',(0.,0.,-1.));
#1241=DIRECTION('',(-1.,0.,0.));
#1242=DIRECTION('',(0.,0.,1.));
#1243=DIRECTION('',(0.,0.,1.));
#1244=DIRECTION('',(0.,-1.,0.));
#1245=DIRECTION('',(0.,0.,1.));
#1246=DIRECTION('',(0.,1.,0.));
#1247=DIRECTION('',(0.,0.,1.));
#1248=DIRECTION('',(-1.,0.,0.));
#1249=DIRECTION('',(0.,0.,1.));
#1250=DIRECTION('',(1.,0.,0.));
#1251=DIRECTION('',(0.,0.,-1.));
#1252=DIRECTION('',(0.,1.,0.));
#1253=DIRECTION('',(0.,0.,1.));
#1254=DIRECTION('',(0.,-1.,0.));
#1255=DIRECTION('',(0.,0.,-1.));
#1256=DIRECTION('',(1.,0.,0.));
#1257=DIRECTION('',(0.,0.,-1.));
#1258=DIRECTION('',(-1.,0.,0.));
#1259=DIRECTION('',(0.,0.,-1.));
#1260=DIRECTION('',(1.,0.,0.));
#1261=DIRECTION('',(0.,0.,-1.));
#1262=DIRECTION('',(1.,0.,0.));
#1263=DIRECTION('',(0.,0.,-1.));
#1264=DIRECTION('',(1.,0.,0.));
#1265=DIRECTION('',(0.,0.,-1.));
#1266=DIRECTION('',(1.,0.,0.));
#1267=DIRECTION('',(0.,0.,-1.));
#1268=DIRECTION('',(1.,0.,0.));
#1269=DIRECTION('',(0.,0.,1.));
#1270=DIRECTION('',(1.,0.,0.));
#1271=DIRECTION('',(0.,0.,-1.));
#1272=DIRECTION('',(-1.,0.,0.));
#1273=DIRECTION('',(0.,0.,1.));
#1274=DIRECTION('',(1.,0.,0.));
#1275=DIRECTION('',(0.,0.,-1.));
#1276=DIRECTION('',(1.,0.,0.));
#1277=DIRECTION('',(0.,0.,-1.));
#1278=DIRECTION('',(-1.,0.,0.));
#1279=DIRECTION('',(0.,0.,1.));
#1280=DIRECTION('',(1.,0.,0.));
#1281=DIRECTION('',(0.,0.,1.));
#1282=DIRECTION('',(1.,0.,0.));
#1283=DIRECTION('',(0.,0.,1.));
#1284=DIRECTION('',(1.,0.,0.));
#1285=DIRECTION('',(0.,0.,1.));
#1286=DIRECTION('',(1.,0.,0.));
#1287=DIRECTION('',(0.,0.,1.));
#1288=DIRECTION('',(1.,0.,0.));
#1289=DIRECTION('',(0.,-1.,0.));
#1290=DIRECTION('',(0.,1.,0.));
#1291=DIRECTION('',(-1.,0.,0.));
#1292=DIRECTION('',(-1.,0.,0.));
#1293=DIRECTION('',(0.,0.,1.));
#1294=DIRECTION('',(0.,0.,1.));
#1295=DIRECTION('',(1.,0.,0.));
#1296=DIRECTION('',(0.,0.,-1.));
#1297=DIRECTION('',(0.,0.,1.));
#1298=DIRECTION('',(0.,1.,0.));
#1299=DIRECTION('',(0.,0.,1.));
#1300=DIRECTION('',(0.,1.,0.));
#1301=DIRECTION('',(1.,0.,0.));
#1302=DIRECTION('',(0.,1.,0.));
#1303=DIRECTION('',(1.,0.,0.));
#1304=DIRECTION('',(0.,0.,1.));
#1305=DIRECTION('',(1.,0.,0.));
#1306=DIRECTION('',(0.,-1.,0.));
#1307=DIRECTION('',(1.,0.,0.));
#1308=DIRECTION('',(0.,1.,0.));
#1309=DIRECTION('',(0.,-1.,0.));
#1310=DIRECTION('',(0.,0.,-1.));
#1311=DIRECTION('',(0.,0.,1.));
#1312=DIRECTION('',(0.,0.,1.));
#1313=DIRECTION('',(1.,0.,0.));
#1314=DIRECTION('',(0.,0.,-1.));
#1315=DIRECTION('',(-1.,0.,0.));
#1316=DIRECTION('',(0.,0.,1.));
#1317=DIRECTION('',(0.,1.,0.));
#1318=DIRECTION('',(0.,0.,1.));
#1319=DIRECTION('',(0.,1.,0.));
#1320=DIRECTION('',(1.,0.,0.));
#1321=DIRECTION('',(0.,-1.,0.));
#1322=DIRECTION('',(0.,0.,-1.));
#1323=DIRECTION('',(0.,1.,0.));
#1324=DIRECTION('',(0.,0.,1.));
#1325=DIRECTION('',(0.,1.,0.));
#1326=DIRECTION('',(1.,0.,0.));
#1327=DIRECTION('',(0.,-1.,0.));
#1328=DIRECTION('',(0.,0.,-1.));
#1329=DIRECTION('',(1.73472347597681E-16,1.,0.));
#1330=DIRECTION('',(-1.,1.73472347597681E-16,0.));
#1331=DIRECTION('',(0.,0.,1.));
#1332=DIRECTION('',(1.,-1.73472347597681E-16,0.));
#1333=DIRECTION('',(0.,0.,1.));
#1334=DIRECTION('',(1.,0.,0.));
#1335=DIRECTION('',(-3.46944695195361E-16,-1.,0.));
#1336=DIRECTION('',(1.,-1.73472347597681E-16,0.));
#1337=DIRECTION('',(1.,-1.73472347597681E-16,0.));
#1338=DIRECTION('',(-1.73472347597681E-16,-1.,0.));
#1339=DIRECTION('',(1.,-1.73472347597681E-16,0.));
#1340=DIRECTION('',(1.,-1.73472347597681E-16,0.));
#1341=DIRECTION('',(0.,0.,-1.));
#1342=DIRECTION('',(0.,0.,-1.));
#1343=DIRECTION('',(-1.,0.,0.));
#1344=DIRECTION('',(3.46944695195361E-16,1.,0.));
#1345=DIRECTION('',(1.,-3.46944695195361E-16,0.));
#1346=DIRECTION('',(3.46944695195361E-16,1.,0.));
#1347=DIRECTION('',(-6.01853107621011E-31,-1.73472347597681E-15,1.));
#1348=DIRECTION('',(-3.46944695195361E-16,-1.,0.));
#1349=DIRECTION('',(0.,0.,-1.));
#1350=DIRECTION('',(1.73472347597681E-16,1.,1.73472347597681E-15));
#1351=DIRECTION('',(0.,-1.73472347597681E-15,1.));
#1352=DIRECTION('',(1.,-1.73472347597681E-16,0.));
#1353=DIRECTION('',(0.,0.,1.));
#1354=DIRECTION('',(1.,0.,0.));
#1355=DIRECTION('',(1.,-1.73472347597681E-16,0.));
#1356=DIRECTION('',(-1.73472347597681E-16,-1.,0.));
#1357=DIRECTION('',(1.,-1.73472347597681E-16,0.));
#1358=DIRECTION('',(0.,0.,-1.));
#1359=DIRECTION('',(-1.,0.,0.));
#1360=DIRECTION('',(-1.,-1.73472347597681E-16,0.));
#1361=DIRECTION('',(3.46944695195361E-16,-1.,0.));
#1362=DIRECTION('',(-1.,-1.73472347597681E-16,0.));
#1363=DIRECTION('',(-1.73472347597681E-16,1.,-1.73472347597681E-16));
#1364=DIRECTION('',(-1.,-1.73472347597681E-16,0.));
#1365=DIRECTION('',(6.01853107621011E-32,-1.73472347597681E-16,-1.));
#1366=DIRECTION('',(-1.,-1.73472347597681E-16,0.));
#1367=DIRECTION('',(-3.00926553810506E-32,1.73472347597681E-16,1.));
#1368=DIRECTION('',(0.,-1.,1.73472347597681E-16));
#1369=DIRECTION('',(-3.46944695195361E-16,1.,-1.73472347597681E-16));
#1370=DIRECTION('',(-1.,-1.73472347597681E-16,0.));
#1371=DIRECTION('',(1.73472347597681E-16,-1.,1.73472347597681E-16));
#1372=DIRECTION('',(1.,1.73472347597681E-16,0.));
#1373=DIRECTION('',(-6.01853107621011E-32,1.73472347597681E-16,1.));
#1374=DIRECTION('',(1.,3.46944695195361E-16,0.));
#1375=DIRECTION('',(-3.46944695195361E-16,1.,0.));
#1376=DIRECTION('',(1.80555932286303E-31,-5.20417042793042E-16,-1.));
#1377=DIRECTION('',(3.46944695195361E-16,-1.,0.));
#1378=DIRECTION('',(-6.01853107621011E-32,1.73472347597681E-16,1.));
#1379=DIRECTION('',(0.,0.,-1.));
#1380=DIRECTION('',(-1.,0.,0.));
#1381=DIRECTION('',(-1.,-1.73472347597681E-16,0.));
#1382=DIRECTION('',(-1.,-1.73472347597681E-16,0.));
#1383=DIRECTION('',(-1.73472347597681E-16,1.,-5.20417042793042E-16));
#1384=DIRECTION('',(0.,5.20417042793042E-16,1.));
#1385=DIRECTION('',(1.73472347597681E-16,-1.,1.73472347597681E-16));
#1386=DIRECTION('',(1.,1.73472347597681E-16,0.));
#1387=DIRECTION('',(0.,0.,1.));
#1388=DIRECTION('',(1.,0.,0.));
#1389=DIRECTION('',(8.67361737988404E-17,-1.,0.));
#1390=DIRECTION('',(-8.67361737988404E-17,1.,0.));
#1391=DIRECTION('',(-1.,-8.67361737988404E-17,0.));
#1392=DIRECTION('',(8.67361737988404E-17,-1.,0.));
#1393=DIRECTION('',(1.,8.67361737988404E-17,0.));
#1394=DIRECTION('',(-8.67361737988404E-17,1.,0.));
#1395=DIRECTION('',(0.,0.,-1.));
#1396=DIRECTION('',(-1.,0.,0.));
#1397=DIRECTION('',(8.67361737988404E-17,-1.,0.));
#1398=DIRECTION('',(-8.67361737988404E-17,1.,0.));
#1399=DIRECTION('',(1.,8.67361737988404E-17,0.));
#1400=DIRECTION('',(-8.67361737988404E-17,1.,0.));
#1401=DIRECTION('',(-1.,-8.67361737988404E-17,0.));
#1402=DIRECTION('',(8.67361737988404E-17,-1.,0.));
#1403=CARTESIAN_POINT('',(0.,0.,0.));
#1404=CARTESIAN_POINT('',(0.,0.,0.));
#1405=CARTESIAN_POINT('',(60.,40.,0.));
#1406=CARTESIAN_POINT('',(60.,40.,0.));
#1407=CARTESIAN_POINT('',(60.,-40.,0.));
#1408=CARTESIAN_POINT('',(70.2829696044703,40.,0.));
#1409=CARTESIAN_POINT('',(70.2829696044703,40.,0.));
#1410=CARTESIAN_POINT('',(70.2829696044702,-40.,0.));
#1411=CARTESIAN_POINT('',(70.2829696044702,-40.,0.));
#1412=CARTESIAN_POINT('',(-70.2829696044702,-40.,0.));
#1413=CARTESIAN_POINT('',(0.,0.,0.));
#1414=CARTESIAN_POINT('',(-40.,20.,0.));
#1415=CARTESIAN_POINT('',(-35.,20.,0.));
#1416=CARTESIAN_POINT('',(40.,20.,0.));
#1417=CARTESIAN_POINT('',(45.,20.,0.));
#1418=CARTESIAN_POINT('',(40.,-20.,0.));
#1419=CARTESIAN_POINT('',(45.,-20.,0.));
#1420=CARTESIAN_POINT('',(-40.,-20.,0.));
#1421=CARTESIAN_POINT('',(-35.,-20.,0.));
#1422=CARTESIAN_POINT('',(0.,0.,0.));
#1423=CARTESIAN_POINT('',(10.,0.,0.));
#1424=CARTESIAN_POINT('',(50.,-40.,0.));
#1425=CARTESIAN_POINT('',(50.,-40.,0.));
#1426=CARTESIAN_POINT('',(50.,40.,0.));
#1427=CARTESIAN_POINT('',(-70.2829696044702,-40.,0.));
#1428=CARTESIAN_POINT('',(-50.,-40.,0.));
#1429=CARTESIAN_POINT('',(-50.,-40.,0.));
#1430=CARTESIAN_POINT('',(-50.,40.,0.));
#1431=CARTESIAN_POINT('',(70.2829696044703,40.,0.));
#1432=CARTESIAN_POINT('',(0.,0.,0.));
#1433=CARTESIAN_POINT('',(70.2829696044703,40.,0.));
#1434=CARTESIAN_POINT('',(-60.,40.,0.));
#1435=CARTESIAN_POINT('',(-70.2829696044703,40.,0.));
#1436=CARTESIAN_POINT('',(-60.,40.,0.));
#1437=CARTESIAN_POINT('',(-60.,-40.,0.));
#1438=CARTESIAN_POINT('',(-70.2829696044702,-40.,0.));
#1439=CARTESIAN_POINT('',(-70.2829696044702,-40.,0.));
#1440=CARTESIAN_POINT('',(-70.2829696044703,40.,0.));
#1441=CARTESIAN_POINT('',(-60.2829696044702,9.99999999999998,30.));
#1442=CARTESIAN_POINT('',(-60.2829696044702,9.99999999999998,30.));
#1443=CARTESIAN_POINT('',(-60.2829696044702,9.99999999999998,30.));
#1444=CARTESIAN_POINT('',(-60.2829696044702,4.99999999999998,30.));
#1445=CARTESIAN_POINT('',(-60.2829696044702,4.99999999999998,30.));
#1446=CARTESIAN_POINT('',(-70.2829696044702,4.99999999999998,30.));
#1447=CARTESIAN_POINT('',(-70.2829696044702,9.99999999999998,30.));
#1448=CARTESIAN_POINT('',(-70.2829696044703,9.99999999999997,30.));
#1449=CARTESIAN_POINT('',(-60.2829696044702,9.99999999999998,30.));
#1450=CARTESIAN_POINT('',(-70.2829696044703,40.,50.));
#1451=CARTESIAN_POINT('',(-70.2829696044702,4.99999999999998,30.));
#1452=CARTESIAN_POINT('',(-70.2829696044702,4.99999999999998,35.));
#1453=CARTESIAN_POINT('',(-70.2829696044702,4.99999999999998,35.));
#1454=CARTESIAN_POINT('',(-70.2829696044702,-5.00000000000002,35.));
#1455=CARTESIAN_POINT('',(-70.2829696044702,-5.00000000000002,35.));
#1456=CARTESIAN_POINT('',(-70.2829696044702,-5.00000000000002,30.));
#1457=CARTESIAN_POINT('',(-70.2829696044702,9.99999999999998,30.));
#1458=CARTESIAN_POINT('',(-70.2829696044702,-10.,30.));
#1459=CARTESIAN_POINT('',(-70.2829696044702,-10.,30.));
#1460=CARTESIAN_POINT('',(-70.2829696044702,-10.,20.));
#1461=CARTESIAN_POINT('',(-70.2829696044702,-10.,20.));
#1462=CARTESIAN_POINT('',(-70.2829696044703,9.99999999999998,20.));
#1463=CARTESIAN_POINT('',(-70.2829696044702,9.99999999999998,20.));
#1464=CARTESIAN_POINT('',(-70.2829696044702,-40.,50.));
#1465=CARTESIAN_POINT('',(-70.2829696044702,-40.,50.));
#1466=CARTESIAN_POINT('',(-70.2829696044703,40.,50.));
#1467=CARTESIAN_POINT('',(-70.2829696044703,40.,50.));
#1468=CARTESIAN_POINT('',(-70.2829696044703,40.,50.));
#1469=CARTESIAN_POINT('',(60.2829696044702,10.,30.));
#1470=CARTESIAN_POINT('',(60.2829696044702,5.,30.));
#1471=CARTESIAN_POINT('',(60.2829696044702,5.,30.));
#1472=CARTESIAN_POINT('',(70.2829696044702,5.,30.));
#1473=CARTESIAN_POINT('',(60.2829696044702,10.,30.));
#1474=CARTESIAN_POINT('',(60.2829696044702,10.,30.));
#1475=CARTESIAN_POINT('',(60.2829696044702,10.,30.));
#1476=CARTESIAN_POINT('',(70.2829696044702,10.,30.));
#1477=CARTESIAN_POINT('',(70.2829696044702,10.,30.));
#1478=CARTESIAN_POINT('',(70.2829696044702,-40.,50.));
#1479=CARTESIAN_POINT('',(70.2829696044703,40.,50.));
#1480=CARTESIAN_POINT('',(70.2829696044703,40.,50.));
#1481=CARTESIAN_POINT('',(70.2829696044702,-40.,50.));
#1482=CARTESIAN_POINT('',(70.2829696044702,-40.,50.));
#1483=CARTESIAN_POINT('',(70.2829696044702,-40.,50.));
#1484=CARTESIAN_POINT('',(70.2829696044702,5.,30.));
#1485=CARTESIAN_POINT('',(70.2829696044703,4.99999999999999,35.));
#1486=CARTESIAN_POINT('',(70.2829696044702,10.,20.));
#1487=CARTESIAN_POINT('',(70.2829696044703,10.,20.));
#1488=CARTESIAN_POINT('',(70.2829696044702,-10.,20.));
#1489=CARTESIAN_POINT('',(70.2829696044702,-10.,20.));
#1490=CARTESIAN_POINT('',(70.2829696044702,-10.,30.));
#1491=CARTESIAN_POINT('',(70.2829696044702,-10.,30.));
#1492=CARTESIAN_POINT('',(70.2829696044702,10.,30.));
#1493=CARTESIAN_POINT('',(70.2829696044702,-5.,30.));
#1494=CARTESIAN_POINT('',(70.2829696044702,-5.,35.));
#1495=CARTESIAN_POINT('',(70.2829696044702,-5.,35.));
#1496=CARTESIAN_POINT('',(70.2829696044702,4.99999999999999,35.));
#1497=CARTESIAN_POINT('',(0.,0.,50.));
#1498=CARTESIAN_POINT('',(-20.,40.,50.));
#1499=CARTESIAN_POINT('',(-20.,40.,50.));
#1500=CARTESIAN_POINT('',(-20.,35.,50.));
#1501=CARTESIAN_POINT('',(70.2829696044703,40.,50.));
#1502=CARTESIAN_POINT('',(-70.2829696044702,-40.,50.));
#1503=CARTESIAN_POINT('',(-20.,-40.,50.));
#1504=CARTESIAN_POINT('',(-20.,-35.,50.));
#1505=CARTESIAN_POINT('',(-20.,-35.,50.));
#1506=CARTESIAN_POINT('',(20.,-35.,50.));
#1507=CARTESIAN_POINT('',(20.,-35.,50.));
#1508=CARTESIAN_POINT('',(20.,-40.,50.));
#1509=CARTESIAN_POINT('',(20.,-40.,50.));
#1510=CARTESIAN_POINT('',(-70.2829696044702,-40.,50.));
#1511=CARTESIAN_POINT('',(70.2829696044703,40.,50.));
#1512=CARTESIAN_POINT('',(20.,40.,50.));
#1513=CARTESIAN_POINT('',(20.,35.,50.));
#1514=CARTESIAN_POINT('',(20.,35.,50.));
#1515=CARTESIAN_POINT('',(-20.,35.,50.));
#1516=CARTESIAN_POINT('',(-60.,30.,50.));
#1517=CARTESIAN_POINT('',(-60.,30.,50.));
#1518=CARTESIAN_POINT('',(60.,30.,50.));
#1519=CARTESIAN_POINT('',(60.,30.,50.));
#1520=CARTESIAN_POINT('',(60.,-30.,50.));
#1521=CARTESIAN_POINT('',(60.,-30.,50.));
#1522=CARTESIAN_POINT('',(-60.,-30.,50.));
#1523=CARTESIAN_POINT('',(-60.,-30.,50.));
#1524=CARTESIAN_POINT('',(70.2829696044703,40.,50.));
#1525=CARTESIAN_POINT('',(50.,40.,5.));
#1526=CARTESIAN_POINT('',(50.,40.,5.));
#1527=CARTESIAN_POINT('',(60.,40.,5.));
#1528=CARTESIAN_POINT('',(50.,40.,5.));
#1529=CARTESIAN_POINT('',(-50.,40.,5.));
#1530=CARTESIAN_POINT('',(-50.,40.,5.));
#1531=CARTESIAN_POINT('',(-50.,40.,5.));
#1532=CARTESIAN_POINT('',(-60.,40.,5.));
#1533=CARTESIAN_POINT('',(-60.,40.,5.));
#1534=CARTESIAN_POINT('',(-20.,40.,25.));
#1535=CARTESIAN_POINT('',(-20.,40.,25.));
#1536=CARTESIAN_POINT('',(20.,40.,25.));
#1537=CARTESIAN_POINT('',(20.,40.,25.));
#1538=CARTESIAN_POINT('',(20.,40.,25.));
#1539=CARTESIAN_POINT('',(60.,40.,5.));
#1540=CARTESIAN_POINT('',(-70.2829696044702,-40.,50.));
#1541=CARTESIAN_POINT('',(60.,-40.,5.));
#1542=CARTESIAN_POINT('',(60.,-40.,5.));
#1543=CARTESIAN_POINT('',(50.,-40.,5.));
#1544=CARTESIAN_POINT('',(60.,-40.,5.));
#1545=CARTESIAN_POINT('',(20.,-40.,25.));
#1546=CARTESIAN_POINT('',(20.,-40.,25.));
#1547=CARTESIAN_POINT('',(-20.,-40.,25.));
#1548=CARTESIAN_POINT('',(-20.,-40.,25.));
#1549=CARTESIAN_POINT('',(-20.,-40.,25.));
#1550=CARTESIAN_POINT('',(-60.,-40.,5.));
#1551=CARTESIAN_POINT('',(-60.,-40.,5.));
#1552=CARTESIAN_POINT('',(-60.,-40.,5.));
#1553=CARTESIAN_POINT('',(-50.,-40.,5.));
#1554=CARTESIAN_POINT('',(-50.,-40.,5.));
#1555=CARTESIAN_POINT('',(50.,-40.,5.));
#1556=CARTESIAN_POINT('',(60.,30.,40.2001496857645));
#1557=CARTESIAN_POINT('',(60.,30.,40.2001496857645));
#1558=CARTESIAN_POINT('',(60.,30.,40.2001496857645));
#1559=CARTESIAN_POINT('',(60.,30.,40.2001496857645));
#1560=CARTESIAN_POINT('',(60.,-30.,40.2001496857645));
#1561=CARTESIAN_POINT('',(60.,-30.,40.2001496857645));
#1562=CARTESIAN_POINT('',(60.,-30.,40.2001496857645));
#1563=CARTESIAN_POINT('',(60.,-30.,40.2001496857645));
#1564=CARTESIAN_POINT('',(-60.,-30.,40.2001496857645));
#1565=CARTESIAN_POINT('',(-60.,-30.,40.2001496857645));
#1566=CARTESIAN_POINT('',(-60.,-30.,40.2001496857645));
#1567=CARTESIAN_POINT('',(-60.,-30.,40.2001496857645));
#1568=CARTESIAN_POINT('',(-60.,30.,40.2001496857645));
#1569=CARTESIAN_POINT('',(-60.,30.,40.2001496857645));
#1570=CARTESIAN_POINT('',(-60.,30.,40.2001496857645));
#1571=CARTESIAN_POINT('',(-60.,30.,40.2001496857645));
#1572=CARTESIAN_POINT('',(0.,0.,40.2001496857645));
#1573=CARTESIAN_POINT('',(-40.,20.,40.2001496857645));
#1574=CARTESIAN_POINT('',(-35.,20.,40.2001496857645));
#1575=CARTESIAN_POINT('',(40.,20.,40.2001496857645));
#1576=CARTESIAN_POINT('',(45.,20.,40.2001496857645));
#1577=CARTESIAN_POINT('',(40.,-20.,40.2001496857645));
#1578=CARTESIAN_POINT('',(45.,-20.,40.2001496857645));
#1579=CARTESIAN_POINT('',(-40.,-20.,40.2001496857645));
#1580=CARTESIAN_POINT('',(-35.,-20.,40.2001496857645));
#1581=CARTESIAN_POINT('',(0.,0.,40.2001496857645));
#1582=CARTESIAN_POINT('',(15.,0.,40.2001496857645));
#1583=CARTESIAN_POINT('',(0.,0.,-115.589029854907));
#1584=CARTESIAN_POINT('',(0.,0.,35.2001496857645));
#1585=CARTESIAN_POINT('',(-10.,0.,35.2001496857645));
#1586=CARTESIAN_POINT('',(0.,0.,35.2001496857645));
#1587=CARTESIAN_POINT('',(0.,0.,35.2001496857645));
#1588=CARTESIAN_POINT('',(15.,0.,35.2001496857645));
#1589=CARTESIAN_POINT('',(0.,0.,35.2001496857645));
#1590=CARTESIAN_POINT('',(-40.,-20.,-55.3504516307614));
#1591=CARTESIAN_POINT('',(40.,-20.,-55.3504516307614));
#1592=CARTESIAN_POINT('',(40.,20.,-55.3504516307614));
#1593=CARTESIAN_POINT('',(-40.,20.,-55.3504516307614));
#1594=CARTESIAN_POINT('',(0.,0.,25.));
#1595=CARTESIAN_POINT('',(-20.,-35.,25.));
#1596=CARTESIAN_POINT('',(-20.,-35.,25.));
#1597=CARTESIAN_POINT('',(20.,-40.,25.));
#1598=CARTESIAN_POINT('',(20.,-35.,25.));
#1599=CARTESIAN_POINT('',(20.,-35.,25.));
#1600=CARTESIAN_POINT('',(-20.,-35.,25.));
#1601=CARTESIAN_POINT('',(-20.,-35.,25.));
#1602=CARTESIAN_POINT('',(20.,-40.,25.));
#1603=CARTESIAN_POINT('',(20.,-35.,25.));
#1604=CARTESIAN_POINT('',(20.,-35.,25.));
#1605=CARTESIAN_POINT('',(-10.,-35.,37.5));
#1606=CARTESIAN_POINT('',(-7.5,-35.,37.5));
#1607=CARTESIAN_POINT('',(10.0173707335051,-35.,37.7001496857645));
#1608=CARTESIAN_POINT('',(12.5173707335051,-35.,37.7001496857645));
#1609=CARTESIAN_POINT('',(0.,0.,25.));
#1610=CARTESIAN_POINT('',(-20.,40.,25.));
#1611=CARTESIAN_POINT('',(-20.,35.,25.));
#1612=CARTESIAN_POINT('',(-20.,35.,25.));
#1613=CARTESIAN_POINT('',(20.,35.,25.));
#1614=CARTESIAN_POINT('',(20.,35.,25.));
#1615=CARTESIAN_POINT('',(-20.,35.,25.));
#1616=CARTESIAN_POINT('',(20.,35.,25.));
#1617=CARTESIAN_POINT('',(-20.,35.,25.));
#1618=CARTESIAN_POINT('',(20.,35.,25.));
#1619=CARTESIAN_POINT('',(-20.,40.,25.));
#1620=CARTESIAN_POINT('',(10.0173707335051,-32.5,37.7001496857645));
#1621=CARTESIAN_POINT('',(10.0173707335051,-32.5,37.7001496857645));
#1622=CARTESIAN_POINT('',(12.5173707335051,-32.5,37.7001496857645));
#1623=CARTESIAN_POINT('',(10.0173707335051,-32.5,37.7001496857645));
#1624=CARTESIAN_POINT('',(-10.,-32.5,37.5));
#1625=CARTESIAN_POINT('',(-10.,-32.5,37.5));
#1626=CARTESIAN_POINT('',(-7.5,-32.5,37.5));
#1627=CARTESIAN_POINT('',(-10.,-32.5,37.5));
#1628=CARTESIAN_POINT('',(60.2829696044702,10.,20.));
#1629=CARTESIAN_POINT('',(60.2829696044702,10.,20.));
#1630=CARTESIAN_POINT('',(60.2829696044703,10.,20.));
#1631=CARTESIAN_POINT('',(60.2829696044703,10.,20.));
#1632=CARTESIAN_POINT('',(60.2829696044702,10.,30.));
#1633=CARTESIAN_POINT('',(60.2829696044702,10.,30.));
#1634=CARTESIAN_POINT('',(60.2829696044702,-5.,30.));
#1635=CARTESIAN_POINT('',(60.2829696044702,-10.,30.));
#1636=CARTESIAN_POINT('',(60.2829696044702,-5.,30.));
#1637=CARTESIAN_POINT('',(60.2829696044702,-10.,30.));
#1638=CARTESIAN_POINT('',(60.2829696044702,-10.,30.));
#1639=CARTESIAN_POINT('',(60.2829696044702,-10.,20.));
#1640=CARTESIAN_POINT('',(60.2829696044702,-10.,20.));
#1641=CARTESIAN_POINT('',(60.2829696044702,-10.,30.));
#1642=CARTESIAN_POINT('',(60.2829696044702,-10.,20.));
#1643=CARTESIAN_POINT('',(60.2829696044702,-10.,20.));
#1644=CARTESIAN_POINT('',(60.2829696044702,-2.2649579990871E-14,0.));
#1645=CARTESIAN_POINT('',(60.2829696044702,5.,30.));
#1646=CARTESIAN_POINT('',(60.2829696044702,4.99999999999999,35.));
#1647=CARTESIAN_POINT('',(60.2829696044702,4.99999999999999,35.));
#1648=CARTESIAN_POINT('',(60.2829696044702,-5.,35.));
#1649=CARTESIAN_POINT('',(60.2829696044702,-5.,35.));
#1650=CARTESIAN_POINT('',(60.2829696044702,5.,30.));
#1651=CARTESIAN_POINT('',(60.2829696044702,4.99999999999999,35.));
#1652=CARTESIAN_POINT('',(60.2829696044702,4.99999999999999,35.));
#1653=CARTESIAN_POINT('',(60.2829696044702,-5.,35.));
#1654=CARTESIAN_POINT('',(60.2829696044702,-5.,35.));
#1655=CARTESIAN_POINT('',(-60.2829696044702,9.99999999999998,30.));
#1656=CARTESIAN_POINT('',(-60.2829696044702,-5.00000000000002,30.));
#1657=CARTESIAN_POINT('',(-60.2829696044702,-5.00000000000002,30.));
#1658=CARTESIAN_POINT('',(-60.2829696044702,9.99999999999998,30.));
#1659=CARTESIAN_POINT('',(-60.2829696044702,-10.,30.));
#1660=CARTESIAN_POINT('',(-60.2829696044702,-10.,30.));
#1661=CARTESIAN_POINT('',(-60.2829696044702,-10.,30.));
#1662=CARTESIAN_POINT('',(-60.2829696044702,-10.,30.));
#1663=CARTESIAN_POINT('',(-60.2829696044702,-10.,20.));
#1664=CARTESIAN_POINT('',(-60.2829696044702,-10.,20.));
#1665=CARTESIAN_POINT('',(-60.2829696044702,-10.,20.));
#1666=CARTESIAN_POINT('',(-60.2829696044702,-10.,20.));
#1667=CARTESIAN_POINT('',(-60.2829696044703,9.99999999999998,20.));
#1668=CARTESIAN_POINT('',(-60.2829696044703,9.99999999999998,20.));
#1669=CARTESIAN_POINT('',(-60.2829696044702,9.99999999999998,20.));
#1670=CARTESIAN_POINT('',(-60.2829696044702,9.99999999999998,20.));
#1671=CARTESIAN_POINT('',(-60.2829696044702,-2.2649579990871E-14,0.));
#1672=CARTESIAN_POINT('',(-60.2829696044702,-5.00000000000002,35.));
#1673=CARTESIAN_POINT('',(-60.2829696044702,-5.00000000000002,35.));
#1674=CARTESIAN_POINT('',(-60.2829696044702,4.99999999999998,35.));
#1675=CARTESIAN_POINT('',(-60.2829696044702,4.99999999999998,35.));
#1676=CARTESIAN_POINT('',(-60.2829696044702,4.99999999999998,30.));
#1677=CARTESIAN_POINT('',(-60.2829696044702,4.99999999999998,35.));
#1678=CARTESIAN_POINT('',(-60.2829696044702,4.99999999999998,35.));
#1679=CARTESIAN_POINT('',(-60.2829696044702,-5.00000000000002,35.));
#1680=CARTESIAN_POINT('',(-60.2829696044702,-5.00000000000002,35.));
#1681=CARTESIAN_POINT('',(-60.2829696044702,4.99999999999998,30.));
#1682=CARTESIAN_POINT('',(0.,0.,5.));
#1683=CARTESIAN_POINT('',(-60.,40.,5.));
#1684=CARTESIAN_POINT('',(-50.,-40.,5.));
#1685=CARTESIAN_POINT('',(-50.,-40.,5.));
#1686=CARTESIAN_POINT('',(-60.,40.,5.));
#1687=CARTESIAN_POINT('',(0.,0.,5.));
#1688=CARTESIAN_POINT('',(60.,40.,5.));
#1689=CARTESIAN_POINT('',(50.,-40.,5.));
#1690=CARTESIAN_POINT('',(60.,40.,5.));
#1691=CARTESIAN_POINT('',(50.,-40.,5.));
#1692=MECHANICAL_DESIGN_GEOMETRIC_PRESENTATION_REPRESENTATION('',(#1053),
#1693);
#1693=(
GEOMETRIC_REPRESENTATION_CONTEXT(3)
GLOBAL_UNCERTAINTY_ASSIGNED_CONTEXT((#1694))
GLOBAL_UNIT_ASSIGNED_CONTEXT((#1697,#1696,#1695))
REPRESENTATION_CONTEXT('Part3','TOP_LEVEL_ASSEMBLY_PART')
);
#1694=UNCERTAINTY_MEASURE_WITH_UNIT(LENGTH_MEASURE(0.005),#1697,
'DISTANCE_ACCURACY_VALUE','Maximum Tolerance applied to model');
#1695=(
NAMED_UNIT(*)
SI_UNIT($,.STERADIAN.)
SOLID_ANGLE_UNIT()
);
#1696=(
NAMED_UNIT(*)
PLANE_ANGLE_UNIT()
SI_UNIT($,.RADIAN.)
);
#1697=(
LENGTH_UNIT()
NAMED_UNIT(*)
SI_UNIT(.MILLI.,.METRE.)
);
#1698=PRODUCT_DEFINITION_SHAPE('','',#1699);
#1699=PRODUCT_DEFINITION('','',#1701,#1700);
#1700=PRODUCT_DEFINITION_CONTEXT('',#1707,'design');
#1701=PRODUCT_DEFINITION_FORMATION_WITH_SPECIFIED_SOURCE('','',#1703,
 .NOT_KNOWN.);
#1702=PRODUCT_RELATED_PRODUCT_CATEGORY('','',(#1703));
#1703=PRODUCT('Part3','Part3','Part3',(#1705));
#1704=PRODUCT_CATEGORY('','');
#1705=PRODUCT_CONTEXT('',#1707,'mechanical');
#1706=APPLICATION_PROTOCOL_DEFINITION('international standard',
'automotive_design',2010,#1707);
#1707=APPLICATION_CONTEXT(
'core data for automotive mechanical design processes');
ENDSEC;
END-ISO-10303-21;
