ISO-10303-21;
HEADER;
/* Generated by software containing ST-Developer
 * from STEP Tools, Inc. (www.steptools.com) 
 */
/* OPTION: strings as raw bytes, not using required /X/ escapes */

FILE_DESCRIPTION(
/* description */ ('Unknown'),
/* implementation_level */ '2;1');

FILE_NAME(
/* name */ 'Part2',
/* time_stamp */ '2025-10-27T16:01:10+01:00',
/* author */ ('Unknown'),
/* organization */ ('Unknown'),
/* preprocessor_version */ 'ST-DEVELOPER v19.4',
/* originating_system */ 'Solid Edge',
/* authorisation */ 'Unknown');

FILE_SCHEMA (('AUTOMOTIVE_DESIGN {1 0 10303 214 3 1 1}'));
ENDSEC;

DATA;
#10=PROPERTY_DEFINITION_REPRESENTATION(#14,#12);
#11=PROPERTY_DEFINITION_REPRESENTATION(#15,#13);
#12=REPRESENTATION('',(#16),#1136);
#13=REPRESENTATION('',(#17),#1136);
#14=PROPERTY_DEFINITION('pmi validation property','',#1141);
#15=PROPERTY_DEFINITION('pmi validation property','',#1141);
#16=VALUE_REPRESENTATION_ITEM('number of annotations',COUNT_MEASURE(0.));
#17=VALUE_REPRESENTATION_ITEM('number of views',COUNT_MEASURE(0.));
#18=SHAPE_REPRESENTATION_RELATIONSHIP('','',#724,#19);
#19=ADVANCED_BREP_SHAPE_REPRESENTATION('',(#722),#1136);
#20=CYLINDRICAL_SURFACE('',#754,5.);
#21=CYLINDRICAL_SURFACE('',#756,10.);
#22=CIRCLE('',#727,10.);
#23=CIRCLE('',#730,5.);
#24=CIRCLE('',#755,5.);
#25=CIRCLE('',#757,10.);
#26=ORIENTED_EDGE('',*,*,#216,.T.);
#27=ORIENTED_EDGE('',*,*,#217,.T.);
#28=ORIENTED_EDGE('',*,*,#218,.T.);
#29=ORIENTED_EDGE('',*,*,#219,.T.);
#30=ORIENTED_EDGE('',*,*,#220,.T.);
#31=ORIENTED_EDGE('',*,*,#221,.F.);
#32=ORIENTED_EDGE('',*,*,#222,.T.);
#33=ORIENTED_EDGE('',*,*,#223,.F.);
#34=ORIENTED_EDGE('',*,*,#224,.T.);
#35=ORIENTED_EDGE('',*,*,#225,.T.);
#36=ORIENTED_EDGE('',*,*,#226,.F.);
#37=ORIENTED_EDGE('',*,*,#227,.T.);
#38=ORIENTED_EDGE('',*,*,#228,.T.);
#39=ORIENTED_EDGE('',*,*,#229,.T.);
#40=ORIENTED_EDGE('',*,*,#230,.F.);
#41=ORIENTED_EDGE('',*,*,#231,.F.);
#42=ORIENTED_EDGE('',*,*,#232,.F.);
#43=ORIENTED_EDGE('',*,*,#233,.F.);
#44=ORIENTED_EDGE('',*,*,#234,.F.);
#45=ORIENTED_EDGE('',*,*,#235,.F.);
#46=ORIENTED_EDGE('',*,*,#236,.F.);
#47=ORIENTED_EDGE('',*,*,#237,.T.);
#48=ORIENTED_EDGE('',*,*,#230,.T.);
#49=ORIENTED_EDGE('',*,*,#238,.T.);
#50=ORIENTED_EDGE('',*,*,#239,.T.);
#51=ORIENTED_EDGE('',*,*,#240,.T.);
#52=ORIENTED_EDGE('',*,*,#241,.T.);
#53=ORIENTED_EDGE('',*,*,#242,.T.);
#54=ORIENTED_EDGE('',*,*,#243,.T.);
#55=ORIENTED_EDGE('',*,*,#244,.T.);
#56=ORIENTED_EDGE('',*,*,#245,.T.);
#57=ORIENTED_EDGE('',*,*,#246,.F.);
#58=ORIENTED_EDGE('',*,*,#247,.F.);
#59=ORIENTED_EDGE('',*,*,#248,.T.);
#60=ORIENTED_EDGE('',*,*,#249,.T.);
#61=ORIENTED_EDGE('',*,*,#250,.T.);
#62=ORIENTED_EDGE('',*,*,#236,.T.);
#63=ORIENTED_EDGE('',*,*,#251,.T.);
#64=ORIENTED_EDGE('',*,*,#252,.F.);
#65=ORIENTED_EDGE('',*,*,#253,.T.);
#66=ORIENTED_EDGE('',*,*,#254,.F.);
#67=ORIENTED_EDGE('',*,*,#255,.F.);
#68=ORIENTED_EDGE('',*,*,#256,.F.);
#69=ORIENTED_EDGE('',*,*,#257,.T.);
#70=ORIENTED_EDGE('',*,*,#258,.F.);
#71=ORIENTED_EDGE('',*,*,#259,.T.);
#72=ORIENTED_EDGE('',*,*,#260,.T.);
#73=ORIENTED_EDGE('',*,*,#261,.F.);
#74=ORIENTED_EDGE('',*,*,#245,.F.);
#75=ORIENTED_EDGE('',*,*,#262,.T.);
#76=ORIENTED_EDGE('',*,*,#226,.T.);
#77=ORIENTED_EDGE('',*,*,#263,.F.);
#78=ORIENTED_EDGE('',*,*,#264,.T.);
#79=ORIENTED_EDGE('',*,*,#265,.T.);
#80=ORIENTED_EDGE('',*,*,#252,.T.);
#81=ORIENTED_EDGE('',*,*,#266,.F.);
#82=ORIENTED_EDGE('',*,*,#248,.F.);
#83=ORIENTED_EDGE('',*,*,#267,.T.);
#84=ORIENTED_EDGE('',*,*,#223,.T.);
#85=ORIENTED_EDGE('',*,*,#268,.F.);
#86=ORIENTED_EDGE('',*,*,#269,.F.);
#87=ORIENTED_EDGE('',*,*,#270,.T.);
#88=ORIENTED_EDGE('',*,*,#271,.F.);
#89=ORIENTED_EDGE('',*,*,#249,.F.);
#90=ORIENTED_EDGE('',*,*,#266,.T.);
#91=ORIENTED_EDGE('',*,*,#261,.T.);
#92=ORIENTED_EDGE('',*,*,#272,.T.);
#93=ORIENTED_EDGE('',*,*,#273,.T.);
#94=ORIENTED_EDGE('',*,*,#221,.T.);
#95=ORIENTED_EDGE('',*,*,#274,.F.);
#96=ORIENTED_EDGE('',*,*,#275,.F.);
#97=ORIENTED_EDGE('',*,*,#276,.T.);
#98=ORIENTED_EDGE('',*,*,#231,.T.);
#99=ORIENTED_EDGE('',*,*,#237,.F.);
#100=ORIENTED_EDGE('',*,*,#250,.F.);
#101=ORIENTED_EDGE('',*,*,#271,.T.);
#102=ORIENTED_EDGE('',*,*,#277,.T.);
#103=ORIENTED_EDGE('',*,*,#278,.T.);
#104=ORIENTED_EDGE('',*,*,#258,.T.);
#105=ORIENTED_EDGE('',*,*,#279,.F.);
#106=ORIENTED_EDGE('',*,*,#224,.F.);
#107=ORIENTED_EDGE('',*,*,#267,.F.);
#108=ORIENTED_EDGE('',*,*,#247,.T.);
#109=ORIENTED_EDGE('',*,*,#280,.T.);
#110=ORIENTED_EDGE('',*,*,#225,.F.);
#111=ORIENTED_EDGE('',*,*,#280,.F.);
#112=ORIENTED_EDGE('',*,*,#246,.T.);
#113=ORIENTED_EDGE('',*,*,#263,.T.);
#114=ORIENTED_EDGE('',*,*,#260,.F.);
#115=ORIENTED_EDGE('',*,*,#281,.F.);
#116=ORIENTED_EDGE('',*,*,#282,.T.);
#117=ORIENTED_EDGE('',*,*,#269,.T.);
#118=ORIENTED_EDGE('',*,*,#259,.F.);
#119=ORIENTED_EDGE('',*,*,#278,.F.);
#120=ORIENTED_EDGE('',*,*,#283,.T.);
#121=ORIENTED_EDGE('',*,*,#281,.T.);
#122=ORIENTED_EDGE('',*,*,#282,.F.);
#123=ORIENTED_EDGE('',*,*,#283,.F.);
#124=ORIENTED_EDGE('',*,*,#277,.F.);
#125=ORIENTED_EDGE('',*,*,#270,.F.);
#126=ORIENTED_EDGE('',*,*,#284,.T.);
#127=ORIENTED_EDGE('',*,*,#285,.T.);
#128=ORIENTED_EDGE('',*,*,#286,.F.);
#129=ORIENTED_EDGE('',*,*,#287,.F.);
#130=ORIENTED_EDGE('',*,*,#256,.T.);
#131=ORIENTED_EDGE('',*,*,#288,.F.);
#132=ORIENTED_EDGE('',*,*,#289,.F.);
#133=ORIENTED_EDGE('',*,*,#286,.T.);
#134=ORIENTED_EDGE('',*,*,#290,.T.);
#135=ORIENTED_EDGE('',*,*,#255,.T.);
#136=ORIENTED_EDGE('',*,*,#291,.F.);
#137=ORIENTED_EDGE('',*,*,#292,.F.);
#138=ORIENTED_EDGE('',*,*,#288,.T.);
#139=ORIENTED_EDGE('',*,*,#254,.T.);
#140=ORIENTED_EDGE('',*,*,#293,.F.);
#141=ORIENTED_EDGE('',*,*,#284,.F.);
#142=ORIENTED_EDGE('',*,*,#294,.F.);
#143=ORIENTED_EDGE('',*,*,#291,.T.);
#144=ORIENTED_EDGE('',*,*,#287,.T.);
#145=ORIENTED_EDGE('',*,*,#289,.T.);
#146=ORIENTED_EDGE('',*,*,#292,.T.);
#147=ORIENTED_EDGE('',*,*,#294,.T.);
#148=ORIENTED_EDGE('',*,*,#295,.T.);
#149=ORIENTED_EDGE('',*,*,#216,.F.);
#150=ORIENTED_EDGE('',*,*,#296,.F.);
#151=ORIENTED_EDGE('',*,*,#240,.F.);
#152=ORIENTED_EDGE('',*,*,#297,.T.);
#153=ORIENTED_EDGE('',*,*,#217,.F.);
#154=ORIENTED_EDGE('',*,*,#295,.F.);
#155=ORIENTED_EDGE('',*,*,#239,.F.);
#156=ORIENTED_EDGE('',*,*,#298,.T.);
#157=ORIENTED_EDGE('',*,*,#218,.F.);
#158=ORIENTED_EDGE('',*,*,#297,.F.);
#159=ORIENTED_EDGE('',*,*,#242,.F.);
#160=ORIENTED_EDGE('',*,*,#296,.T.);
#161=ORIENTED_EDGE('',*,*,#219,.F.);
#162=ORIENTED_EDGE('',*,*,#298,.F.);
#163=ORIENTED_EDGE('',*,*,#241,.F.);
#164=ORIENTED_EDGE('',*,*,#232,.T.);
#165=ORIENTED_EDGE('',*,*,#276,.F.);
#166=ORIENTED_EDGE('',*,*,#299,.F.);
#167=ORIENTED_EDGE('',*,*,#300,.T.);
#168=ORIENTED_EDGE('',*,*,#234,.T.);
#169=ORIENTED_EDGE('',*,*,#301,.F.);
#170=ORIENTED_EDGE('',*,*,#302,.F.);
#171=ORIENTED_EDGE('',*,*,#274,.T.);
#172=ORIENTED_EDGE('',*,*,#233,.T.);
#173=ORIENTED_EDGE('',*,*,#300,.F.);
#174=ORIENTED_EDGE('',*,*,#303,.F.);
#175=ORIENTED_EDGE('',*,*,#301,.T.);
#176=ORIENTED_EDGE('',*,*,#299,.T.);
#177=ORIENTED_EDGE('',*,*,#275,.T.);
#178=ORIENTED_EDGE('',*,*,#302,.T.);
#179=ORIENTED_EDGE('',*,*,#303,.T.);
#180=ORIENTED_EDGE('',*,*,#304,.F.);
#181=ORIENTED_EDGE('',*,*,#238,.F.);
#182=ORIENTED_EDGE('',*,*,#305,.T.);
#183=ORIENTED_EDGE('',*,*,#220,.F.);
#184=ORIENTED_EDGE('',*,*,#304,.T.);
#185=ORIENTED_EDGE('',*,*,#305,.F.);
#186=ORIENTED_EDGE('',*,*,#306,.T.);
#187=ORIENTED_EDGE('',*,*,#227,.F.);
#188=ORIENTED_EDGE('',*,*,#262,.F.);
#189=ORIENTED_EDGE('',*,*,#244,.F.);
#190=ORIENTED_EDGE('',*,*,#307,.T.);
#191=ORIENTED_EDGE('',*,*,#228,.F.);
#192=ORIENTED_EDGE('',*,*,#306,.F.);
#193=ORIENTED_EDGE('',*,*,#243,.F.);
#194=ORIENTED_EDGE('',*,*,#235,.T.);
#195=ORIENTED_EDGE('',*,*,#229,.F.);
#196=ORIENTED_EDGE('',*,*,#307,.F.);
#197=ORIENTED_EDGE('',*,*,#251,.F.);
#198=ORIENTED_EDGE('',*,*,#293,.T.);
#199=ORIENTED_EDGE('',*,*,#253,.F.);
#200=ORIENTED_EDGE('',*,*,#265,.F.);
#201=ORIENTED_EDGE('',*,*,#308,.T.);
#202=ORIENTED_EDGE('',*,*,#309,.T.);
#203=ORIENTED_EDGE('',*,*,#279,.T.);
#204=ORIENTED_EDGE('',*,*,#257,.F.);
#205=ORIENTED_EDGE('',*,*,#290,.F.);
#206=ORIENTED_EDGE('',*,*,#222,.F.);
#207=ORIENTED_EDGE('',*,*,#273,.F.);
#208=ORIENTED_EDGE('',*,*,#310,.T.);
#209=ORIENTED_EDGE('',*,*,#268,.T.);
#210=ORIENTED_EDGE('',*,*,#264,.F.);
#211=ORIENTED_EDGE('',*,*,#310,.F.);
#212=ORIENTED_EDGE('',*,*,#272,.F.);
#213=ORIENTED_EDGE('',*,*,#309,.F.);
#214=ORIENTED_EDGE('',*,*,#285,.F.);
#215=ORIENTED_EDGE('',*,*,#308,.F.);
#216=EDGE_CURVE('',#311,#312,#375,.T.);
#217=EDGE_CURVE('',#312,#313,#376,.T.);
#218=EDGE_CURVE('',#313,#314,#377,.T.);
#219=EDGE_CURVE('',#314,#311,#378,.T.);
#220=EDGE_CURVE('',#315,#315,#22,.T.);
#221=EDGE_CURVE('',#316,#317,#379,.T.);
#222=EDGE_CURVE('',#316,#318,#380,.T.);
#223=EDGE_CURVE('',#319,#318,#381,.T.);
#224=EDGE_CURVE('',#319,#320,#382,.T.);
#225=EDGE_CURVE('',#320,#321,#383,.T.);
#226=EDGE_CURVE('',#322,#321,#384,.T.);
#227=EDGE_CURVE('',#322,#323,#385,.T.);
#228=EDGE_CURVE('',#323,#324,#386,.T.);
#229=EDGE_CURVE('',#324,#325,#387,.T.);
#230=EDGE_CURVE('',#326,#325,#388,.T.);
#231=EDGE_CURVE('',#327,#326,#389,.T.);
#232=EDGE_CURVE('',#328,#327,#390,.T.);
#233=EDGE_CURVE('',#329,#328,#391,.T.);
#234=EDGE_CURVE('',#317,#329,#392,.T.);
#235=EDGE_CURVE('',#330,#325,#393,.T.);
#236=EDGE_CURVE('',#331,#330,#394,.T.);
#237=EDGE_CURVE('',#331,#326,#395,.T.);
#238=EDGE_CURVE('',#332,#332,#23,.F.);
#239=EDGE_CURVE('',#333,#334,#396,.T.);
#240=EDGE_CURVE('',#334,#335,#397,.T.);
#241=EDGE_CURVE('',#335,#336,#398,.T.);
#242=EDGE_CURVE('',#336,#333,#399,.T.);
#243=EDGE_CURVE('',#337,#338,#400,.T.);
#244=EDGE_CURVE('',#338,#339,#401,.T.);
#245=EDGE_CURVE('',#339,#340,#402,.T.);
#246=EDGE_CURVE('',#341,#340,#403,.T.);
#247=EDGE_CURVE('',#342,#341,#404,.T.);
#248=EDGE_CURVE('',#342,#343,#405,.T.);
#249=EDGE_CURVE('',#343,#344,#406,.T.);
#250=EDGE_CURVE('',#344,#331,#407,.T.);
#251=EDGE_CURVE('',#330,#337,#408,.T.);
#252=EDGE_CURVE('',#345,#346,#409,.T.);
#253=EDGE_CURVE('',#345,#347,#410,.T.);
#254=EDGE_CURVE('',#348,#347,#411,.T.);
#255=EDGE_CURVE('',#349,#348,#412,.T.);
#256=EDGE_CURVE('',#350,#349,#413,.T.);
#257=EDGE_CURVE('',#350,#351,#414,.T.);
#258=EDGE_CURVE('',#352,#351,#415,.T.);
#259=EDGE_CURVE('',#352,#353,#416,.T.);
#260=EDGE_CURVE('',#353,#354,#417,.T.);
#261=EDGE_CURVE('',#346,#354,#418,.T.);
#262=EDGE_CURVE('',#339,#322,#419,.T.);
#263=EDGE_CURVE('',#340,#321,#420,.T.);
#264=EDGE_CURVE('',#355,#356,#421,.T.);
#265=EDGE_CURVE('',#356,#345,#422,.T.);
#266=EDGE_CURVE('',#343,#346,#423,.T.);
#267=EDGE_CURVE('',#342,#319,#424,.T.);
#268=EDGE_CURVE('',#355,#318,#425,.T.);
#269=EDGE_CURVE('',#357,#354,#426,.T.);
#270=EDGE_CURVE('',#357,#358,#427,.T.);
#271=EDGE_CURVE('',#344,#358,#428,.T.);
#272=EDGE_CURVE('',#359,#360,#429,.T.);
#273=EDGE_CURVE('',#360,#316,#430,.T.);
#274=EDGE_CURVE('',#361,#317,#431,.T.);
#275=EDGE_CURVE('',#362,#361,#432,.T.);
#276=EDGE_CURVE('',#362,#327,#433,.T.);
#277=EDGE_CURVE('',#358,#363,#434,.T.);
#278=EDGE_CURVE('',#363,#352,#435,.T.);
#279=EDGE_CURVE('',#359,#351,#436,.T.);
#280=EDGE_CURVE('',#341,#320,#437,.T.);
#281=EDGE_CURVE('',#364,#353,#438,.T.);
#282=EDGE_CURVE('',#364,#357,#439,.T.);
#283=EDGE_CURVE('',#363,#364,#440,.T.);
#284=EDGE_CURVE('',#365,#366,#441,.T.);
#285=EDGE_CURVE('',#366,#367,#442,.T.);
#286=EDGE_CURVE('',#368,#367,#443,.T.);
#287=EDGE_CURVE('',#365,#368,#444,.T.);
#288=EDGE_CURVE('',#369,#349,#445,.T.);
#289=EDGE_CURVE('',#368,#369,#446,.T.);
#290=EDGE_CURVE('',#367,#350,#447,.T.);
#291=EDGE_CURVE('',#370,#348,#448,.T.);
#292=EDGE_CURVE('',#369,#370,#449,.T.);
#293=EDGE_CURVE('',#366,#347,#450,.T.);
#294=EDGE_CURVE('',#370,#365,#451,.T.);
#295=EDGE_CURVE('',#334,#312,#452,.T.);
#296=EDGE_CURVE('',#335,#311,#453,.T.);
#297=EDGE_CURVE('',#333,#313,#454,.T.);
#298=EDGE_CURVE('',#336,#314,#455,.T.);
#299=EDGE_CURVE('',#371,#362,#456,.T.);
#300=EDGE_CURVE('',#371,#328,#457,.T.);
#301=EDGE_CURVE('',#372,#329,#458,.T.);
#302=EDGE_CURVE('',#361,#372,#459,.T.);
#303=EDGE_CURVE('',#372,#371,#460,.T.);
#304=EDGE_CURVE('',#373,#373,#24,.T.);
#305=EDGE_CURVE('',#374,#374,#25,.T.);
#306=EDGE_CURVE('',#338,#323,#461,.T.);
#307=EDGE_CURVE('',#337,#324,#462,.T.);
#308=EDGE_CURVE('',#356,#366,#463,.T.);
#309=EDGE_CURVE('',#367,#359,#464,.T.);
#310=EDGE_CURVE('',#360,#355,#465,.T.);
#311=VERTEX_POINT('',#942);
#312=VERTEX_POINT('',#943);
#313=VERTEX_POINT('',#945);
#314=VERTEX_POINT('',#947);
#315=VERTEX_POINT('',#950);
#316=VERTEX_POINT('',#952);
#317=VERTEX_POINT('',#953);
#318=VERTEX_POINT('',#955);
#319=VERTEX_POINT('',#957);
#320=VERTEX_POINT('',#959);
#321=VERTEX_POINT('',#961);
#322=VERTEX_POINT('',#963);
#323=VERTEX_POINT('',#965);
#324=VERTEX_POINT('',#967);
#325=VERTEX_POINT('',#969);
#326=VERTEX_POINT('',#971);
#327=VERTEX_POINT('',#973);
#328=VERTEX_POINT('',#975);
#329=VERTEX_POINT('',#977);
#330=VERTEX_POINT('',#981);
#331=VERTEX_POINT('',#983);
#332=VERTEX_POINT('',#987);
#333=VERTEX_POINT('',#989);
#334=VERTEX_POINT('',#990);
#335=VERTEX_POINT('',#992);
#336=VERTEX_POINT('',#994);
#337=VERTEX_POINT('',#997);
#338=VERTEX_POINT('',#998);
#339=VERTEX_POINT('',#1000);
#340=VERTEX_POINT('',#1002);
#341=VERTEX_POINT('',#1004);
#342=VERTEX_POINT('',#1006);
#343=VERTEX_POINT('',#1008);
#344=VERTEX_POINT('',#1010);
#345=VERTEX_POINT('',#1015);
#346=VERTEX_POINT('',#1016);
#347=VERTEX_POINT('',#1018);
#348=VERTEX_POINT('',#1020);
#349=VERTEX_POINT('',#1022);
#350=VERTEX_POINT('',#1024);
#351=VERTEX_POINT('',#1026);
#352=VERTEX_POINT('',#1028);
#353=VERTEX_POINT('',#1030);
#354=VERTEX_POINT('',#1032);
#355=VERTEX_POINT('',#1039);
#356=VERTEX_POINT('',#1040);
#357=VERTEX_POINT('',#1047);
#358=VERTEX_POINT('',#1049);
#359=VERTEX_POINT('',#1053);
#360=VERTEX_POINT('',#1054);
#361=VERTEX_POINT('',#1057);
#362=VERTEX_POINT('',#1059);
#363=VERTEX_POINT('',#1062);
#364=VERTEX_POINT('',#1070);
#365=VERTEX_POINT('',#1077);
#366=VERTEX_POINT('',#1078);
#367=VERTEX_POINT('',#1080);
#368=VERTEX_POINT('',#1082);
#369=VERTEX_POINT('',#1086);
#370=VERTEX_POINT('',#1091);
#371=VERTEX_POINT('',#1107);
#372=VERTEX_POINT('',#1111);
#373=VERTEX_POINT('',#1118);
#374=VERTEX_POINT('',#1121);
#375=LINE('',#941,#466);
#376=LINE('',#944,#467);
#377=LINE('',#946,#468);
#378=LINE('',#948,#469);
#379=LINE('',#951,#470);
#380=LINE('',#954,#471);
#381=LINE('',#956,#472);
#382=LINE('',#958,#473);
#383=LINE('',#960,#474);
#384=LINE('',#962,#475);
#385=LINE('',#964,#476);
#386=LINE('',#966,#477);
#387=LINE('',#968,#478);
#388=LINE('',#970,#479);
#389=LINE('',#972,#480);
#390=LINE('',#974,#481);
#391=LINE('',#976,#482);
#392=LINE('',#978,#483);
#393=LINE('',#980,#484);
#394=LINE('',#982,#485);
#395=LINE('',#984,#486);
#396=LINE('',#988,#487);
#397=LINE('',#991,#488);
#398=LINE('',#993,#489);
#399=LINE('',#995,#490);
#400=LINE('',#996,#491);
#401=LINE('',#999,#492);
#402=LINE('',#1001,#493);
#403=LINE('',#1003,#494);
#404=LINE('',#1005,#495);
#405=LINE('',#1007,#496);
#406=LINE('',#1009,#497);
#407=LINE('',#1011,#498);
#408=LINE('',#1012,#499);
#409=LINE('',#1014,#500);
#410=LINE('',#1017,#501);
#411=LINE('',#1019,#502);
#412=LINE('',#1021,#503);
#413=LINE('',#1023,#504);
#414=LINE('',#1025,#505);
#415=LINE('',#1027,#506);
#416=LINE('',#1029,#507);
#417=LINE('',#1031,#508);
#418=LINE('',#1033,#509);
#419=LINE('',#1035,#510);
#420=LINE('',#1036,#511);
#421=LINE('',#1038,#512);
#422=LINE('',#1041,#513);
#423=LINE('',#1042,#514);
#424=LINE('',#1043,#515);
#425=LINE('',#1044,#516);
#426=LINE('',#1046,#517);
#427=LINE('',#1048,#518);
#428=LINE('',#1050,#519);
#429=LINE('',#1052,#520);
#430=LINE('',#1055,#521);
#431=LINE('',#1056,#522);
#432=LINE('',#1058,#523);
#433=LINE('',#1060,#524);
#434=LINE('',#1061,#525);
#435=LINE('',#1063,#526);
#436=LINE('',#1064,#527);
#437=LINE('',#1066,#528);
#438=LINE('',#1069,#529);
#439=LINE('',#1071,#530);
#440=LINE('',#1073,#531);
#441=LINE('',#1076,#532);
#442=LINE('',#1079,#533);
#443=LINE('',#1081,#534);
#444=LINE('',#1083,#535);
#445=LINE('',#1085,#536);
#446=LINE('',#1087,#537);
#447=LINE('',#1088,#538);
#448=LINE('',#1090,#539);
#449=LINE('',#1092,#540);
#450=LINE('',#1094,#541);
#451=LINE('',#1095,#542);
#452=LINE('',#1098,#543);
#453=LINE('',#1099,#544);
#454=LINE('',#1101,#545);
#455=LINE('',#1103,#546);
#456=LINE('',#1106,#547);
#457=LINE('',#1108,#548);
#458=LINE('',#1110,#549);
#459=LINE('',#1112,#550);
#460=LINE('',#1114,#551);
#461=LINE('',#1124,#552);
#462=LINE('',#1126,#553);
#463=LINE('',#1129,#554);
#464=LINE('',#1131,#555);
#465=LINE('',#1133,#556);
#466=VECTOR('',#770,1000.);
#467=VECTOR('',#771,1000.);
#468=VECTOR('',#772,1000.);
#469=VECTOR('',#773,1000.);
#470=VECTOR('',#776,1000.);
#471=VECTOR('',#777,1000.);
#472=VECTOR('',#778,1000.);
#473=VECTOR('',#779,1000.);
#474=VECTOR('',#780,1000.);
#475=VECTOR('',#781,1000.);
#476=VECTOR('',#782,1000.);
#477=VECTOR('',#783,1000.);
#478=VECTOR('',#784,1000.);
#479=VECTOR('',#785,1000.);
#480=VECTOR('',#786,1000.);
#481=VECTOR('',#787,1000.);
#482=VECTOR('',#788,1000.);
#483=VECTOR('',#789,1000.);
#484=VECTOR('',#792,1000.);
#485=VECTOR('',#793,1000.);
#486=VECTOR('',#794,1000.);
#487=VECTOR('',#799,1000.);
#488=VECTOR('',#800,1000.);
#489=VECTOR('',#801,1000.);
#490=VECTOR('',#802,1000.);
#491=VECTOR('',#803,1000.);
#492=VECTOR('',#804,1000.);
#493=VECTOR('',#805,1000.);
#494=VECTOR('',#806,1000.);
#495=VECTOR('',#807,1000.);
#496=VECTOR('',#808,1000.);
#497=VECTOR('',#809,1000.);
#498=VECTOR('',#810,1000.);
#499=VECTOR('',#811,1000.);
#500=VECTOR('',#814,1000.);
#501=VECTOR('',#815,1000.);
#502=VECTOR('',#816,1000.);
#503=VECTOR('',#817,1000.);
#504=VECTOR('',#818,1000.);
#505=VECTOR('',#819,1000.);
#506=VECTOR('',#820,1000.);
#507=VECTOR('',#821,1000.);
#508=VECTOR('',#822,1000.);
#509=VECTOR('',#823,1000.);
#510=VECTOR('',#826,1000.);
#511=VECTOR('',#827,1000.);
#512=VECTOR('',#830,1000.);
#513=VECTOR('',#831,1000.);
#514=VECTOR('',#832,1000.);
#515=VECTOR('',#833,1000.);
#516=VECTOR('',#834,1000.);
#517=VECTOR('',#837,1000.);
#518=VECTOR('',#838,1000.);
#519=VECTOR('',#839,1000.);
#520=VECTOR('',#842,1000.);
#521=VECTOR('',#843,1000.);
#522=VECTOR('',#844,1000.);
#523=VECTOR('',#845,1000.);
#524=VECTOR('',#846,1000.);
#525=VECTOR('',#847,1000.);
#526=VECTOR('',#848,1000.);
#527=VECTOR('',#849,1000.);
#528=VECTOR('',#852,1000.);
#529=VECTOR('',#857,1000.);
#530=VECTOR('',#858,1000.);
#531=VECTOR('',#861,1000.);
#532=VECTOR('',#866,1000.);
#533=VECTOR('',#867,1000.);
#534=VECTOR('',#868,1000.);
#535=VECTOR('',#869,1000.);
#536=VECTOR('',#872,1000.);
#537=VECTOR('',#873,1000.);
#538=VECTOR('',#874,1000.);
#539=VECTOR('',#877,1000.);
#540=VECTOR('',#878,1000.);
#541=VECTOR('',#881,1000.);
#542=VECTOR('',#882,1000.);
#543=VECTOR('',#887,1000.);
#544=VECTOR('',#888,1000.);
#545=VECTOR('',#891,1000.);
#546=VECTOR('',#894,1000.);
#547=VECTOR('',#899,1000.);
#548=VECTOR('',#900,1000.);
#549=VECTOR('',#903,1000.);
#550=VECTOR('',#904,1000.);
#551=VECTOR('',#907,1000.);
#552=VECTOR('',#922,1000.);
#553=VECTOR('',#925,1000.);
#554=VECTOR('',#930,1000.);
#555=VECTOR('',#933,1000.);
#556=VECTOR('',#936,1000.);
#557=EDGE_LOOP('',(#26,#27,#28,#29));
#558=EDGE_LOOP('',(#30));
#559=EDGE_LOOP('',(#31,#32,#33,#34,#35,#36,#37,#38,#39,#40,#41,#42,#43,
#44));
#560=EDGE_LOOP('',(#45,#46,#47,#48));
#561=EDGE_LOOP('',(#49));
#562=EDGE_LOOP('',(#50,#51,#52,#53));
#563=EDGE_LOOP('',(#54,#55,#56,#57,#58,#59,#60,#61,#62,#63));
#564=EDGE_LOOP('',(#64,#65,#66,#67,#68,#69,#70,#71,#72,#73));
#565=EDGE_LOOP('',(#74,#75,#76,#77));
#566=EDGE_LOOP('',(#78,#79,#80,#81,#82,#83,#84,#85));
#567=EDGE_LOOP('',(#86,#87,#88,#89,#90,#91));
#568=EDGE_LOOP('',(#92,#93,#94,#95,#96,#97,#98,#99,#100,#101,#102,#103,
#104,#105));
#569=EDGE_LOOP('',(#106,#107,#108,#109));
#570=EDGE_LOOP('',(#110,#111,#112,#113));
#571=EDGE_LOOP('',(#114,#115,#116,#117));
#572=EDGE_LOOP('',(#118,#119,#120,#121));
#573=EDGE_LOOP('',(#122,#123,#124,#125));
#574=EDGE_LOOP('',(#126,#127,#128,#129));
#575=EDGE_LOOP('',(#130,#131,#132,#133,#134));
#576=EDGE_LOOP('',(#135,#136,#137,#138));
#577=EDGE_LOOP('',(#139,#140,#141,#142,#143));
#578=EDGE_LOOP('',(#144,#145,#146,#147));
#579=EDGE_LOOP('',(#148,#149,#150,#151));
#580=EDGE_LOOP('',(#152,#153,#154,#155));
#581=EDGE_LOOP('',(#156,#157,#158,#159));
#582=EDGE_LOOP('',(#160,#161,#162,#163));
#583=EDGE_LOOP('',(#164,#165,#166,#167));
#584=EDGE_LOOP('',(#168,#169,#170,#171));
#585=EDGE_LOOP('',(#172,#173,#174,#175));
#586=EDGE_LOOP('',(#176,#177,#178,#179));
#587=EDGE_LOOP('',(#180));
#588=EDGE_LOOP('',(#181));
#589=EDGE_LOOP('',(#182));
#590=EDGE_LOOP('',(#183));
#591=EDGE_LOOP('',(#184));
#592=EDGE_LOOP('',(#185));
#593=EDGE_LOOP('',(#186,#187,#188,#189));
#594=EDGE_LOOP('',(#190,#191,#192,#193));
#595=EDGE_LOOP('',(#194,#195,#196,#197));
#596=EDGE_LOOP('',(#198,#199,#200,#201));
#597=EDGE_LOOP('',(#202,#203,#204,#205));
#598=EDGE_LOOP('',(#206,#207,#208,#209));
#599=EDGE_LOOP('',(#210,#211,#212,#213,#214,#215));
#600=FACE_BOUND('',#557,.T.);
#601=FACE_BOUND('',#558,.T.);
#602=FACE_BOUND('',#559,.T.);
#603=FACE_BOUND('',#560,.T.);
#604=FACE_BOUND('',#561,.T.);
#605=FACE_BOUND('',#562,.T.);
#606=FACE_BOUND('',#563,.T.);
#607=FACE_BOUND('',#564,.T.);
#608=FACE_BOUND('',#565,.T.);
#609=FACE_BOUND('',#566,.T.);
#610=FACE_BOUND('',#567,.T.);
#611=FACE_BOUND('',#568,.T.);
#612=FACE_BOUND('',#569,.T.);
#613=FACE_BOUND('',#570,.T.);
#614=FACE_BOUND('',#571,.T.);
#615=FACE_BOUND('',#572,.T.);
#616=FACE_BOUND('',#573,.T.);
#617=FACE_BOUND('',#574,.T.);
#618=FACE_BOUND('',#575,.T.);
#619=FACE_BOUND('',#576,.T.);
#620=FACE_BOUND('',#577,.T.);
#621=FACE_BOUND('',#578,.T.);
#622=FACE_BOUND('',#579,.T.);
#623=FACE_BOUND('',#580,.T.);
#624=FACE_BOUND('',#581,.T.);
#625=FACE_BOUND('',#582,.T.);
#626=FACE_BOUND('',#583,.T.);
#627=FACE_BOUND('',#584,.T.);
#628=FACE_BOUND('',#585,.T.);
#629=FACE_BOUND('',#586,.T.);
#630=FACE_BOUND('',#587,.T.);
#631=FACE_BOUND('',#588,.T.);
#632=FACE_BOUND('',#589,.T.);
#633=FACE_BOUND('',#590,.T.);
#634=FACE_BOUND('',#591,.T.);
#635=FACE_BOUND('',#592,.T.);
#636=FACE_BOUND('',#593,.T.);
#637=FACE_BOUND('',#594,.T.);
#638=FACE_BOUND('',#595,.T.);
#639=FACE_BOUND('',#596,.T.);
#640=FACE_BOUND('',#597,.T.);
#641=FACE_BOUND('',#598,.T.);
#642=FACE_BOUND('',#599,.T.);
#643=PLANE('',#726);
#644=PLANE('',#728);
#645=PLANE('',#729);
#646=PLANE('',#731);
#647=PLANE('',#732);
#648=PLANE('',#733);
#649=PLANE('',#734);
#650=PLANE('',#735);
#651=PLANE('',#736);
#652=PLANE('',#737);
#653=PLANE('',#738);
#654=PLANE('',#739);
#655=PLANE('',#740);
#656=PLANE('',#741);
#657=PLANE('',#742);
#658=PLANE('',#743);
#659=PLANE('',#744);
#660=PLANE('',#745);
#661=PLANE('',#746);
#662=PLANE('',#747);
#663=PLANE('',#748);
#664=PLANE('',#749);
#665=PLANE('',#750);
#666=PLANE('',#751);
#667=PLANE('',#752);
#668=PLANE('',#753);
#669=PLANE('',#758);
#670=PLANE('',#759);
#671=PLANE('',#760);
#672=PLANE('',#761);
#673=PLANE('',#762);
#674=PLANE('',#763);
#675=PLANE('',#764);
#676=PLANE('',#765);
#677=ADVANCED_FACE('',(#600,#601,#602),#643,.F.);
#678=ADVANCED_FACE('',(#603),#644,.F.);
#679=ADVANCED_FACE('',(#604,#605,#606),#645,.T.);
#680=ADVANCED_FACE('',(#607),#646,.F.);
#681=ADVANCED_FACE('',(#608),#647,.F.);
#682=ADVANCED_FACE('',(#609),#648,.F.);
#683=ADVANCED_FACE('',(#610),#649,.F.);
#684=ADVANCED_FACE('',(#611),#650,.F.);
#685=ADVANCED_FACE('',(#612),#651,.T.);
#686=ADVANCED_FACE('',(#613),#652,.T.);
#687=ADVANCED_FACE('',(#614),#653,.T.);
#688=ADVANCED_FACE('',(#615),#654,.T.);
#689=ADVANCED_FACE('',(#616),#655,.F.);
#690=ADVANCED_FACE('',(#617),#656,.F.);
#691=ADVANCED_FACE('',(#618),#657,.F.);
#692=ADVANCED_FACE('',(#619),#658,.F.);
#693=ADVANCED_FACE('',(#620),#659,.F.);
#694=ADVANCED_FACE('',(#621),#660,.T.);
#695=ADVANCED_FACE('',(#622),#661,.T.);
#696=ADVANCED_FACE('',(#623),#662,.T.);
#697=ADVANCED_FACE('',(#624),#663,.T.);
#698=ADVANCED_FACE('',(#625),#664,.T.);
#699=ADVANCED_FACE('',(#626),#665,.F.);
#700=ADVANCED_FACE('',(#627),#666,.F.);
#701=ADVANCED_FACE('',(#628),#667,.F.);
#702=ADVANCED_FACE('',(#629),#668,.T.);
#703=ADVANCED_FACE('',(#630,#631),#20,.F.);
#704=ADVANCED_FACE('',(#632,#633),#21,.F.);
#705=ADVANCED_FACE('',(#634,#635),#669,.F.);
#706=ADVANCED_FACE('',(#636),#670,.T.);
#707=ADVANCED_FACE('',(#637),#671,.T.);
#708=ADVANCED_FACE('',(#638),#672,.T.);
#709=ADVANCED_FACE('',(#639),#673,.T.);
#710=ADVANCED_FACE('',(#640),#674,.T.);
#711=ADVANCED_FACE('',(#641),#675,.T.);
#712=ADVANCED_FACE('',(#642),#676,.F.);
#713=CLOSED_SHELL('',(#677,#678,#679,#680,#681,#682,#683,#684,#685,#686,
#687,#688,#689,#690,#691,#692,#693,#694,#695,#696,#697,#698,#699,#700,#701,
#702,#703,#704,#705,#706,#707,#708,#709,#710,#711,#712));
#714=STYLED_ITEM('',(#715),#722);
#715=PRESENTATION_STYLE_ASSIGNMENT((#716));
#716=SURFACE_STYLE_USAGE(.BOTH.,#717);
#717=SURFACE_SIDE_STYLE('',(#718));
#718=SURFACE_STYLE_FILL_AREA(#719);
#719=FILL_AREA_STYLE('',(#720));
#720=FILL_AREA_STYLE_COLOUR('',#721);
#721=COLOUR_RGB('',0.506983280181885,0.531564235687256,0.550000011920929);
#722=MANIFOLD_SOLID_BREP('',#713);
#723=SHAPE_DEFINITION_REPRESENTATION(#1141,#724);
#724=SHAPE_REPRESENTATION('Part2',(#725),#1136);
#725=AXIS2_PLACEMENT_3D('',#939,#766,#767);
#726=AXIS2_PLACEMENT_3D('',#940,#768,#769);
#727=AXIS2_PLACEMENT_3D('',#949,#774,#775);
#728=AXIS2_PLACEMENT_3D('',#979,#790,#791);
#729=AXIS2_PLACEMENT_3D('',#985,#795,#796);
#730=AXIS2_PLACEMENT_3D('',#986,#797,#798);
#731=AXIS2_PLACEMENT_3D('',#1013,#812,#813);
#732=AXIS2_PLACEMENT_3D('',#1034,#824,#825);
#733=AXIS2_PLACEMENT_3D('',#1037,#828,#829);
#734=AXIS2_PLACEMENT_3D('',#1045,#835,#836);
#735=AXIS2_PLACEMENT_3D('',#1051,#840,#841);
#736=AXIS2_PLACEMENT_3D('',#1065,#850,#851);
#737=AXIS2_PLACEMENT_3D('',#1067,#853,#854);
#738=AXIS2_PLACEMENT_3D('',#1068,#855,#856);
#739=AXIS2_PLACEMENT_3D('',#1072,#859,#860);
#740=AXIS2_PLACEMENT_3D('',#1074,#862,#863);
#741=AXIS2_PLACEMENT_3D('',#1075,#864,#865);
#742=AXIS2_PLACEMENT_3D('',#1084,#870,#871);
#743=AXIS2_PLACEMENT_3D('',#1089,#875,#876);
#744=AXIS2_PLACEMENT_3D('',#1093,#879,#880);
#745=AXIS2_PLACEMENT_3D('',#1096,#883,#884);
#746=AXIS2_PLACEMENT_3D('',#1097,#885,#886);
#747=AXIS2_PLACEMENT_3D('',#1100,#889,#890);
#748=AXIS2_PLACEMENT_3D('',#1102,#892,#893);
#749=AXIS2_PLACEMENT_3D('',#1104,#895,#896);
#750=AXIS2_PLACEMENT_3D('',#1105,#897,#898);
#751=AXIS2_PLACEMENT_3D('',#1109,#901,#902);
#752=AXIS2_PLACEMENT_3D('',#1113,#905,#906);
#753=AXIS2_PLACEMENT_3D('',#1115,#908,#909);
#754=AXIS2_PLACEMENT_3D('',#1116,#910,#911);
#755=AXIS2_PLACEMENT_3D('',#1117,#912,#913);
#756=AXIS2_PLACEMENT_3D('',#1119,#914,#915);
#757=AXIS2_PLACEMENT_3D('',#1120,#916,#917);
#758=AXIS2_PLACEMENT_3D('',#1122,#918,#919);
#759=AXIS2_PLACEMENT_3D('',#1123,#920,#921);
#760=AXIS2_PLACEMENT_3D('',#1125,#923,#924);
#761=AXIS2_PLACEMENT_3D('',#1127,#926,#927);
#762=AXIS2_PLACEMENT_3D('',#1128,#928,#929);
#763=AXIS2_PLACEMENT_3D('',#1130,#931,#932);
#764=AXIS2_PLACEMENT_3D('',#1132,#934,#935);
#765=AXIS2_PLACEMENT_3D('',#1134,#937,#938);
#766=DIRECTION('',(0.,0.,1.));
#767=DIRECTION('',(1.,0.,0.));
#768=DIRECTION('',(0.,0.,-1.));
#769=DIRECTION('',(-1.,0.,0.));
#770=DIRECTION('',(1.,0.,0.));
#771=DIRECTION('',(0.,-1.,0.));
#772=DIRECTION('',(-1.,0.,0.));
#773=DIRECTION('',(0.,1.,0.));
#774=DIRECTION('',(0.,0.,-1.));
#775=DIRECTION('',(1.,0.,0.));
#776=DIRECTION('',(-1.,0.,0.));
#777=DIRECTION('',(0.,1.,0.));
#778=DIRECTION('',(1.,0.,0.));
#779=DIRECTION('',(0.,-1.,0.));
#780=DIRECTION('',(-1.,0.,0.));
#781=DIRECTION('',(0.,1.,0.));
#782=DIRECTION('',(1.,-1.73472347597681E-16,0.));
#783=DIRECTION('',(0.,-1.,0.));
#784=DIRECTION('',(-1.,1.73472347597681E-16,0.));
#785=DIRECTION('',(0.,1.,0.));
#786=DIRECTION('',(-1.,0.,0.));
#787=DIRECTION('',(0.,-1.,0.));
#788=DIRECTION('',(-1.,0.,0.));
#789=DIRECTION('',(0.,1.,0.));
#790=DIRECTION('',(1.,0.,0.));
#791=DIRECTION('',(0.,0.,-1.));
#792=DIRECTION('',(0.,0.,1.));
#793=DIRECTION('',(0.,1.,0.));
#794=DIRECTION('',(0.,0.,1.));
#795=DIRECTION('',(0.,0.,-1.));
#796=DIRECTION('',(-1.,0.,0.));
#797=DIRECTION('',(0.,0.,-1.));
#798=DIRECTION('',(-1.,0.,0.));
#799=DIRECTION('',(0.,1.,0.));
#800=DIRECTION('',(-1.,0.,0.));
#801=DIRECTION('',(0.,-1.,0.));
#802=DIRECTION('',(1.,0.,0.));
#803=DIRECTION('',(0.,1.,0.));
#804=DIRECTION('',(-1.,1.73472347597681E-16,0.));
#805=DIRECTION('',(0.,1.,0.));
#806=DIRECTION('',(-1.,0.,0.));
#807=DIRECTION('',(0.,-1.,0.));
#808=DIRECTION('',(1.,0.,0.));
#809=DIRECTION('',(0.,-1.,0.));
#810=DIRECTION('',(-1.,0.,0.));
#811=DIRECTION('',(1.,-1.73472347597681E-16,0.));
#812=DIRECTION('',(0.,0.,-1.));
#813=DIRECTION('',(-1.,0.,0.));
#814=DIRECTION('',(1.,0.,0.));
#815=DIRECTION('',(1.30104260698261E-16,-1.,0.));
#816=DIRECTION('',(-1.,0.,0.));
#817=DIRECTION('',(0.,1.,0.));
#818=DIRECTION('',(1.,0.,0.));
#819=DIRECTION('',(1.30104260698261E-16,-1.,0.));
#820=DIRECTION('',(-1.,0.,0.));
#821=DIRECTION('',(0.,1.,0.));
#822=DIRECTION('',(1.,0.,0.));
#823=DIRECTION('',(0.,-1.,0.));
#824=DIRECTION('',(1.,0.,0.));
#825=DIRECTION('',(0.,0.,-1.));
#826=DIRECTION('',(0.,0.,1.));
#827=DIRECTION('',(0.,0.,1.));
#828=DIRECTION('',(0.,-1.,0.));
#829=DIRECTION('',(0.,0.,-1.));
#830=DIRECTION('',(1.,0.,0.));
#831=DIRECTION('',(0.,0.,1.));
#832=DIRECTION('',(0.,0.,1.));
#833=DIRECTION('',(0.,0.,1.));
#834=DIRECTION('',(0.,0.,1.));
#835=DIRECTION('',(-1.,0.,0.));
#836=DIRECTION('',(0.,0.,1.));
#837=DIRECTION('',(0.,0.,1.));
#838=DIRECTION('',(0.,-1.,0.));
#839=DIRECTION('',(0.,0.,1.));
#840=DIRECTION('',(0.,1.,0.));
#841=DIRECTION('',(0.,0.,1.));
#842=DIRECTION('',(-1.,0.,0.));
#843=DIRECTION('',(0.,0.,1.));
#844=DIRECTION('',(0.,0.,1.));
#845=DIRECTION('',(1.,0.,0.));
#846=DIRECTION('',(0.,0.,1.));
#847=DIRECTION('',(-1.,0.,0.));
#848=DIRECTION('',(0.,0.,1.));
#849=DIRECTION('',(0.,0.,1.));
#850=DIRECTION('',(-1.,0.,0.));
#851=DIRECTION('',(0.,0.,1.));
#852=DIRECTION('',(0.,0.,1.));
#853=DIRECTION('',(0.,1.,0.));
#854=DIRECTION('',(0.,0.,1.));
#855=DIRECTION('',(0.,-1.,0.));
#856=DIRECTION('',(0.,0.,-1.));
#857=DIRECTION('',(0.,0.,1.));
#858=DIRECTION('',(1.,0.,0.));
#859=DIRECTION('',(1.,0.,0.));
#860=DIRECTION('',(0.,0.,-1.));
#861=DIRECTION('',(0.,1.,0.));
#862=DIRECTION('',(0.,0.,-1.));
#863=DIRECTION('',(-1.,0.,0.));
#864=DIRECTION('',(-1.,0.,0.));
#865=DIRECTION('',(0.,0.,1.));
#866=DIRECTION('',(0.,0.,1.));
#867=DIRECTION('',(1.30104260698261E-16,-1.,0.));
#868=DIRECTION('',(0.,0.,1.));
#869=DIRECTION('',(0.,-1.,0.));
#870=DIRECTION('',(0.,-1.,0.));
#871=DIRECTION('',(0.,0.,-1.));
#872=DIRECTION('',(0.,0.,1.));
#873=DIRECTION('',(1.,0.,0.));
#874=DIRECTION('',(0.,0.,1.));
#875=DIRECTION('',(1.,0.,0.));
#876=DIRECTION('',(0.,0.,-1.));
#877=DIRECTION('',(0.,0.,1.));
#878=DIRECTION('',(0.,1.,0.));
#879=DIRECTION('',(0.,1.,0.));
#880=DIRECTION('',(0.,0.,1.));
#881=DIRECTION('',(0.,0.,1.));
#882=DIRECTION('',(-1.,0.,0.));
#883=DIRECTION('',(0.,0.,1.));
#884=DIRECTION('',(1.,0.,0.));
#885=DIRECTION('',(0.,-1.,0.));
#886=DIRECTION('',(0.,0.,-1.));
#887=DIRECTION('',(0.,0.,1.));
#888=DIRECTION('',(0.,0.,1.));
#889=DIRECTION('',(-1.,0.,0.));
#890=DIRECTION('',(0.,0.,1.));
#891=DIRECTION('',(0.,0.,1.));
#892=DIRECTION('',(0.,1.,0.));
#893=DIRECTION('',(0.,0.,1.));
#894=DIRECTION('',(0.,0.,1.));
#895=DIRECTION('',(1.,0.,0.));
#896=DIRECTION('',(0.,0.,-1.));
#897=DIRECTION('',(-1.,0.,0.));
#898=DIRECTION('',(0.,0.,1.));
#899=DIRECTION('',(0.,-1.,0.));
#900=DIRECTION('',(0.,0.,1.));
#901=DIRECTION('',(1.,0.,0.));
#902=DIRECTION('',(0.,0.,-1.));
#903=DIRECTION('',(0.,0.,1.));
#904=DIRECTION('',(0.,1.,0.));
#905=DIRECTION('',(0.,1.,0.));
#906=DIRECTION('',(0.,0.,1.));
#907=DIRECTION('',(-1.,0.,0.));
#908=DIRECTION('',(0.,0.,1.));
#909=DIRECTION('',(1.,0.,0.));
#910=DIRECTION('',(0.,0.,1.));
#911=DIRECTION('',(1.,0.,0.));
#912=DIRECTION('',(0.,0.,-1.));
#913=DIRECTION('',(-1.,0.,0.));
#914=DIRECTION('',(0.,0.,1.));
#915=DIRECTION('',(1.,0.,0.));
#916=DIRECTION('',(0.,0.,-1.));
#917=DIRECTION('',(1.,0.,0.));
#918=DIRECTION('',(0.,0.,-1.));
#919=DIRECTION('',(-1.,0.,0.));
#920=DIRECTION('',(-1.73472347597681E-16,-1.,0.));
#921=DIRECTION('',(1.,-1.73472347597681E-16,0.));
#922=DIRECTION('',(0.,0.,1.));
#923=DIRECTION('',(-1.,0.,0.));
#924=DIRECTION('',(0.,0.,1.));
#925=DIRECTION('',(0.,0.,1.));
#926=DIRECTION('',(1.73472347597681E-16,1.,0.));
#927=DIRECTION('',(-1.,1.73472347597681E-16,0.));
#928=DIRECTION('',(-1.,-1.30104260698261E-16,0.));
#929=DIRECTION('',(1.30104260698261E-16,-1.,0.));
#930=DIRECTION('',(1.30104260698261E-16,-1.,0.));
#931=DIRECTION('',(-1.,-1.30104260698261E-16,0.));
#932=DIRECTION('',(1.30104260698261E-16,-1.,0.));
#933=DIRECTION('',(1.30104260698261E-16,-1.,0.));
#934=DIRECTION('',(1.,0.,0.));
#935=DIRECTION('',(0.,0.,-1.));
#936=DIRECTION('',(0.,1.,0.));
#937=DIRECTION('',(0.,0.,-1.));
#938=DIRECTION('',(-1.,0.,0.));
#939=CARTESIAN_POINT('',(0.,0.,0.));
#940=CARTESIAN_POINT('',(0.,0.,0.));
#941=CARTESIAN_POINT('',(-30.,-10.,0.));
#942=CARTESIAN_POINT('',(-30.,-10.,0.));
#943=CARTESIAN_POINT('',(-20.,-10.,0.));
#944=CARTESIAN_POINT('',(-20.,-10.,0.));
#945=CARTESIAN_POINT('',(-20.,-20.,0.));
#946=CARTESIAN_POINT('',(-20.,-20.,0.));
#947=CARTESIAN_POINT('',(-30.,-20.,0.));
#948=CARTESIAN_POINT('',(-30.,-20.,0.));
#949=CARTESIAN_POINT('',(0.,0.,0.));
#950=CARTESIAN_POINT('',(10.,0.,0.));
#951=CARTESIAN_POINT('',(50.,-40.,0.));
#952=CARTESIAN_POINT('',(16.1824857377012,-40.,0.));
#953=CARTESIAN_POINT('',(10.,-40.,0.));
#954=CARTESIAN_POINT('',(16.1824857377012,-40.,0.));
#955=CARTESIAN_POINT('',(16.1824857377012,40.,0.));
#956=CARTESIAN_POINT('',(-50.,40.,0.));
#957=CARTESIAN_POINT('',(-30.,40.,0.));
#958=CARTESIAN_POINT('',(-30.,40.,0.));
#959=CARTESIAN_POINT('',(-30.,30.,0.));
#960=CARTESIAN_POINT('',(-30.,30.,0.));
#961=CARTESIAN_POINT('',(-50.,30.,0.));
#962=CARTESIAN_POINT('',(-50.,-40.,0.));
#963=CARTESIAN_POINT('',(-50.,10.,0.));
#964=CARTESIAN_POINT('',(-50.,10.,0.));
#965=CARTESIAN_POINT('',(-40.,10.,0.));
#966=CARTESIAN_POINT('',(-40.,10.,0.));
#967=CARTESIAN_POINT('',(-40.,-10.,0.));
#968=CARTESIAN_POINT('',(-40.,-10.,0.));
#969=CARTESIAN_POINT('',(-50.,-10.,0.));
#970=CARTESIAN_POINT('',(-50.,-40.,0.));
#971=CARTESIAN_POINT('',(-50.,-40.,0.));
#972=CARTESIAN_POINT('',(50.,-40.,0.));
#973=CARTESIAN_POINT('',(-10.,-40.,0.));
#974=CARTESIAN_POINT('',(-10.,-30.,0.));
#975=CARTESIAN_POINT('',(-10.,-30.,0.));
#976=CARTESIAN_POINT('',(10.,-30.,0.));
#977=CARTESIAN_POINT('',(10.,-30.,0.));
#978=CARTESIAN_POINT('',(10.,-40.,0.));
#979=CARTESIAN_POINT('',(-50.,-40.,-20.));
#980=CARTESIAN_POINT('',(-50.,-10.,-58.2881858486868));
#981=CARTESIAN_POINT('',(-50.,-10.,-20.));
#982=CARTESIAN_POINT('',(-50.,-40.,-20.));
#983=CARTESIAN_POINT('',(-50.,-40.,-20.));
#984=CARTESIAN_POINT('',(-50.,-40.,-20.));
#985=CARTESIAN_POINT('',(0.,0.,-20.));
#986=CARTESIAN_POINT('',(0.,0.,-20.));
#987=CARTESIAN_POINT('',(-5.,0.,-20.));
#988=CARTESIAN_POINT('',(-20.,0.,-20.));
#989=CARTESIAN_POINT('',(-20.,-20.,-20.));
#990=CARTESIAN_POINT('',(-20.,-10.,-20.));
#991=CARTESIAN_POINT('',(0.,-10.,-20.));
#992=CARTESIAN_POINT('',(-30.,-10.,-20.));
#993=CARTESIAN_POINT('',(-30.,0.,-20.));
#994=CARTESIAN_POINT('',(-30.,-20.,-20.));
#995=CARTESIAN_POINT('',(0.,-20.,-20.));
#996=CARTESIAN_POINT('',(-40.,0.,-20.));
#997=CARTESIAN_POINT('',(-40.,-10.,-20.));
#998=CARTESIAN_POINT('',(-40.,10.,-20.));
#999=CARTESIAN_POINT('',(1.73472347597681E-15,10.,-20.));
#1000=CARTESIAN_POINT('',(-50.,10.,-20.));
#1001=CARTESIAN_POINT('',(-50.,-40.,-20.));
#1002=CARTESIAN_POINT('',(-50.,30.,-20.));
#1003=CARTESIAN_POINT('',(-30.,30.,-20.));
#1004=CARTESIAN_POINT('',(-30.,30.,-20.));
#1005=CARTESIAN_POINT('',(-30.,40.,-20.));
#1006=CARTESIAN_POINT('',(-30.,40.,-20.));
#1007=CARTESIAN_POINT('',(-50.,40.,-20.));
#1008=CARTESIAN_POINT('',(50.,40.,-20.));
#1009=CARTESIAN_POINT('',(50.,40.,-20.));
#1010=CARTESIAN_POINT('',(50.,-40.,-20.));
#1011=CARTESIAN_POINT('',(50.,-40.,-20.));
#1012=CARTESIAN_POINT('',(-1.73472347597681E-15,-10.,-20.));
#1013=CARTESIAN_POINT('',(0.,0.,0.));
#1014=CARTESIAN_POINT('',(-50.,40.,0.));
#1015=CARTESIAN_POINT('',(24.303973748343,40.,0.));
#1016=CARTESIAN_POINT('',(50.,40.,0.));
#1017=CARTESIAN_POINT('',(24.303973748343,40.,0.));
#1018=CARTESIAN_POINT('',(24.303973748343,26.2017191717244,0.));
#1019=CARTESIAN_POINT('',(34.303973748343,26.2017191717244,0.));
#1020=CARTESIAN_POINT('',(34.303973748343,26.2017191717244,0.));
#1021=CARTESIAN_POINT('',(34.303973748343,16.2017191717244,0.));
#1022=CARTESIAN_POINT('',(34.303973748343,16.2017191717244,0.));
#1023=CARTESIAN_POINT('',(24.303973748343,16.2017191717244,0.));
#1024=CARTESIAN_POINT('',(24.303973748343,16.2017191717244,0.));
#1025=CARTESIAN_POINT('',(24.303973748343,40.,0.));
#1026=CARTESIAN_POINT('',(24.303973748343,-40.,0.));
#1027=CARTESIAN_POINT('',(50.,-40.,0.));
#1028=CARTESIAN_POINT('',(40.,-40.,0.));
#1029=CARTESIAN_POINT('',(40.,-40.,0.));
#1030=CARTESIAN_POINT('',(40.,-30.,0.));
#1031=CARTESIAN_POINT('',(40.,-30.,0.));
#1032=CARTESIAN_POINT('',(50.,-30.,0.));
#1033=CARTESIAN_POINT('',(50.,40.,0.));
#1034=CARTESIAN_POINT('',(-50.,-40.,-20.));
#1035=CARTESIAN_POINT('',(-50.,10.,-58.2881858486868));
#1036=CARTESIAN_POINT('',(-50.,30.,-20.));
#1037=CARTESIAN_POINT('',(-50.,40.,-20.));
#1038=CARTESIAN_POINT('',(16.1824857377012,40.,-10.));
#1039=CARTESIAN_POINT('',(16.1824857377012,40.,-10.));
#1040=CARTESIAN_POINT('',(24.303973748343,40.,-10.));
#1041=CARTESIAN_POINT('',(24.303973748343,40.,-10.));
#1042=CARTESIAN_POINT('',(50.,40.,-20.));
#1043=CARTESIAN_POINT('',(-30.,40.,-20.));
#1044=CARTESIAN_POINT('',(16.1824857377012,40.,-10.));
#1045=CARTESIAN_POINT('',(50.,40.,-20.));
#1046=CARTESIAN_POINT('',(50.,-30.,-10.));
#1047=CARTESIAN_POINT('',(50.,-30.,-10.));
#1048=CARTESIAN_POINT('',(50.,-30.,-10.));
#1049=CARTESIAN_POINT('',(50.,-40.,-10.));
#1050=CARTESIAN_POINT('',(50.,-40.,-20.));
#1051=CARTESIAN_POINT('',(50.,-40.,-20.));
#1052=CARTESIAN_POINT('',(24.303973748343,-40.,-10.));
#1053=CARTESIAN_POINT('',(24.303973748343,-40.,-10.));
#1054=CARTESIAN_POINT('',(16.1824857377012,-40.,-10.));
#1055=CARTESIAN_POINT('',(16.1824857377012,-40.,-10.));
#1056=CARTESIAN_POINT('',(10.,-40.,-10.));
#1057=CARTESIAN_POINT('',(10.,-40.,-10.));
#1058=CARTESIAN_POINT('',(-10.,-40.,-10.));
#1059=CARTESIAN_POINT('',(-10.,-40.,-10.));
#1060=CARTESIAN_POINT('',(-10.,-40.,-10.));
#1061=CARTESIAN_POINT('',(50.,-40.,-10.));
#1062=CARTESIAN_POINT('',(40.,-40.,-10.));
#1063=CARTESIAN_POINT('',(40.,-40.,-10.));
#1064=CARTESIAN_POINT('',(24.303973748343,-40.,-10.));
#1065=CARTESIAN_POINT('',(-30.,40.,-20.));
#1066=CARTESIAN_POINT('',(-30.,30.,-20.));
#1067=CARTESIAN_POINT('',(-30.,30.,-20.));
#1068=CARTESIAN_POINT('',(40.,-30.,-10.));
#1069=CARTESIAN_POINT('',(40.,-30.,-10.));
#1070=CARTESIAN_POINT('',(40.,-30.,-10.));
#1071=CARTESIAN_POINT('',(40.,-30.,-10.));
#1072=CARTESIAN_POINT('',(40.,-40.,-10.));
#1073=CARTESIAN_POINT('',(40.,-40.,-10.));
#1074=CARTESIAN_POINT('',(0.,0.,-10.));
#1075=CARTESIAN_POINT('',(24.303973748343,26.2017191717244,-15.));
#1076=CARTESIAN_POINT('',(24.303973748343,26.2017191717244,-15.));
#1077=CARTESIAN_POINT('',(24.303973748343,26.2017191717244,-15.));
#1078=CARTESIAN_POINT('',(24.303973748343,26.2017191717244,-10.));
#1079=CARTESIAN_POINT('',(24.303973748343,40.,-10.));
#1080=CARTESIAN_POINT('',(24.303973748343,16.2017191717244,-10.));
#1081=CARTESIAN_POINT('',(24.303973748343,16.2017191717244,-15.));
#1082=CARTESIAN_POINT('',(24.303973748343,16.2017191717244,-15.));
#1083=CARTESIAN_POINT('',(24.303973748343,26.2017191717244,-15.));
#1084=CARTESIAN_POINT('',(24.303973748343,16.2017191717244,-15.));
#1085=CARTESIAN_POINT('',(34.303973748343,16.2017191717244,-15.));
#1086=CARTESIAN_POINT('',(34.303973748343,16.2017191717244,-15.));
#1087=CARTESIAN_POINT('',(24.303973748343,16.2017191717244,-15.));
#1088=CARTESIAN_POINT('',(24.303973748343,16.2017191717244,-15.));
#1089=CARTESIAN_POINT('',(34.303973748343,16.2017191717244,-15.));
#1090=CARTESIAN_POINT('',(34.303973748343,26.2017191717244,-15.));
#1091=CARTESIAN_POINT('',(34.303973748343,26.2017191717244,-15.));
#1092=CARTESIAN_POINT('',(34.303973748343,16.2017191717244,-15.));
#1093=CARTESIAN_POINT('',(34.303973748343,26.2017191717244,-15.));
#1094=CARTESIAN_POINT('',(24.303973748343,26.2017191717244,-15.));
#1095=CARTESIAN_POINT('',(34.303973748343,26.2017191717244,-15.));
#1096=CARTESIAN_POINT('',(0.,0.,-15.));
#1097=CARTESIAN_POINT('',(-30.,-10.,-59.4950756328291));
#1098=CARTESIAN_POINT('',(-20.,-10.,-59.4950756328291));
#1099=CARTESIAN_POINT('',(-30.,-10.,-59.4950756328291));
#1100=CARTESIAN_POINT('',(-20.,-10.,-59.4950756328291));
#1101=CARTESIAN_POINT('',(-20.,-20.,-59.4950756328291));
#1102=CARTESIAN_POINT('',(-20.,-20.,-59.4950756328291));
#1103=CARTESIAN_POINT('',(-30.,-20.,-59.4950756328291));
#1104=CARTESIAN_POINT('',(-30.,-20.,-59.4950756328291));
#1105=CARTESIAN_POINT('',(-10.,-30.,-10.));
#1106=CARTESIAN_POINT('',(-10.,-30.,-10.));
#1107=CARTESIAN_POINT('',(-10.,-30.,-10.));
#1108=CARTESIAN_POINT('',(-10.,-30.,-10.));
#1109=CARTESIAN_POINT('',(10.,-40.,-10.));
#1110=CARTESIAN_POINT('',(10.,-30.,-10.));
#1111=CARTESIAN_POINT('',(10.,-30.,-10.));
#1112=CARTESIAN_POINT('',(10.,-40.,-10.));
#1113=CARTESIAN_POINT('',(10.,-30.,-10.));
#1114=CARTESIAN_POINT('',(10.,-30.,-10.));
#1115=CARTESIAN_POINT('',(0.,0.,-10.));
#1116=CARTESIAN_POINT('',(0.,0.,-108.87968374342));
#1117=CARTESIAN_POINT('',(0.,0.,-5.));
#1118=CARTESIAN_POINT('',(-5.,0.,-5.));
#1119=CARTESIAN_POINT('',(0.,0.,-5.));
#1120=CARTESIAN_POINT('',(0.,0.,-5.));
#1121=CARTESIAN_POINT('',(10.,0.,-5.));
#1122=CARTESIAN_POINT('',(0.,0.,-5.));
#1123=CARTESIAN_POINT('',(-50.,10.,-58.2881858486868));
#1124=CARTESIAN_POINT('',(-40.,10.,-58.2881858486868));
#1125=CARTESIAN_POINT('',(-40.,10.,-58.2881858486868));
#1126=CARTESIAN_POINT('',(-40.,-10.,-58.2881858486868));
#1127=CARTESIAN_POINT('',(-40.,-10.,-58.2881858486868));
#1128=CARTESIAN_POINT('',(24.303973748343,40.,-10.));
#1129=CARTESIAN_POINT('',(24.303973748343,40.,-10.));
#1130=CARTESIAN_POINT('',(24.303973748343,40.,-10.));
#1131=CARTESIAN_POINT('',(24.303973748343,40.,-10.));
#1132=CARTESIAN_POINT('',(16.1824857377012,-40.,-10.));
#1133=CARTESIAN_POINT('',(16.1824857377012,-40.,-10.));
#1134=CARTESIAN_POINT('',(0.,0.,-10.));
#1135=MECHANICAL_DESIGN_GEOMETRIC_PRESENTATION_REPRESENTATION('',(#714),
#1136);
#1136=(
GEOMETRIC_REPRESENTATION_CONTEXT(3)
GLOBAL_UNCERTAINTY_ASSIGNED_CONTEXT((#1137))
GLOBAL_UNIT_ASSIGNED_CONTEXT((#1140,#1139,#1138))
REPRESENTATION_CONTEXT('Part2','TOP_LEVEL_ASSEMBLY_PART')
);
#1137=UNCERTAINTY_MEASURE_WITH_UNIT(LENGTH_MEASURE(0.005),#1140,
'DISTANCE_ACCURACY_VALUE','Maximum Tolerance applied to model');
#1138=(
NAMED_UNIT(*)
SI_UNIT($,.STERADIAN.)
SOLID_ANGLE_UNIT()
);
#1139=(
NAMED_UNIT(*)
PLANE_ANGLE_UNIT()
SI_UNIT($,.RADIAN.)
);
#1140=(
LENGTH_UNIT()
NAMED_UNIT(*)
SI_UNIT(.MILLI.,.METRE.)
);
#1141=PRODUCT_DEFINITION_SHAPE('','',#1142);
#1142=PRODUCT_DEFINITION('','',#1144,#1143);
#1143=PRODUCT_DEFINITION_CONTEXT('',#1150,'design');
#1144=PRODUCT_DEFINITION_FORMATION_WITH_SPECIFIED_SOURCE('','',#1146,
 .NOT_KNOWN.);
#1145=PRODUCT_RELATED_PRODUCT_CATEGORY('','',(#1146));
#1146=PRODUCT('Part2','Part2','Part2',(#1148));
#1147=PRODUCT_CATEGORY('','');
#1148=PRODUCT_CONTEXT('',#1150,'mechanical');
#1149=APPLICATION_PROTOCOL_DEFINITION('international standard',
'automotive_design',2010,#1150);
#1150=APPLICATION_CONTEXT(
'core data for automotive mechanical design processes');
ENDSEC;
END-ISO-10303-21;
